# back_wall_painted.obj: metric frame, metres
v -2.975000 2.118922 0.000000
v -2.975000 2.118922 2.750000
v -2.975000 2.238922 2.750000
v -2.975000 2.118922 0.000000
v -2.975000 2.238922 2.750000
v -2.975000 2.238922 0.000000
v -2.975000 2.238922 0.000000
v -2.975000 2.238922 2.750000
v 2.500000 2.238922 2.750000
v -2.975000 2.238922 0.000000
v 2.500000 2.238922 2.750000
v 2.500000 2.238922 0.000000
v 2.500000 2.238922 0.000000
v 2.500000 2.238922 2.750000
v 2.500000 2.118922 2.750000
v 2.500000 2.238922 0.000000
v 2.500000 2.118922 2.750000
v 2.500000 2.118922 0.000000
v 2.500000 2.118922 0.000000
v 2.500000 2.118922 2.750000
v -2.975000 2.118922 2.750000
v 2.500000 2.118922 0.000000
v -2.975000 2.118922 2.750000
v -2.975000 2.118922 0.000000
v -2.975000 2.238922 0.000000
v 2.500000 2.238922 0.000000
v 2.500000 2.118922 0.000000
v -2.975000 2.238922 0.000000
v 2.500000 2.118922 0.000000
v -2.975000 2.118922 0.000000
v 2.500000 2.238922 2.750000
v -2.975000 2.238922 2.750000
v -2.975000 2.118922 2.750000
v 2.500000 2.238922 2.750000
v -2.975000 2.118922 2.750000
v 2.500000 2.118922 2.750000
vt 0.978966 0.467450
vt 0.978966 0.000666
vt 0.999334 0.000666
vt 0.978966 0.467450
vt 0.999334 0.000666
vt 0.999334 0.467450
vt 0.955934 0.929991
vt 0.489150 0.929991
vt 0.489150 0.000666
vt 0.955934 0.929991
vt 0.489150 0.000666
vt 0.955934 0.000666
vt 0.978966 0.935565
vt 0.978966 0.468781
vt 0.999334 0.468781
vt 0.978966 0.935565
vt 0.999334 0.468781
vt 0.999334 0.935565
vt 0.467450 0.929991
vt 0.000666 0.929991
vt 0.000666 0.000666
vt 0.467450 0.929991
vt 0.000666 0.000666
vt 0.467450 0.000666
vt 0.487819 0.000666
vt 0.487819 0.929991
vt 0.467450 0.929991
vt 0.487819 0.000666
vt 0.467450 0.929991
vt 0.467450 0.000666
vt 0.977634 0.000666
vt 0.977634 0.929991
vt 0.957265 0.929991
vt 0.977634 0.000666
vt 0.957265 0.929991
vt 0.957265 0.000666
vn -1.00000 0.00000 0.00000
vn -1.00000 0.00000 0.00000
vn -1.00000 0.00000 0.00000
vn -1.00000 0.00000 0.00000
vn -1.00000 0.00000 0.00000
vn -1.00000 0.00000 0.00000
vn 0.00000 1.00000 0.00000
vn 0.00000 1.00000 0.00000
vn 0.00000 1.00000 0.00000
vn 0.00000 1.00000 0.00000
vn 0.00000 1.00000 0.00000
vn 0.00000 1.00000 0.00000
vn 1.00000 0.00000 0.00000
vn 1.00000 0.00000 0.00000
vn 1.00000 0.00000 0.00000
vn 1.00000 0.00000 0.00000
vn 1.00000 0.00000 0.00000
vn 1.00000 0.00000 0.00000
vn 0.00000 -1.00000 0.00000
vn 0.00000 -1.00000 0.00000
vn 0.00000 -1.00000 0.00000
vn 0.00000 -1.00000 0.00000
vn 0.00000 -1.00000 0.00000
vn 0.00000 -1.00000 0.00000
vn 0.00000 0.00000 -1.00000
vn 0.00000 0.00000 -1.00000
vn 0.00000 0.00000 -1.00000
vn 0.00000 0.00000 -1.00000
vn 0.00000 0.00000 -1.00000
vn 0.00000 0.00000 -1.00000
vn 0.00000 0.00000 1.00000
vn 0.00000 0.00000 1.00000
vn 0.00000 0.00000 1.00000
vn 0.00000 0.00000 1.00000
vn 0.00000 0.00000 1.00000
vn 0.00000 0.00000 1.00000
f 1/1/1 2/2/2 3/3/3
f 4/4/4 5/5/5 6/6/6
f 7/7/7 8/8/8 9/9/9
f 10/10/10 11/11/11 12/12/12
f 13/13/13 14/14/14 15/15/15
f 16/16/16 17/17/17 18/18/18
f 19/19/19 20/20/20 21/21/21
f 22/22/22 23/23/23 24/24/24
f 25/25/25 26/26/26 27/27/27
f 28/28/28 29/29/29 30/30/30
f 31/31/31 32/32/32 33/33/33
f 34/34/34 35/35/35 36/36/36
