# back_wall_end_return.obj: metric frame, metres
v -2.976000 2.118922 0.000000
v -2.976000 2.118922 2.750000
v -2.976000 2.160000 2.750000
v -2.976000 2.118922 0.000000
v -2.976000 2.160000 2.750000
v -2.976000 2.160000 0.000000
v -2.976000 2.160000 0.000000
v -2.976000 2.160000 2.750000
v -2.975000 2.160000 2.750000
v -2.976000 2.160000 0.000000
v -2.975000 2.160000 2.750000
v -2.975000 2.160000 0.000000
v -2.975000 2.160000 0.000000
v -2.975000 2.160000 2.750000
v -2.975000 2.118922 2.750000
v -2.975000 2.160000 0.000000
v -2.975000 2.118922 2.750000
v -2.975000 2.118922 0.000000
v -2.975000 2.118922 0.000000
v -2.975000 2.118922 2.750000
v -2.976000 2.118922 2.750000
v -2.975000 2.118922 0.000000
v -2.976000 2.118922 2.750000
v -2.976000 2.118922 0.000000
v -2.976000 2.160000 0.000000
v -2.975000 2.160000 0.000000
v -2.975000 2.118922 0.000000
v -2.976000 2.160000 0.000000
v -2.975000 2.118922 0.000000
v -2.976000 2.118922 0.000000
v -2.975000 2.160000 2.750000
v -2.976000 2.160000 2.750000
v -2.976000 2.118922 2.750000
v -2.975000 2.160000 2.750000
v -2.976000 2.118922 2.750000
v -2.975000 2.118922 2.750000
vt 0.000115 0.999885
vt 0.000115 0.000115
vt 0.015049 0.000115
vt 0.000115 0.999885
vt 0.015049 0.000115
vt 0.015049 0.999885
vt 0.030442 0.999885
vt 0.030442 0.000115
vt 0.030806 0.000115
vt 0.030442 0.999885
vt 0.030806 0.000115
vt 0.030806 0.999885
vt 0.015279 0.999885
vt 0.015279 0.000115
vt 0.030212 0.000115
vt 0.015279 0.999885
vt 0.030212 0.000115
vt 0.030212 0.999885
vt 0.031036 0.999885
vt 0.031036 0.000115
vt 0.031399 0.000115
vt 0.031036 0.999885
vt 0.031399 0.000115
vt 0.031399 0.999885
vt 0.031993 0.015049
vt 0.031629 0.015049
vt 0.031629 0.000115
vt 0.031993 0.015049
vt 0.031629 0.000115
vt 0.031993 0.000115
vt 0.031993 0.030213
vt 0.031629 0.030213
vt 0.031629 0.015279
vt 0.031993 0.030213
vt 0.031629 0.015279
vt 0.031993 0.015279
vn -1.00000 0.00000 0.00000
vn -1.00000 0.00000 0.00000
vn -1.00000 0.00000 0.00000
vn -1.00000 0.00000 0.00000
vn -1.00000 0.00000 0.00000
vn -1.00000 0.00000 0.00000
vn 0.00000 1.00000 0.00000
vn 0.00000 1.00000 0.00000
vn 0.00000 1.00000 0.00000
vn 0.00000 1.00000 0.00000
vn 0.00000 1.00000 0.00000
vn 0.00000 1.00000 0.00000
vn 1.00000 0.00000 0.00000
vn 1.00000 0.00000 0.00000
vn 1.00000 0.00000 0.00000
vn 1.00000 0.00000 0.00000
vn 1.00000 0.00000 0.00000
vn 1.00000 0.00000 0.00000
vn 0.00000 -1.00000 0.00000
vn 0.00000 -1.00000 0.00000
vn 0.00000 -1.00000 0.00000
vn 0.00000 -1.00000 0.00000
vn 0.00000 -1.00000 0.00000
vn 0.00000 -1.00000 0.00000
vn 0.00000 0.00000 -1.00000
vn 0.00000 0.00000 -1.00000
vn 0.00000 0.00000 -1.00000
vn 0.00000 0.00000 -1.00000
vn 0.00000 0.00000 -1.00000
vn 0.00000 0.00000 -1.00000
vn 0.00000 0.00000 1.00000
vn 0.00000 0.00000 1.00000
vn 0.00000 0.00000 1.00000
vn 0.00000 0.00000 1.00000
vn 0.00000 0.00000 1.00000
vn 0.00000 0.00000 1.00000
f 1/1/1 2/2/2 3/3/3
f 4/4/4 5/5/5 6/6/6
f 7/7/7 8/8/8 9/9/9
f 10/10/10 11/11/11 12/12/12
f 13/13/13 14/14/14 15/15/15
f 16/16/16 17/17/17 18/18/18
f 19/19/19 20/20/20 21/21/21
f 22/22/22 23/23/23 24/24/24
f 25/25/25 26/26/26 27/27/27
f 28/28/28 29/29/29 30/30/30
f 31/31/31 32/32/32 33/33/33
f 34/34/34 35/35/35 36/36/36
