# camera_pole_base_gusset.obj: metric frame, metres
v -2.279900 1.415400 0.788300
v -2.279900 1.465400 0.738300
v -2.279900 1.415400 0.738300
v -2.271900 1.415400 0.738300
v -2.271900 1.465400 0.738300
v -2.271900 1.415400 0.788300
v -2.279900 1.415400 0.738300
v -2.279900 1.465400 0.738300
v -2.271900 1.465400 0.738300
v -2.279900 1.415400 0.738300
v -2.271900 1.465400 0.738300
v -2.271900 1.415400 0.738300
v -2.279900 1.465400 0.738300
v -2.279900 1.415400 0.788300
v -2.271900 1.415400 0.788300
v -2.279900 1.465400 0.738300
v -2.271900 1.415400 0.788300
v -2.271900 1.465400 0.738300
v -2.279900 1.415400 0.788300
v -2.279900 1.415400 0.738300
v -2.271900 1.415400 0.738300
v -2.279900 1.415400 0.788300
v -2.271900 1.415400 0.738300
v -2.271900 1.415400 0.788300
vt 0.371419 0.000686
vt 0.371419 0.742150
vt 0.000687 0.371418
vt 0.743526 0.371418
vt 0.372794 0.742150
vt 0.372794 0.000686
vt 0.914052 0.000688
vt 0.914052 0.524982
vt 0.830163 0.524982
vt 0.914052 0.000688
vt 0.830163 0.524982
vt 0.830163 0.000688
vt 0.744900 0.742150
vt 0.744900 0.000687
vt 0.828788 0.000687
vt 0.744900 0.742150
vt 0.828788 0.000687
vt 0.828788 0.742150
vt 0.999316 0.000687
vt 0.999316 0.524981
vt 0.915427 0.524981
vt 0.999316 0.000687
vt 0.915427 0.524981
vt 0.915427 0.000687
vn -1.00000 0.00000 0.00000
vn -1.00000 0.00000 0.00000
vn -1.00000 0.00000 0.00000
vn 1.00000 0.00000 0.00000
vn 1.00000 0.00000 0.00000
vn 1.00000 0.00000 0.00000
vn 0.00000 0.00000 -1.00000
vn 0.00000 0.00000 -1.00000
vn 0.00000 0.00000 -1.00000
vn 0.00000 0.00000 -1.00000
vn 0.00000 0.00000 -1.00000
vn 0.00000 0.00000 -1.00000
vn 0.00000 0.70711 0.70711
vn 0.00000 0.70711 0.70711
vn 0.00000 0.70711 0.70711
vn 0.00000 0.70711 0.70711
vn 0.00000 0.70711 0.70711
vn 0.00000 0.70711 0.70711
vn 0.00000 -1.00000 0.00000
vn 0.00000 -1.00000 0.00000
vn 0.00000 -1.00000 0.00000
vn 0.00000 -1.00000 0.00000
vn 0.00000 -1.00000 0.00000
vn 0.00000 -1.00000 0.00000
f 1/1/1 2/2/2 3/3/3
f 4/4/4 5/5/5 6/6/6
f 7/7/7 8/8/8 9/9/9
f 10/10/10 11/11/11 12/12/12
f 13/13/13 14/14/14 15/15/15
f 16/16/16 17/17/17 18/18/18
f 19/19/19 20/20/20 21/21/21
f 22/22/22 23/23/23 24/24/24
