# door_lever_handle_neck.obj: metric frame, metres
v -4.714623 1.414264 0.991000
v -4.714623 1.414264 1.009000
v -4.686896 1.418160 1.009000
v -4.714623 1.414264 0.991000
v -4.686896 1.418160 1.009000
v -4.686896 1.418160 0.991000
v -4.686896 1.418160 0.991000
v -4.686896 1.418160 1.009000
v -4.683557 1.394393 1.009000
v -4.686896 1.418160 0.991000
v -4.683557 1.394393 1.009000
v -4.683557 1.394393 0.991000
v -4.683557 1.394393 0.991000
v -4.683557 1.394393 1.009000
v -4.711284 1.390497 1.009000
v -4.683557 1.394393 0.991000
v -4.711284 1.390497 1.009000
v -4.711284 1.390497 0.991000
v -4.711284 1.390497 0.991000
v -4.711284 1.390497 1.009000
v -4.714623 1.414264 1.009000
v -4.711284 1.390497 0.991000
v -4.714623 1.414264 1.009000
v -4.714623 1.414264 0.991000
v -4.686896 1.418160 0.991000
v -4.683557 1.394393 0.991000
v -4.711284 1.390497 0.991000
v -4.686896 1.418160 0.991000
v -4.711284 1.390497 0.991000
v -4.714623 1.414264 0.991000
v -4.683557 1.394393 1.009000
v -4.686896 1.418160 1.009000
v -4.714623 1.414264 1.009000
v -4.683557 1.394393 1.009000
v -4.714623 1.414264 1.009000
v -4.711284 1.390497 1.009000
vt 0.635682 0.846743
vt 0.364320 0.846743
vt 0.364320 0.424622
vt 0.635682 0.846743
vt 0.364320 0.424622
vt 0.635682 0.424622
vt 0.908713 0.786440
vt 0.637350 0.786440
vt 0.637350 0.424623
vt 0.908713 0.786440
vt 0.637350 0.424623
vt 0.908713 0.424623
vt 0.362651 0.846743
vt 0.091289 0.846743
vt 0.091289 0.424622
vt 0.362651 0.846743
vt 0.091289 0.424622
vt 0.362651 0.424622
vt 0.999168 0.362651
vt 0.727805 0.362651
vt 0.727805 0.000834
vt 0.999168 0.362651
vt 0.727805 0.000834
vt 0.999168 0.000834
vt 0.362651 0.422954
vt 0.000834 0.422954
vt 0.000834 0.000834
vt 0.362651 0.422954
vt 0.000834 0.000834
vt 0.362651 0.000834
vt 0.726137 0.422954
vt 0.364320 0.422954
vt 0.364320 0.000834
vt 0.726137 0.422954
vt 0.364320 0.000834
vt 0.726137 0.000834
vn -0.13914 0.99027 0.00000
vn -0.13914 0.99027 0.00000
vn -0.13914 0.99027 0.00000
vn -0.13914 0.99027 0.00000
vn -0.13914 0.99027 0.00000
vn -0.13914 0.99027 0.00000
vn 0.99027 0.13914 0.00000
vn 0.99027 0.13914 0.00000
vn 0.99027 0.13914 0.00000
vn 0.99027 0.13914 0.00000
vn 0.99027 0.13914 0.00000
vn 0.99027 0.13914 0.00000
vn 0.13914 -0.99027 0.00000
vn 0.13914 -0.99027 0.00000
vn 0.13914 -0.99027 0.00000
vn 0.13914 -0.99027 0.00000
vn 0.13914 -0.99027 0.00000
vn 0.13914 -0.99027 0.00000
vn -0.99027 -0.13914 0.00000
vn -0.99027 -0.13914 0.00000
vn -0.99027 -0.13914 0.00000
vn -0.99027 -0.13914 0.00000
vn -0.99027 -0.13914 0.00000
vn -0.99027 -0.13914 0.00000
vn 0.00000 0.00000 -1.00000
vn 0.00000 0.00000 -1.00000
vn 0.00000 0.00000 -1.00000
vn 0.00000 0.00000 -1.00000
vn 0.00000 0.00000 -1.00000
vn 0.00000 0.00000 -1.00000
vn 0.00000 0.00000 1.00000
vn 0.00000 0.00000 1.00000
vn 0.00000 0.00000 1.00000
vn 0.00000 0.00000 1.00000
vn 0.00000 0.00000 1.00000
vn 0.00000 0.00000 1.00000
f 1/1/1 2/2/2 3/3/3
f 4/4/4 5/5/5 6/6/6
f 7/7/7 8/8/8 9/9/9
f 10/10/10 11/11/11 12/12/12
f 13/13/13 14/14/14 15/15/15
f 16/16/16 17/17/17 18/18/18
f 19/19/19 20/20/20 21/21/21
f 22/22/22 23/23/23 24/24/24
f 25/25/25 26/26/26 27/27/27
f 28/28/28 29/29/29 30/30/30
f 31/31/31 32/32/32 33/33/33
f 34/34/34 35/35/35 36/36/36
