# door_card_reader_lock_body.obj: metric frame, metres
v -4.734830 1.421523 0.930000
v -4.736930 1.421228 0.930879
v -4.736786 1.422997 0.931268
v -4.734830 1.421523 0.930000
v -4.736786 1.422997 0.931268
v -4.735125 1.423623 0.930879
v -4.737801 1.421105 0.933000
v -4.737226 1.423328 0.933000
v -4.736786 1.422997 0.931268
v -4.737801 1.421105 0.933000
v -4.736786 1.422997 0.931268
v -4.736930 1.421228 0.930879
v -4.735247 1.424494 0.933000
v -4.735125 1.423623 0.930879
v -4.736786 1.422997 0.931268
v -4.735247 1.424494 0.933000
v -4.736786 1.422997 0.931268
v -4.737226 1.423328 0.933000
v -4.737801 1.421105 1.117000
v -4.736930 1.421228 1.119121
v -4.736786 1.422997 1.118732
v -4.737801 1.421105 1.117000
v -4.736786 1.422997 1.118732
v -4.737226 1.423328 1.117000
v -4.734830 1.421523 1.120000
v -4.735125 1.423623 1.119121
v -4.736786 1.422997 1.118732
v -4.734830 1.421523 1.120000
v -4.736786 1.422997 1.118732
v -4.736930 1.421228 1.119121
v -4.735247 1.424494 1.117000
v -4.737226 1.423328 1.117000
v -4.736786 1.422997 1.118732
v -4.735247 1.424494 1.117000
v -4.736786 1.422997 1.118732
v -4.735125 1.423623 1.119121
v -4.718986 1.423749 0.930000
v -4.719281 1.425850 0.930879
v -4.717511 1.425705 0.931268
v -4.718986 1.423749 0.930000
v -4.717511 1.425705 0.931268
v -4.716885 1.424044 0.930879
v -4.719403 1.426720 0.933000
v -4.717180 1.426145 0.933000
v -4.717511 1.425705 0.931268
v -4.719403 1.426720 0.933000
v -4.717511 1.425705 0.931268
v -4.719281 1.425850 0.930879
v -4.716015 1.424166 0.933000
v -4.716885 1.424044 0.930879
v -4.717511 1.425705 0.931268
v -4.716015 1.424166 0.933000
v -4.717511 1.425705 0.931268
v -4.717180 1.426145 0.933000
v -4.718986 1.423749 1.120000
v -4.716885 1.424044 1.119121
v -4.717511 1.425705 1.118732
v -4.718986 1.423749 1.120000
v -4.717511 1.425705 1.118732
v -4.719281 1.425850 1.119121
v -4.716015 1.424166 1.117000
v -4.717180 1.426145 1.117000
v -4.717511 1.425705 1.118732
v -4.716015 1.424166 1.117000
v -4.717511 1.425705 1.118732
v -4.716885 1.424044 1.119121
v -4.719403 1.426720 1.117000
v -4.719281 1.425850 1.119121
v -4.717511 1.425705 1.118732
v -4.719403 1.426720 1.117000
v -4.717511 1.425705 1.118732
v -4.717180 1.426145 1.117000
v -4.728708 1.377951 0.930000
v -4.728413 1.375850 0.930879
v -4.730182 1.375995 0.931268
v -4.728708 1.377951 0.930000
v -4.730182 1.375995 0.931268
v -4.730808 1.377656 0.930879
v -4.728291 1.374980 0.933000
v -4.730513 1.375555 0.933000
v -4.730182 1.375995 0.931268
v -4.728291 1.374980 0.933000
v -4.730182 1.375995 0.931268
v -4.728413 1.375850 0.930879
v -4.731678 1.377533 0.933000
v -4.730808 1.377656 0.930879
v -4.730182 1.375995 0.931268
v -4.731678 1.377533 0.933000
v -4.730182 1.375995 0.931268
v -4.730513 1.375555 0.933000
v -4.728708 1.377951 1.120000
v -4.730808 1.377656 1.119121
v -4.730182 1.375995 1.118732
v -4.728708 1.377951 1.120000
v -4.730182 1.375995 1.118732
v -4.728413 1.375850 1.119121
v -4.731678 1.377533 1.117000
v -4.730513 1.375555 1.117000
v -4.730182 1.375995 1.118732
v -4.731678 1.377533 1.117000
v -4.730182 1.375995 1.118732
v -4.730808 1.377656 1.119121
v -4.728291 1.374980 1.117000
v -4.728413 1.375850 1.119121
v -4.730182 1.375995 1.118732
v -4.728291 1.374980 1.117000
v -4.730182 1.375995 1.118732
v -4.730513 1.375555 1.117000
v -4.712863 1.380177 0.930000
v -4.710763 1.380472 0.930879
v -4.710907 1.378703 0.931268
v -4.712863 1.380177 0.930000
v -4.710907 1.378703 0.931268
v -4.712568 1.378076 0.930879
v -4.709893 1.380594 0.933000
v -4.710467 1.378371 0.933000
v -4.710907 1.378703 0.931268
v -4.709893 1.380594 0.933000
v -4.710907 1.378703 0.931268
v -4.710763 1.380472 0.930879
v -4.712446 1.377206 0.933000
v -4.712568 1.378076 0.930879
v -4.710907 1.378703 0.931268
v -4.712446 1.377206 0.933000
v -4.710907 1.378703 0.931268
v -4.710467 1.378371 0.933000
v -4.712863 1.380177 1.120000
v -4.712568 1.378076 1.119121
v -4.710907 1.378703 1.118732
v -4.712863 1.380177 1.120000
v -4.710907 1.378703 1.118732
v -4.710763 1.380472 1.119121
v -4.712446 1.377206 1.117000
v -4.710467 1.378371 1.117000
v -4.710907 1.378703 1.118732
v -4.712446 1.377206 1.117000
v -4.710907 1.378703 1.118732
v -4.712568 1.378076 1.119121
v -4.709893 1.380594 1.117000
v -4.710763 1.380472 1.119121
v -4.710907 1.378703 1.118732
v -4.709893 1.380594 1.117000
v -4.710907 1.378703 1.118732
v -4.710467 1.378371 1.117000
v -4.718986 1.423749 0.930000
v -4.734830 1.421523 0.930000
v -4.735125 1.423623 0.930879
v -4.718986 1.423749 0.930000
v -4.735125 1.423623 0.930879
v -4.719281 1.425850 0.930879
v -4.719281 1.425850 0.930879
v -4.735125 1.423623 0.930879
v -4.735247 1.424494 0.933000
v -4.719281 1.425850 0.930879
v -4.735247 1.424494 0.933000
v -4.719403 1.426720 0.933000
v -4.737801 1.421105 0.933000
v -4.737801 1.421105 1.117000
v -4.737226 1.423328 1.117000
v -4.737801 1.421105 0.933000
v -4.737226 1.423328 1.117000
v -4.737226 1.423328 0.933000
v -4.737226 1.423328 0.933000
v -4.737226 1.423328 1.117000
v -4.735247 1.424494 1.117000
v -4.737226 1.423328 0.933000
v -4.735247 1.424494 1.117000
v -4.735247 1.424494 0.933000
v -4.734830 1.421523 1.120000
v -4.718986 1.423749 1.120000
v -4.719281 1.425850 1.119121
v -4.734830 1.421523 1.120000
v -4.719281 1.425850 1.119121
v -4.735125 1.423623 1.119121
v -4.735125 1.423623 1.119121
v -4.719281 1.425850 1.119121
v -4.719403 1.426720 1.117000
v -4.735125 1.423623 1.119121
v -4.719403 1.426720 1.117000
v -4.735247 1.424494 1.117000
v -4.716015 1.424166 1.117000
v -4.716015 1.424166 0.933000
v -4.717180 1.426145 0.933000
v -4.716015 1.424166 1.117000
v -4.717180 1.426145 0.933000
v -4.717180 1.426145 1.117000
v -4.717180 1.426145 1.117000
v -4.717180 1.426145 0.933000
v -4.719403 1.426720 0.933000
v -4.717180 1.426145 1.117000
v -4.719403 1.426720 0.933000
v -4.719403 1.426720 1.117000
v -4.712863 1.380177 0.930000
v -4.718986 1.423749 0.930000
v -4.716885 1.424044 0.930879
v -4.712863 1.380177 0.930000
v -4.716885 1.424044 0.930879
v -4.710763 1.380472 0.930879
v -4.710763 1.380472 0.930879
v -4.716885 1.424044 0.930879
v -4.716015 1.424166 0.933000
v -4.710763 1.380472 0.930879
v -4.716015 1.424166 0.933000
v -4.709893 1.380594 0.933000
v -4.718986 1.423749 1.120000
v -4.712863 1.380177 1.120000
v -4.710763 1.380472 1.119121
v -4.718986 1.423749 1.120000
v -4.710763 1.380472 1.119121
v -4.716885 1.424044 1.119121
v -4.716885 1.424044 1.119121
v -4.710763 1.380472 1.119121
v -4.709893 1.380594 1.117000
v -4.716885 1.424044 1.119121
v -4.709893 1.380594 1.117000
v -4.716015 1.424166 1.117000
v -4.712446 1.377206 1.117000
v -4.712446 1.377206 0.933000
v -4.710467 1.378371 0.933000
v -4.712446 1.377206 1.117000
v -4.710467 1.378371 0.933000
v -4.710467 1.378371 1.117000
v -4.710467 1.378371 1.117000
v -4.710467 1.378371 0.933000
v -4.709893 1.380594 0.933000
v -4.710467 1.378371 1.117000
v -4.709893 1.380594 0.933000
v -4.709893 1.380594 1.117000
v -4.728708 1.377951 0.930000
v -4.712863 1.380177 0.930000
v -4.712568 1.378076 0.930879
v -4.728708 1.377951 0.930000
v -4.712568 1.378076 0.930879
v -4.728413 1.375850 0.930879
v -4.728413 1.375850 0.930879
v -4.712568 1.378076 0.930879
v -4.712446 1.377206 0.933000
v -4.728413 1.375850 0.930879
v -4.712446 1.377206 0.933000
v -4.728291 1.374980 0.933000
v -4.712863 1.380177 1.120000
v -4.728708 1.377951 1.120000
v -4.728413 1.375850 1.119121
v -4.712863 1.380177 1.120000
v -4.728413 1.375850 1.119121
v -4.712568 1.378076 1.119121
v -4.712568 1.378076 1.119121
v -4.728413 1.375850 1.119121
v -4.728291 1.374980 1.117000
v -4.712568 1.378076 1.119121
v -4.728291 1.374980 1.117000
v -4.712446 1.377206 1.117000
v -4.731678 1.377533 1.117000
v -4.731678 1.377533 0.933000
v -4.730513 1.375555 0.933000
v -4.731678 1.377533 1.117000
v -4.730513 1.375555 0.933000
v -4.730513 1.375555 1.117000
v -4.730513 1.375555 1.117000
v -4.730513 1.375555 0.933000
v -4.728291 1.374980 0.933000
v -4.730513 1.375555 1.117000
v -4.728291 1.374980 0.933000
v -4.728291 1.374980 1.117000
v -4.734830 1.421523 0.930000
v -4.728708 1.377951 0.930000
v -4.730808 1.377656 0.930879
v -4.734830 1.421523 0.930000
v -4.730808 1.377656 0.930879
v -4.736930 1.421228 0.930879
v -4.736930 1.421228 0.930879
v -4.730808 1.377656 0.930879
v -4.731678 1.377533 0.933000
v -4.736930 1.421228 0.930879
v -4.731678 1.377533 0.933000
v -4.737801 1.421105 0.933000
v -4.728708 1.377951 1.120000
v -4.734830 1.421523 1.120000
v -4.736930 1.421228 1.119121
v -4.728708 1.377951 1.120000
v -4.736930 1.421228 1.119121
v -4.730808 1.377656 1.119121
v -4.730808 1.377656 1.119121
v -4.736930 1.421228 1.119121
v -4.737801 1.421105 1.117000
v -4.730808 1.377656 1.119121
v -4.737801 1.421105 1.117000
v -4.731678 1.377533 1.117000
v -4.718986 1.423749 0.930000
v -4.712863 1.380177 0.930000
v -4.728708 1.377951 0.930000
v -4.718986 1.423749 0.930000
v -4.728708 1.377951 0.930000
v -4.734830 1.421523 0.930000
v -4.735247 1.424494 0.933000
v -4.735247 1.424494 1.117000
v -4.719403 1.426720 1.117000
v -4.735247 1.424494 0.933000
v -4.719403 1.426720 1.117000
v -4.719403 1.426720 0.933000
v -4.731678 1.377533 0.933000
v -4.731678 1.377533 1.117000
v -4.737801 1.421105 1.117000
v -4.731678 1.377533 0.933000
v -4.737801 1.421105 1.117000
v -4.737801 1.421105 0.933000
v -4.712863 1.380177 1.120000
v -4.718986 1.423749 1.120000
v -4.734830 1.421523 1.120000
v -4.712863 1.380177 1.120000
v -4.734830 1.421523 1.120000
v -4.728708 1.377951 1.120000
v -4.716015 1.424166 0.933000
v -4.716015 1.424166 1.117000
v -4.709893 1.380594 1.117000
v -4.716015 1.424166 0.933000
v -4.709893 1.380594 1.117000
v -4.709893 1.380594 0.933000
v -4.712446 1.377206 0.933000
v -4.712446 1.377206 1.117000
v -4.728291 1.374980 1.117000
v -4.712446 1.377206 0.933000
v -4.728291 1.374980 1.117000
v -4.728291 1.374980 0.933000
vt 0.779802 0.016585
vt 0.764039 0.016585
vt 0.764039 0.007484
vt 0.779802 0.016585
vt 0.764039 0.007484
vt 0.779802 0.000821
vt 0.512151 0.983415
vt 0.527914 0.983415
vt 0.527914 0.992516
vt 0.512151 0.983415
vt 0.527914 0.992516
vt 0.512151 0.999179
vt 0.545320 0.983415
vt 0.545320 0.999179
vt 0.536219 0.999179
vt 0.545320 0.983415
vt 0.536219 0.999179
vt 0.529556 0.983415
vt 0.512151 0.016584
vt 0.512151 0.000821
vt 0.521252 0.000821
vt 0.512151 0.016584
vt 0.521252 0.000821
vt 0.527914 0.016584
vt 0.779802 0.512151
vt 0.779802 0.527914
vt 0.770701 0.527914
vt 0.779802 0.512151
vt 0.770701 0.527914
vt 0.764039 0.512151
vt 0.545320 0.016584
vt 0.529556 0.016584
vt 0.529556 0.007482
vt 0.545320 0.016584
vt 0.529556 0.007482
vt 0.545320 0.000821
vt 0.863874 0.016585
vt 0.863875 0.000821
vt 0.872976 0.000821
vt 0.863874 0.016585
vt 0.872976 0.000821
vt 0.879638 0.016585
vt 0.629392 0.983415
vt 0.645156 0.983415
vt 0.645156 0.992516
vt 0.629392 0.983415
vt 0.645156 0.992516
vt 0.629392 0.999179
vt 0.016585 0.983415
vt 0.016585 0.999179
vt 0.007484 0.999179
vt 0.016585 0.983415
vt 0.007484 0.999179
vt 0.000821 0.983415
vt 0.863874 0.512151
vt 0.879638 0.512151
vt 0.879638 0.521252
vt 0.863874 0.512151
vt 0.879638 0.521252
vt 0.863875 0.527914
vt 0.016585 0.016584
vt 0.000821 0.016584
vt 0.000821 0.007482
vt 0.016585 0.016584
vt 0.000821 0.007482
vt 0.016585 0.000821
vt 0.629392 0.016584
vt 0.629392 0.000821
vt 0.638493 0.000821
vt 0.629392 0.016584
vt 0.638493 0.000821
vt 0.645156 0.016584
vt 0.779802 0.247783
vt 0.779802 0.263547
vt 0.770701 0.263547
vt 0.779802 0.247783
vt 0.770701 0.263547
vt 0.764039 0.247784
vt 0.746633 0.983415
vt 0.762397 0.983415
vt 0.762397 0.992516
vt 0.746633 0.983415
vt 0.762397 0.992516
vt 0.746633 0.999179
vt 0.280952 0.983415
vt 0.280952 0.999179
vt 0.271851 0.999179
vt 0.280952 0.983415
vt 0.271851 0.999179
vt 0.265189 0.983415
vt 0.779802 0.280952
vt 0.764039 0.280952
vt 0.764039 0.271851
vt 0.779802 0.280952
vt 0.764039 0.271851
vt 0.779802 0.265189
vt 0.280952 0.016584
vt 0.265189 0.016584
vt 0.265189 0.007482
vt 0.280952 0.016584
vt 0.265189 0.007482
vt 0.280952 0.000821
vt 0.746633 0.016584
vt 0.746633 0.000821
vt 0.755734 0.000821
vt 0.746633 0.016584
vt 0.755734 0.000821
vt 0.762397 0.016584
vt 0.863874 0.247783
vt 0.879638 0.247784
vt 0.879638 0.256885
vt 0.863874 0.247783
vt 0.879638 0.256885
vt 0.863875 0.263547
vt 0.247783 0.983415
vt 0.263547 0.983415
vt 0.263547 0.992516
vt 0.247783 0.983415
vt 0.263547 0.992516
vt 0.247784 0.999179
vt 0.662561 0.983415
vt 0.662561 0.999179
vt 0.653460 0.999179
vt 0.662561 0.983415
vt 0.653460 0.999179
vt 0.646797 0.983415
vt 0.863874 0.280952
vt 0.863874 0.265189
vt 0.872976 0.265189
vt 0.863874 0.280952
vt 0.872976 0.265189
vt 0.879638 0.280952
vt 0.662561 0.016584
vt 0.646797 0.016584
vt 0.646797 0.007482
vt 0.662561 0.016584
vt 0.646797 0.007482
vt 0.662561 0.000821
vt 0.247783 0.016584
vt 0.247784 0.000821
vt 0.256885 0.000821
vt 0.247783 0.016584
vt 0.256885 0.000821
vt 0.263547 0.016584
vt 0.863874 0.016585
vt 0.779802 0.016585
vt 0.779802 0.000821
vt 0.863874 0.016585
vt 0.779802 0.000821
vt 0.863875 0.000821
vt 0.629392 0.999179
vt 0.545320 0.999179
vt 0.545320 0.983415
vt 0.629392 0.999179
vt 0.545320 0.983415
vt 0.629392 0.983415
vt 0.512151 0.983415
vt 0.512151 0.016584
vt 0.527914 0.016584
vt 0.512151 0.983415
vt 0.527914 0.016584
vt 0.527914 0.983415
vt 0.529556 0.983415
vt 0.529556 0.016584
vt 0.545320 0.016584
vt 0.529556 0.983415
vt 0.545320 0.016584
vt 0.545320 0.983415
vt 0.779802 0.512151
vt 0.863874 0.512151
vt 0.863875 0.527914
vt 0.779802 0.512151
vt 0.863875 0.527914
vt 0.779802 0.527914
vt 0.545320 0.000821
vt 0.629392 0.000821
vt 0.629392 0.016584
vt 0.545320 0.000821
vt 0.629392 0.016584
vt 0.545320 0.016584
vt 0.016585 0.016584
vt 0.016585 0.983415
vt 0.000821 0.983415
vt 0.016585 0.016584
vt 0.000821 0.983415
vt 0.000821 0.016584
vt 0.645156 0.016584
vt 0.645156 0.983415
vt 0.629392 0.983415
vt 0.645156 0.016584
vt 0.629392 0.983415
vt 0.629392 0.016584
vt 0.863874 0.247783
vt 0.863874 0.016585
vt 0.879638 0.016585
vt 0.863874 0.247783
vt 0.879638 0.016585
vt 0.879638 0.247784
vt 0.247784 0.999179
vt 0.016585 0.999179
vt 0.016585 0.983415
vt 0.247784 0.999179
vt 0.016585 0.983415
vt 0.247783 0.983415
vt 0.863874 0.512151
vt 0.863874 0.280952
vt 0.879638 0.280952
vt 0.863874 0.512151
vt 0.879638 0.280952
vt 0.879638 0.512151
vt 0.016585 0.000821
vt 0.247784 0.000821
vt 0.247783 0.016584
vt 0.016585 0.000821
vt 0.247783 0.016584
vt 0.016585 0.016584
vt 0.662561 0.016584
vt 0.662561 0.983415
vt 0.646797 0.983415
vt 0.662561 0.016584
vt 0.646797 0.983415
vt 0.646797 0.016584
vt 0.263547 0.016584
vt 0.263547 0.983415
vt 0.247783 0.983415
vt 0.263547 0.016584
vt 0.247783 0.983415
vt 0.247783 0.016584
vt 0.779802 0.247783
vt 0.863874 0.247783
vt 0.863875 0.263547
vt 0.779802 0.247783
vt 0.863875 0.263547
vt 0.779802 0.263547
vt 0.746633 0.999179
vt 0.662561 0.999179
vt 0.662561 0.983415
vt 0.746633 0.999179
vt 0.662561 0.983415
vt 0.746633 0.983415
vt 0.863874 0.280952
vt 0.779802 0.280952
vt 0.779802 0.265189
vt 0.863874 0.280952
vt 0.779802 0.265189
vt 0.863874 0.265189
vt 0.662561 0.000821
vt 0.746633 0.000821
vt 0.746633 0.016584
vt 0.662561 0.000821
vt 0.746633 0.016584
vt 0.662561 0.016584
vt 0.280952 0.016584
vt 0.280952 0.983415
vt 0.265189 0.983415
vt 0.280952 0.016584
vt 0.265189 0.983415
vt 0.265189 0.016584
vt 0.762397 0.016584
vt 0.762397 0.983415
vt 0.746633 0.983415
vt 0.762397 0.016584
vt 0.746633 0.983415
vt 0.746633 0.016584
vt 0.779802 0.016585
vt 0.779802 0.247783
vt 0.764039 0.247784
vt 0.779802 0.016585
vt 0.764039 0.247784
vt 0.764039 0.016585
vt 0.512151 0.999179
vt 0.280952 0.999179
vt 0.280952 0.983415
vt 0.512151 0.999179
vt 0.280952 0.983415
vt 0.512151 0.983415
vt 0.779802 0.280952
vt 0.779802 0.512151
vt 0.764039 0.512151
vt 0.779802 0.280952
vt 0.764039 0.512151
vt 0.764039 0.280952
vt 0.280952 0.000821
vt 0.512151 0.000821
vt 0.512151 0.016584
vt 0.280952 0.000821
vt 0.512151 0.016584
vt 0.280952 0.016584
vt 0.863874 0.016585
vt 0.863874 0.247783
vt 0.779802 0.247783
vt 0.863874 0.016585
vt 0.779802 0.247783
vt 0.779802 0.016585
vt 0.545320 0.983415
vt 0.545320 0.016584
vt 0.629392 0.016584
vt 0.545320 0.983415
vt 0.629392 0.016584
vt 0.629392 0.983415
vt 0.280952 0.983415
vt 0.280952 0.016584
vt 0.512151 0.016584
vt 0.280952 0.983415
vt 0.512151 0.016584
vt 0.512151 0.983415
vt 0.863874 0.280952
vt 0.863874 0.512151
vt 0.779802 0.512151
vt 0.863874 0.280952
vt 0.779802 0.512151
vt 0.779802 0.280952
vt 0.016585 0.983415
vt 0.016585 0.016584
vt 0.247783 0.016584
vt 0.016585 0.983415
vt 0.247783 0.016584
vt 0.247783 0.983415
vt 0.662561 0.983415
vt 0.662561 0.016584
vt 0.746633 0.016584
vt 0.662561 0.983415
vt 0.746633 0.016584
vt 0.746633 0.983415
vn -0.40279 0.22792 -0.88646
vn -0.40279 0.22792 -0.88646
vn -0.40279 0.22792 -0.88646
vn -0.33010 0.32439 -0.88646
vn -0.33010 0.32439 -0.88646
vn -0.33010 0.32439 -0.88646
vn -0.92892 0.24026 -0.28175
vn -0.92892 0.24026 -0.28175
vn -0.92892 0.24026 -0.28175
vn -0.91704 0.15567 -0.36717
vn -0.91704 0.15567 -0.36717
vn -0.91704 0.15567 -0.36717
vn -0.40235 0.83863 -0.36717
vn -0.40235 0.83863 -0.36717
vn -0.40235 0.83863 -0.36717
vn -0.48695 0.82674 -0.28175
vn -0.48695 0.82674 -0.28175
vn -0.48695 0.82674 -0.28175
vn -0.91704 0.15565 0.36716
vn -0.91704 0.15565 0.36716
vn -0.91704 0.15565 0.36716
vn -0.92893 0.24025 0.28174
vn -0.92893 0.24025 0.28174
vn -0.92893 0.24025 0.28174
vn -0.33006 0.32437 0.88648
vn -0.33006 0.32437 0.88648
vn -0.33006 0.32437 0.88648
vn -0.40277 0.22789 0.88648
vn -0.40277 0.22789 0.88648
vn -0.40277 0.22789 0.88648
vn -0.48694 0.82675 0.28174
vn -0.48694 0.82675 0.28174
vn -0.48694 0.82675 0.28174
vn -0.40234 0.83864 0.36717
vn -0.40234 0.83864 0.36717
vn -0.40234 0.83864 0.36717
vn 0.22792 0.40279 -0.88646
vn 0.22792 0.40279 -0.88646
vn 0.22792 0.40279 -0.88646
vn 0.32439 0.33010 -0.88646
vn 0.32439 0.33010 -0.88646
vn 0.32439 0.33010 -0.88646
vn 0.24027 0.92892 -0.28175
vn 0.24027 0.92892 -0.28175
vn 0.24027 0.92892 -0.28175
vn 0.15567 0.91703 -0.36717
vn 0.15567 0.91703 -0.36717
vn 0.15567 0.91703 -0.36717
vn 0.83863 0.40235 -0.36717
vn 0.83863 0.40235 -0.36717
vn 0.83863 0.40235 -0.36717
vn 0.82674 0.48694 -0.28175
vn 0.82674 0.48694 -0.28175
vn 0.82674 0.48694 -0.28175
vn 0.32438 0.33006 0.88648
vn 0.32438 0.33006 0.88648
vn 0.32438 0.33006 0.88648
vn 0.22790 0.40277 0.88648
vn 0.22790 0.40277 0.88648
vn 0.22790 0.40277 0.88648
vn 0.82675 0.48694 0.28174
vn 0.82675 0.48694 0.28174
vn 0.82675 0.48694 0.28174
vn 0.83864 0.40234 0.36716
vn 0.83864 0.40234 0.36716
vn 0.83864 0.40234 0.36716
vn 0.15566 0.91704 0.36717
vn 0.15566 0.91704 0.36717
vn 0.15566 0.91704 0.36717
vn 0.24026 0.92892 0.28174
vn 0.24026 0.92892 0.28174
vn 0.24026 0.92892 0.28174
vn -0.22792 -0.40278 -0.88646
vn -0.22792 -0.40278 -0.88646
vn -0.22792 -0.40278 -0.88646
vn -0.32438 -0.33009 -0.88646
vn -0.32438 -0.33009 -0.88646
vn -0.32438 -0.33009 -0.88646
vn -0.24024 -0.92892 -0.28175
vn -0.24024 -0.92892 -0.28175
vn -0.24024 -0.92892 -0.28175
vn -0.15567 -0.91704 -0.36715
vn -0.15567 -0.91704 -0.36715
vn -0.15567 -0.91704 -0.36715
vn -0.83863 -0.40235 -0.36716
vn -0.83863 -0.40235 -0.36716
vn -0.83863 -0.40235 -0.36716
vn -0.82675 -0.48693 -0.28175
vn -0.82675 -0.48693 -0.28175
vn -0.82675 -0.48693 -0.28175
vn -0.32437 -0.33006 0.88648
vn -0.32437 -0.33006 0.88648
vn -0.32437 -0.33006 0.88648
vn -0.22790 -0.40276 0.88648
vn -0.22790 -0.40276 0.88648
vn -0.22790 -0.40276 0.88648
vn -0.82676 -0.48693 0.28174
vn -0.82676 -0.48693 0.28174
vn -0.82676 -0.48693 0.28174
vn -0.83864 -0.40234 0.36716
vn -0.83864 -0.40234 0.36716
vn -0.83864 -0.40234 0.36716
vn -0.15565 -0.91705 0.36715
vn -0.15565 -0.91705 0.36715
vn -0.15565 -0.91705 0.36715
vn -0.24024 -0.92893 0.28174
vn -0.24024 -0.92893 0.28174
vn -0.24024 -0.92893 0.28174
vn 0.40279 -0.22792 -0.88646
vn 0.40279 -0.22792 -0.88646
vn 0.40279 -0.22792 -0.88646
vn 0.33009 -0.32438 -0.88646
vn 0.33009 -0.32438 -0.88646
vn 0.33009 -0.32438 -0.88646
vn 0.92892 -0.24025 -0.28175
vn 0.92892 -0.24025 -0.28175
vn 0.92892 -0.24025 -0.28175
vn 0.91704 -0.15567 -0.36716
vn 0.91704 -0.15567 -0.36716
vn 0.91704 -0.15567 -0.36716
vn 0.40235 -0.83864 -0.36715
vn 0.40235 -0.83864 -0.36715
vn 0.40235 -0.83864 -0.36715
vn 0.48693 -0.82675 -0.28175
vn 0.48693 -0.82675 -0.28175
vn 0.48693 -0.82675 -0.28175
vn 0.33006 -0.32437 0.88648
vn 0.33006 -0.32437 0.88648
vn 0.33006 -0.32437 0.88648
vn 0.40277 -0.22789 0.88648
vn 0.40277 -0.22789 0.88648
vn 0.40277 -0.22789 0.88648
vn 0.48692 -0.82676 0.28174
vn 0.48692 -0.82676 0.28174
vn 0.48692 -0.82676 0.28174
vn 0.40234 -0.83865 0.36715
vn 0.40234 -0.83865 0.36715
vn 0.40234 -0.83865 0.36715
vn 0.91704 -0.15565 0.36716
vn 0.91704 -0.15565 0.36716
vn 0.91704 -0.15565 0.36716
vn 0.92893 -0.24024 0.28174
vn 0.92893 -0.24024 0.28174
vn 0.92893 -0.24024 0.28174
vn -0.05324 0.37894 -0.92389
vn -0.05324 0.37894 -0.92389
vn -0.05324 0.37894 -0.92389
vn -0.05324 0.37894 -0.92389
vn -0.05324 0.37894 -0.92389
vn -0.05324 0.37894 -0.92389
vn -0.12855 0.91490 -0.38268
vn -0.12855 0.91490 -0.38268
vn -0.12855 0.91490 -0.38268
vn -0.12855 0.91490 -0.38268
vn -0.12855 0.91490 -0.38268
vn -0.12855 0.91490 -0.38268
vn -0.96814 0.25041 0.00000
vn -0.96814 0.25041 0.00000
vn -0.96814 0.25041 0.00000
vn -0.96814 0.25041 0.00000
vn -0.96814 0.25041 0.00000
vn -0.96814 0.25041 0.00000
vn -0.50751 0.86164 0.00000
vn -0.50751 0.86164 0.00000
vn -0.50751 0.86164 0.00000
vn -0.50751 0.86164 0.00000
vn -0.50751 0.86164 0.00000
vn -0.50751 0.86164 0.00000
vn -0.05324 0.37892 0.92390
vn -0.05324 0.37892 0.92390
vn -0.05324 0.37892 0.92390
vn -0.05324 0.37892 0.92390
vn -0.05324 0.37892 0.92390
vn -0.05324 0.37892 0.92390
vn -0.12855 0.91490 0.38267
vn -0.12855 0.91490 0.38267
vn -0.12855 0.91490 0.38267
vn -0.12855 0.91490 0.38267
vn -0.12855 0.91490 0.38267
vn -0.12855 0.91490 0.38267
vn 0.86165 0.50751 0.00000
vn 0.86165 0.50751 0.00000
vn 0.86165 0.50751 0.00000
vn 0.86165 0.50751 -0.00000
vn 0.86165 0.50751 -0.00000
vn 0.86165 0.50751 -0.00000
vn 0.25042 0.96814 -0.00000
vn 0.25042 0.96814 -0.00000
vn 0.25042 0.96814 -0.00000
vn 0.25042 0.96814 0.00000
vn 0.25042 0.96814 0.00000
vn 0.25042 0.96814 0.00000
vn 0.37894 0.05324 -0.92389
vn 0.37894 0.05324 -0.92389
vn 0.37894 0.05324 -0.92389
vn 0.37894 0.05324 -0.92389
vn 0.37894 0.05324 -0.92389
vn 0.37894 0.05324 -0.92389
vn 0.91490 0.12855 -0.38267
vn 0.91490 0.12855 -0.38267
vn 0.91490 0.12855 -0.38267
vn 0.91490 0.12855 -0.38267
vn 0.91490 0.12855 -0.38267
vn 0.91490 0.12855 -0.38267
vn 0.37892 0.05324 0.92390
vn 0.37892 0.05324 0.92390
vn 0.37892 0.05324 0.92390
vn 0.37892 0.05324 0.92390
vn 0.37892 0.05324 0.92390
vn 0.37892 0.05324 0.92390
vn 0.91490 0.12855 0.38266
vn 0.91490 0.12855 0.38266
vn 0.91490 0.12855 0.38266
vn 0.91490 0.12855 0.38266
vn 0.91490 0.12855 0.38266
vn 0.91490 0.12855 0.38266
vn 0.50749 -0.86166 0.00000
vn 0.50749 -0.86166 0.00000
vn 0.50749 -0.86166 0.00000
vn 0.50749 -0.86166 0.00000
vn 0.50749 -0.86166 0.00000
vn 0.50749 -0.86166 0.00000
vn 0.96814 -0.25040 0.00000
vn 0.96814 -0.25040 0.00000
vn 0.96814 -0.25040 0.00000
vn 0.96814 -0.25040 0.00000
vn 0.96814 -0.25040 0.00000
vn 0.96814 -0.25040 0.00000
vn 0.05324 -0.37893 -0.92389
vn 0.05324 -0.37893 -0.92389
vn 0.05324 -0.37893 -0.92389
vn 0.05324 -0.37893 -0.92389
vn 0.05324 -0.37893 -0.92389
vn 0.05324 -0.37893 -0.92389
vn 0.12855 -0.91490 -0.38266
vn 0.12855 -0.91490 -0.38266
vn 0.12855 -0.91490 -0.38266
vn 0.12855 -0.91490 -0.38266
vn 0.12855 -0.91490 -0.38266
vn 0.12855 -0.91490 -0.38266
vn 0.05324 -0.37891 0.92390
vn 0.05324 -0.37891 0.92390
vn 0.05324 -0.37891 0.92390
vn 0.05324 -0.37891 0.92390
vn 0.05324 -0.37891 0.92390
vn 0.05324 -0.37891 0.92390
vn 0.12855 -0.91491 0.38265
vn 0.12855 -0.91491 0.38265
vn 0.12855 -0.91491 0.38265
vn 0.12855 -0.91491 0.38265
vn 0.12855 -0.91491 0.38265
vn 0.12855 -0.91491 0.38265
vn -0.86165 -0.50750 0.00000
vn -0.86165 -0.50750 0.00000
vn -0.86165 -0.50750 0.00000
vn -0.86165 -0.50750 0.00000
vn -0.86165 -0.50750 0.00000
vn -0.86165 -0.50750 0.00000
vn -0.25039 -0.96814 0.00000
vn -0.25039 -0.96814 0.00000
vn -0.25039 -0.96814 0.00000
vn -0.25039 -0.96814 0.00000
vn -0.25039 -0.96814 0.00000
vn -0.25039 -0.96814 0.00000
vn -0.37894 -0.05324 -0.92389
vn -0.37894 -0.05324 -0.92389
vn -0.37894 -0.05324 -0.92389
vn -0.37894 -0.05324 -0.92389
vn -0.37894 -0.05324 -0.92389
vn -0.37894 -0.05324 -0.92389
vn -0.91490 -0.12855 -0.38267
vn -0.91490 -0.12855 -0.38267
vn -0.91490 -0.12855 -0.38267
vn -0.91490 -0.12855 -0.38267
vn -0.91490 -0.12855 -0.38267
vn -0.91490 -0.12855 -0.38267
vn -0.37892 -0.05324 0.92390
vn -0.37892 -0.05324 0.92390
vn -0.37892 -0.05324 0.92390
vn -0.37892 -0.05324 0.92390
vn -0.37892 -0.05324 0.92390
vn -0.37892 -0.05324 0.92390
vn -0.91490 -0.12855 0.38266
vn -0.91490 -0.12855 0.38266
vn -0.91490 -0.12855 0.38266
vn -0.91490 -0.12855 0.38266
vn -0.91490 -0.12855 0.38266
vn -0.91490 -0.12855 0.38266
vn 0.00000 0.00000 -1.00000
vn 0.00000 0.00000 -1.00000
vn 0.00000 0.00000 -1.00000
vn 0.00000 0.00000 -1.00000
vn 0.00000 0.00000 -1.00000
vn 0.00000 0.00000 -1.00000
vn -0.13914 0.99027 0.00000
vn -0.13914 0.99027 0.00000
vn -0.13914 0.99027 0.00000
vn -0.13914 0.99027 0.00000
vn -0.13914 0.99027 0.00000
vn -0.13914 0.99027 0.00000
vn -0.99027 -0.13914 0.00000
vn -0.99027 -0.13914 0.00000
vn -0.99027 -0.13914 0.00000
vn -0.99027 -0.13914 0.00000
vn -0.99027 -0.13914 0.00000
vn -0.99027 -0.13914 0.00000
vn 0.00000 0.00000 1.00000
vn 0.00000 0.00000 1.00000
vn 0.00000 0.00000 1.00000
vn 0.00000 0.00000 1.00000
vn 0.00000 0.00000 1.00000
vn 0.00000 0.00000 1.00000
vn 0.99027 0.13914 0.00000
vn 0.99027 0.13914 0.00000
vn 0.99027 0.13914 0.00000
vn 0.99027 0.13914 0.00000
vn 0.99027 0.13914 0.00000
vn 0.99027 0.13914 0.00000
vn 0.13914 -0.99027 0.00000
vn 0.13914 -0.99027 0.00000
vn 0.13914 -0.99027 0.00000
vn 0.13914 -0.99027 0.00000
vn 0.13914 -0.99027 0.00000
vn 0.13914 -0.99027 0.00000
f 1/1/1 2/2/2 3/3/3
f 4/4/4 5/5/5 6/6/6
f 7/7/7 8/8/8 9/9/9
f 10/10/10 11/11/11 12/12/12
f 13/13/13 14/14/14 15/15/15
f 16/16/16 17/17/17 18/18/18
f 19/19/19 20/20/20 21/21/21
f 22/22/22 23/23/23 24/24/24
f 25/25/25 26/26/26 27/27/27
f 28/28/28 29/29/29 30/30/30
f 31/31/31 32/32/32 33/33/33
f 34/34/34 35/35/35 36/36/36
f 37/37/37 38/38/38 39/39/39
f 40/40/40 41/41/41 42/42/42
f 43/43/43 44/44/44 45/45/45
f 46/46/46 47/47/47 48/48/48
f 49/49/49 50/50/50 51/51/51
f 52/52/52 53/53/53 54/54/54
f 55/55/55 56/56/56 57/57/57
f 58/58/58 59/59/59 60/60/60
f 61/61/61 62/62/62 63/63/63
f 64/64/64 65/65/65 66/66/66
f 67/67/67 68/68/68 69/69/69
f 70/70/70 71/71/71 72/72/72
f 73/73/73 74/74/74 75/75/75
f 76/76/76 77/77/77 78/78/78
f 79/79/79 80/80/80 81/81/81
f 82/82/82 83/83/83 84/84/84
f 85/85/85 86/86/86 87/87/87
f 88/88/88 89/89/89 90/90/90
f 91/91/91 92/92/92 93/93/93
f 94/94/94 95/95/95 96/96/96
f 97/97/97 98/98/98 99/99/99
f 100/100/100 101/101/101 102/102/102
f 103/103/103 104/104/104 105/105/105
f 106/106/106 107/107/107 108/108/108
f 109/109/109 110/110/110 111/111/111
f 112/112/112 113/113/113 114/114/114
f 115/115/115 116/116/116 117/117/117
f 118/118/118 119/119/119 120/120/120
f 121/121/121 122/122/122 123/123/123
f 124/124/124 125/125/125 126/126/126
f 127/127/127 128/128/128 129/129/129
f 130/130/130 131/131/131 132/132/132
f 133/133/133 134/134/134 135/135/135
f 136/136/136 137/137/137 138/138/138
f 139/139/139 140/140/140 141/141/141
f 142/142/142 143/143/143 144/144/144
f 145/145/145 146/146/146 147/147/147
f 148/148/148 149/149/149 150/150/150
f 151/151/151 152/152/152 153/153/153
f 154/154/154 155/155/155 156/156/156
f 157/157/157 158/158/158 159/159/159
f 160/160/160 161/161/161 162/162/162
f 163/163/163 164/164/164 165/165/165
f 166/166/166 167/167/167 168/168/168
f 169/169/169 170/170/170 171/171/171
f 172/172/172 173/173/173 174/174/174
f 175/175/175 176/176/176 177/177/177
f 178/178/178 179/179/179 180/180/180
f 181/181/181 182/182/182 183/183/183
f 184/184/184 185/185/185 186/186/186
f 187/187/187 188/188/188 189/189/189
f 190/190/190 191/191/191 192/192/192
f 193/193/193 194/194/194 195/195/195
f 196/196/196 197/197/197 198/198/198
f 199/199/199 200/200/200 201/201/201
f 202/202/202 203/203/203 204/204/204
f 205/205/205 206/206/206 207/207/207
f 208/208/208 209/209/209 210/210/210
f 211/211/211 212/212/212 213/213/213
f 214/214/214 215/215/215 216/216/216
f 217/217/217 218/218/218 219/219/219
f 220/220/220 221/221/221 222/222/222
f 223/223/223 224/224/224 225/225/225
f 226/226/226 227/227/227 228/228/228
f 229/229/229 230/230/230 231/231/231
f 232/232/232 233/233/233 234/234/234
f 235/235/235 236/236/236 237/237/237
f 238/238/238 239/239/239 240/240/240
f 241/241/241 242/242/242 243/243/243
f 244/244/244 245/245/245 246/246/246
f 247/247/247 248/248/248 249/249/249
f 250/250/250 251/251/251 252/252/252
f 253/253/253 254/254/254 255/255/255
f 256/256/256 257/257/257 258/258/258
f 259/259/259 260/260/260 261/261/261
f 262/262/262 263/263/263 264/264/264
f 265/265/265 266/266/266 267/267/267
f 268/268/268 269/269/269 270/270/270
f 271/271/271 272/272/272 273/273/273
f 274/274/274 275/275/275 276/276/276
f 277/277/277 278/278/278 279/279/279
f 280/280/280 281/281/281 282/282/282
f 283/283/283 284/284/284 285/285/285
f 286/286/286 287/287/287 288/288/288
f 289/289/289 290/290/290 291/291/291
f 292/292/292 293/293/293 294/294/294
f 295/295/295 296/296/296 297/297/297
f 298/298/298 299/299/299 300/300/300
f 301/301/301 302/302/302 303/303/303
f 304/304/304 305/305/305 306/306/306
f 307/307/307 308/308/308 309/309/309
f 310/310/310 311/311/311 312/312/312
f 313/313/313 314/314/314 315/315/315
f 316/316/316 317/317/317 318/318/318
f 319/319/319 320/320/320 321/321/321
f 322/322/322 323/323/323 324/324/324
