# door_wood_leaf.obj: metric frame, metres
v -4.875212 2.090037 0.010000
v -4.876613 2.089840 0.010586
v -4.876516 2.091020 0.010845
v -4.875212 2.090037 0.010000
v -4.876516 2.091020 0.010845
v -4.875409 2.091437 0.010586
v -4.877192 2.089758 0.012000
v -4.876809 2.091240 0.012000
v -4.876516 2.091020 0.010845
v -4.877192 2.089758 0.012000
v -4.876516 2.091020 0.010845
v -4.876613 2.089840 0.010586
v -4.875490 2.092017 0.012000
v -4.875409 2.091437 0.010586
v -4.876516 2.091020 0.010845
v -4.875490 2.092017 0.012000
v -4.876516 2.091020 0.010845
v -4.876809 2.091240 0.012000
v -4.877192 2.089758 2.128000
v -4.876613 2.089840 2.129415
v -4.876516 2.091020 2.129155
v -4.877192 2.089758 2.128000
v -4.876516 2.091020 2.129155
v -4.876809 2.091240 2.128000
v -4.875212 2.090037 2.130000
v -4.875409 2.091437 2.129415
v -4.876516 2.091020 2.129155
v -4.875212 2.090037 2.130000
v -4.876516 2.091020 2.129155
v -4.876613 2.089840 2.129415
v -4.875490 2.092017 2.128000
v -4.876809 2.091240 2.128000
v -4.876516 2.091020 2.129155
v -4.875490 2.092017 2.128000
v -4.876516 2.091020 2.129155
v -4.875409 2.091437 2.129415
v -4.834611 2.095742 0.010000
v -4.834808 2.097142 0.010586
v -4.833628 2.097046 0.010845
v -4.834611 2.095742 0.010000
v -4.833628 2.097046 0.010845
v -4.833210 2.095938 0.010586
v -4.834889 2.097722 0.012000
v -4.833407 2.097339 0.012000
v -4.833628 2.097046 0.010845
v -4.834889 2.097722 0.012000
v -4.833628 2.097046 0.010845
v -4.834808 2.097142 0.010586
v -4.832630 2.096020 0.012000
v -4.833210 2.095938 0.010586
v -4.833628 2.097046 0.010845
v -4.832630 2.096020 0.012000
v -4.833628 2.097046 0.010845
v -4.833407 2.097339 0.012000
v -4.834611 2.095742 2.130000
v -4.833210 2.095938 2.129415
v -4.833628 2.097046 2.129155
v -4.834611 2.095742 2.130000
v -4.833628 2.097046 2.129155
v -4.834808 2.097142 2.129415
v -4.832630 2.096020 2.128000
v -4.833407 2.097339 2.128000
v -4.833628 2.097046 2.129155
v -4.832630 2.096020 2.128000
v -4.833628 2.097046 2.129155
v -4.833210 2.095938 2.129415
v -4.834889 2.097722 2.128000
v -4.834808 2.097142 2.129415
v -4.833628 2.097046 2.129155
v -4.834889 2.097722 2.128000
v -4.833628 2.097046 2.129155
v -4.833407 2.097339 2.128000
v -4.767860 1.325998 0.010000
v -4.767663 1.324597 0.010586
v -4.768843 1.324694 0.010845
v -4.767860 1.325998 0.010000
v -4.768843 1.324694 0.010845
v -4.769260 1.325801 0.010586
v -4.767581 1.324017 0.012000
v -4.769063 1.324401 0.012000
v -4.768843 1.324694 0.010845
v -4.767581 1.324017 0.012000
v -4.768843 1.324694 0.010845
v -4.767663 1.324597 0.010586
v -4.769840 1.325720 0.012000
v -4.769260 1.325801 0.010586
v -4.768843 1.324694 0.010845
v -4.769840 1.325720 0.012000
v -4.768843 1.324694 0.010845
v -4.769063 1.324401 0.012000
v -4.767860 1.325998 2.130000
v -4.769260 1.325801 2.129415
v -4.768843 1.324694 2.129155
v -4.767860 1.325998 2.130000
v -4.768843 1.324694 2.129155
v -4.767663 1.324597 2.129415
v -4.769840 1.325720 2.128000
v -4.769063 1.324401 2.128000
v -4.768843 1.324694 2.129155
v -4.769840 1.325720 2.128000
v -4.768843 1.324694 2.129155
v -4.769260 1.325801 2.129415
v -4.767581 1.324017 2.128000
v -4.767663 1.324597 2.129415
v -4.768843 1.324694 2.129155
v -4.767581 1.324017 2.128000
v -4.768843 1.324694 2.129155
v -4.769063 1.324401 2.128000
v -4.727259 1.331703 0.010000
v -4.725858 1.331899 0.010586
v -4.725955 1.330720 0.010845
v -4.727259 1.331703 0.010000
v -4.725955 1.330720 0.010845
v -4.727062 1.330302 0.010586
v -4.725278 1.331981 0.012000
v -4.725661 1.330499 0.012000
v -4.725955 1.330720 0.010845
v -4.725278 1.331981 0.012000
v -4.725955 1.330720 0.010845
v -4.725858 1.331899 0.010586
v -4.726980 1.329722 0.012000
v -4.727062 1.330302 0.010586
v -4.725955 1.330720 0.010845
v -4.726980 1.329722 0.012000
v -4.725955 1.330720 0.010845
v -4.725661 1.330499 0.012000
v -4.727259 1.331703 2.130000
v -4.727062 1.330302 2.129415
v -4.725955 1.330720 2.129155
v -4.727259 1.331703 2.130000
v -4.725955 1.330720 2.129155
v -4.725858 1.331899 2.129415
v -4.726980 1.329722 2.128000
v -4.725661 1.330499 2.128000
v -4.725955 1.330720 2.129155
v -4.726980 1.329722 2.128000
v -4.725955 1.330720 2.129155
v -4.727062 1.330302 2.129415
v -4.725278 1.331981 2.128000
v -4.725858 1.331899 2.129415
v -4.725955 1.330720 2.129155
v -4.725278 1.331981 2.128000
v -4.725955 1.330720 2.129155
v -4.725661 1.330499 2.128000
v -4.834611 2.095742 0.010000
v -4.875212 2.090037 0.010000
v -4.875409 2.091437 0.010586
v -4.834611 2.095742 0.010000
v -4.875409 2.091437 0.010586
v -4.834808 2.097142 0.010586
v -4.834808 2.097142 0.010586
v -4.875409 2.091437 0.010586
v -4.875490 2.092017 0.012000
v -4.834808 2.097142 0.010586
v -4.875490 2.092017 0.012000
v -4.834889 2.097722 0.012000
v -4.877192 2.089758 0.012000
v -4.877192 2.089758 2.128000
v -4.876809 2.091240 2.128000
v -4.877192 2.089758 0.012000
v -4.876809 2.091240 2.128000
v -4.876809 2.091240 0.012000
v -4.876809 2.091240 0.012000
v -4.876809 2.091240 2.128000
v -4.875490 2.092017 2.128000
v -4.876809 2.091240 0.012000
v -4.875490 2.092017 2.128000
v -4.875490 2.092017 0.012000
v -4.875212 2.090037 2.130000
v -4.834611 2.095742 2.130000
v -4.834808 2.097142 2.129415
v -4.875212 2.090037 2.130000
v -4.834808 2.097142 2.129415
v -4.875409 2.091437 2.129415
v -4.875409 2.091437 2.129415
v -4.834808 2.097142 2.129415
v -4.834889 2.097722 2.128000
v -4.875409 2.091437 2.129415
v -4.834889 2.097722 2.128000
v -4.875490 2.092017 2.128000
v -4.832630 2.096020 2.128000
v -4.832630 2.096020 0.012000
v -4.833407 2.097339 0.012000
v -4.832630 2.096020 2.128000
v -4.833407 2.097339 0.012000
v -4.833407 2.097339 2.128000
v -4.833407 2.097339 2.128000
v -4.833407 2.097339 0.012000
v -4.834889 2.097722 0.012000
v -4.833407 2.097339 2.128000
v -4.834889 2.097722 0.012000
v -4.834889 2.097722 2.128000
v -4.727259 1.331703 0.010000
v -4.834611 2.095742 0.010000
v -4.833210 2.095938 0.010586
v -4.727259 1.331703 0.010000
v -4.833210 2.095938 0.010586
v -4.725858 1.331899 0.010586
v -4.725858 1.331899 0.010586
v -4.833210 2.095938 0.010586
v -4.832630 2.096020 0.012000
v -4.725858 1.331899 0.010586
v -4.832630 2.096020 0.012000
v -4.725278 1.331981 0.012000
v -4.834611 2.095742 2.130000
v -4.727259 1.331703 2.130000
v -4.725858 1.331899 2.129415
v -4.834611 2.095742 2.130000
v -4.725858 1.331899 2.129415
v -4.833210 2.095938 2.129415
v -4.833210 2.095938 2.129415
v -4.725858 1.331899 2.129415
v -4.725278 1.331981 2.128000
v -4.833210 2.095938 2.129415
v -4.725278 1.331981 2.128000
v -4.832630 2.096020 2.128000
v -4.726980 1.329722 2.128000
v -4.726980 1.329722 0.012000
v -4.725661 1.330499 0.012000
v -4.726980 1.329722 2.128000
v -4.725661 1.330499 0.012000
v -4.725661 1.330499 2.128000
v -4.725661 1.330499 2.128000
v -4.725661 1.330499 0.012000
v -4.725278 1.331981 0.012000
v -4.725661 1.330499 2.128000
v -4.725278 1.331981 0.012000
v -4.725278 1.331981 2.128000
v -4.767860 1.325998 0.010000
v -4.727259 1.331703 0.010000
v -4.727062 1.330302 0.010586
v -4.767860 1.325998 0.010000
v -4.727062 1.330302 0.010586
v -4.767663 1.324597 0.010586
v -4.767663 1.324597 0.010586
v -4.727062 1.330302 0.010586
v -4.726980 1.329722 0.012000
v -4.767663 1.324597 0.010586
v -4.726980 1.329722 0.012000
v -4.767581 1.324017 0.012000
v -4.727259 1.331703 2.130000
v -4.767860 1.325998 2.130000
v -4.767663 1.324597 2.129415
v -4.727259 1.331703 2.130000
v -4.767663 1.324597 2.129415
v -4.727062 1.330302 2.129415
v -4.727062 1.330302 2.129415
v -4.767663 1.324597 2.129415
v -4.767581 1.324017 2.128000
v -4.727062 1.330302 2.129415
v -4.767581 1.324017 2.128000
v -4.726980 1.329722 2.128000
v -4.769840 1.325720 2.128000
v -4.769840 1.325720 0.012000
v -4.769063 1.324401 0.012000
v -4.769840 1.325720 2.128000
v -4.769063 1.324401 0.012000
v -4.769063 1.324401 2.128000
v -4.769063 1.324401 2.128000
v -4.769063 1.324401 0.012000
v -4.767581 1.324017 0.012000
v -4.769063 1.324401 2.128000
v -4.767581 1.324017 0.012000
v -4.767581 1.324017 2.128000
v -4.875212 2.090037 0.010000
v -4.767860 1.325998 0.010000
v -4.769260 1.325801 0.010586
v -4.875212 2.090037 0.010000
v -4.769260 1.325801 0.010586
v -4.876613 2.089840 0.010586
v -4.876613 2.089840 0.010586
v -4.769260 1.325801 0.010586
v -4.769840 1.325720 0.012000
v -4.876613 2.089840 0.010586
v -4.769840 1.325720 0.012000
v -4.877192 2.089758 0.012000
v -4.767860 1.325998 2.130000
v -4.875212 2.090037 2.130000
v -4.876613 2.089840 2.129415
v -4.767860 1.325998 2.130000
v -4.876613 2.089840 2.129415
v -4.769260 1.325801 2.129415
v -4.769260 1.325801 2.129415
v -4.876613 2.089840 2.129415
v -4.877192 2.089758 2.128000
v -4.769260 1.325801 2.129415
v -4.877192 2.089758 2.128000
v -4.769840 1.325720 2.128000
v -4.834611 2.095742 0.010000
v -4.727259 1.331703 0.010000
v -4.767860 1.325998 0.010000
v -4.834611 2.095742 0.010000
v -4.767860 1.325998 0.010000
v -4.875212 2.090037 0.010000
v -4.875490 2.092017 0.012000
v -4.875490 2.092017 2.128000
v -4.834889 2.097722 2.128000
v -4.875490 2.092017 0.012000
v -4.834889 2.097722 2.128000
v -4.834889 2.097722 0.012000
v -4.769840 1.325720 0.012000
v -4.769840 1.325720 2.128000
v -4.877192 2.089758 2.128000
v -4.769840 1.325720 0.012000
v -4.877192 2.089758 2.128000
v -4.877192 2.089758 0.012000
v -4.727259 1.331703 2.130000
v -4.834611 2.095742 2.130000
v -4.875212 2.090037 2.130000
v -4.727259 1.331703 2.130000
v -4.875212 2.090037 2.130000
v -4.767860 1.325998 2.130000
v -4.832630 2.096020 0.012000
v -4.832630 2.096020 2.128000
v -4.725278 1.331981 2.128000
v -4.832630 2.096020 0.012000
v -4.725278 1.331981 2.128000
v -4.725278 1.331981 0.012000
v -4.726980 1.329722 0.012000
v -4.726980 1.329722 2.128000
v -4.767581 1.324017 2.128000
v -4.726980 1.329722 0.012000
v -4.767581 1.324017 2.128000
v -4.767581 1.324017 0.012000
vt 0.778414 0.001561
vt 0.777472 0.001561
vt 0.777472 0.001017
vt 0.778414 0.001561
vt 0.777472 0.001017
vt 0.778414 0.000619
vt 0.752854 0.998439
vt 0.753796 0.998439
vt 0.753796 0.998983
vt 0.752854 0.998439
vt 0.753796 0.998983
vt 0.752854 0.999381
vt 0.001561 0.998439
vt 0.001561 0.999381
vt 0.001017 0.999381
vt 0.001561 0.998439
vt 0.001017 0.999381
vt 0.000619 0.998439
vt 0.752854 0.001561
vt 0.752854 0.000619
vt 0.753398 0.000619
vt 0.752854 0.001561
vt 0.753398 0.000619
vt 0.753796 0.001561
vt 0.778414 0.731654
vt 0.778414 0.732596
vt 0.777870 0.732596
vt 0.778414 0.731654
vt 0.777870 0.732596
vt 0.777471 0.731654
vt 0.001561 0.001561
vt 0.000619 0.001561
vt 0.000619 0.001017
vt 0.001561 0.001561
vt 0.000619 0.001017
vt 0.001561 0.000619
vt 0.797730 0.001561
vt 0.797730 0.000619
vt 0.798274 0.000619
vt 0.797730 0.001561
vt 0.798274 0.000619
vt 0.798672 0.001561
vt 0.020877 0.998439
vt 0.021819 0.998439
vt 0.022018 0.999182
vt 0.020877 0.998439
vt 0.022018 0.999182
vt 0.020877 0.999381
vt 0.022761 0.998439
vt 0.022761 0.999381
vt 0.022018 0.999182
vt 0.022761 0.998439
vt 0.022018 0.999182
vt 0.021819 0.998439
vt 0.797730 0.731654
vt 0.798672 0.731654
vt 0.798672 0.732198
vt 0.797730 0.731654
vt 0.798672 0.732198
vt 0.797729 0.732596
vt 0.022761 0.001561
vt 0.021819 0.001561
vt 0.021620 0.000818
vt 0.022761 0.001561
vt 0.021620 0.000818
vt 0.022761 0.000619
vt 0.020877 0.001561
vt 0.020877 0.000619
vt 0.021620 0.000818
vt 0.020877 0.001561
vt 0.021620 0.000818
vt 0.021819 0.001561
vt 0.778414 0.365046
vt 0.778414 0.365989
vt 0.777870 0.365989
vt 0.778414 0.365046
vt 0.777870 0.365989
vt 0.777472 0.365046
vt 0.775292 0.998439
vt 0.776234 0.998439
vt 0.776234 0.998983
vt 0.775292 0.998439
vt 0.776234 0.998983
vt 0.775292 0.999381
vt 0.389369 0.998439
vt 0.389369 0.999381
vt 0.388825 0.999381
vt 0.389369 0.998439
vt 0.388825 0.999381
vt 0.388426 0.998439
vt 0.778414 0.368169
vt 0.777472 0.368168
vt 0.777472 0.367624
vt 0.778414 0.368169
vt 0.777472 0.367624
vt 0.778414 0.367226
vt 0.389369 0.001561
vt 0.388426 0.001561
vt 0.388426 0.001017
vt 0.389369 0.001561
vt 0.388426 0.001017
vt 0.389369 0.000619
vt 0.775292 0.001561
vt 0.775292 0.000619
vt 0.775836 0.000619
vt 0.775292 0.001561
vt 0.775836 0.000619
vt 0.776234 0.001561
vt 0.797729 0.365046
vt 0.798672 0.365046
vt 0.798672 0.365590
vt 0.797729 0.365046
vt 0.798672 0.365590
vt 0.797729 0.365989
vt 0.386247 0.998439
vt 0.387189 0.998439
vt 0.387189 0.998983
vt 0.386247 0.998439
vt 0.387189 0.998983
vt 0.386247 0.999381
vt 0.755976 0.998439
vt 0.755976 0.999381
vt 0.755432 0.999381
vt 0.755976 0.998439
vt 0.755432 0.999381
vt 0.755034 0.998439
vt 0.797729 0.368169
vt 0.797729 0.367226
vt 0.798273 0.367226
vt 0.797729 0.368169
vt 0.798273 0.367226
vt 0.798672 0.368169
vt 0.755976 0.001561
vt 0.755034 0.001561
vt 0.755034 0.001017
vt 0.755976 0.001561
vt 0.755034 0.001017
vt 0.755976 0.000619
vt 0.386247 0.001561
vt 0.386247 0.000619
vt 0.386791 0.000619
vt 0.386247 0.001561
vt 0.386791 0.000619
vt 0.387189 0.001561
vt 0.797730 0.001561
vt 0.778414 0.001561
vt 0.778414 0.000619
vt 0.797730 0.001561
vt 0.778414 0.000619
vt 0.797730 0.000619
vt 0.020877 0.999381
vt 0.001561 0.999381
vt 0.001561 0.998439
vt 0.020877 0.999381
vt 0.001561 0.998439
vt 0.020877 0.998439
vt 0.752854 0.998439
vt 0.752854 0.001561
vt 0.753796 0.001561
vt 0.752854 0.998439
vt 0.753796 0.001561
vt 0.753796 0.998439
vt 0.000619 0.998439
vt 0.000619 0.001561
vt 0.001561 0.001561
vt 0.000619 0.998439
vt 0.001561 0.001561
vt 0.001561 0.998439
vt 0.778414 0.731654
vt 0.797730 0.731654
vt 0.797729 0.732596
vt 0.778414 0.731654
vt 0.797729 0.732596
vt 0.778414 0.732596
vt 0.001561 0.000619
vt 0.020877 0.000619
vt 0.020877 0.001561
vt 0.001561 0.000619
vt 0.020877 0.001561
vt 0.001561 0.001561
vt 0.022761 0.001561
vt 0.022761 0.998439
vt 0.021819 0.998439
vt 0.022761 0.001561
vt 0.021819 0.998439
vt 0.021819 0.001561
vt 0.021819 0.001561
vt 0.021819 0.998439
vt 0.020877 0.998439
vt 0.021819 0.001561
vt 0.020877 0.998439
vt 0.020877 0.001561
vt 0.797729 0.365046
vt 0.797730 0.001561
vt 0.798672 0.001561
vt 0.797729 0.365046
vt 0.798672 0.001561
vt 0.798672 0.365046
vt 0.386247 0.999381
vt 0.022761 0.999381
vt 0.022761 0.998439
vt 0.386247 0.999381
vt 0.022761 0.998439
vt 0.386247 0.998439
vt 0.797730 0.731654
vt 0.797729 0.368169
vt 0.798672 0.368169
vt 0.797730 0.731654
vt 0.798672 0.368169
vt 0.798672 0.731654
vt 0.022761 0.000619
vt 0.386247 0.000619
vt 0.386247 0.001561
vt 0.022761 0.000619
vt 0.386247 0.001561
vt 0.022761 0.001561
vt 0.755976 0.001561
vt 0.755976 0.998439
vt 0.755034 0.998439
vt 0.755976 0.001561
vt 0.755034 0.998439
vt 0.755034 0.001561
vt 0.387189 0.001561
vt 0.387189 0.998439
vt 0.386247 0.998439
vt 0.387189 0.001561
vt 0.386247 0.998439
vt 0.386247 0.001561
vt 0.778414 0.365046
vt 0.797729 0.365046
vt 0.797729 0.365989
vt 0.778414 0.365046
vt 0.797729 0.365989
vt 0.778414 0.365989
vt 0.775292 0.999381
vt 0.755976 0.999381
vt 0.755976 0.998439
vt 0.775292 0.999381
vt 0.755976 0.998439
vt 0.775292 0.998439
vt 0.797729 0.368169
vt 0.778414 0.368169
vt 0.778414 0.367226
vt 0.797729 0.368169
vt 0.778414 0.367226
vt 0.797729 0.367226
vt 0.755976 0.000619
vt 0.775292 0.000619
vt 0.775292 0.001561
vt 0.755976 0.000619
vt 0.775292 0.001561
vt 0.755976 0.001561
vt 0.389369 0.001561
vt 0.389369 0.998439
vt 0.388426 0.998439
vt 0.389369 0.001561
vt 0.388426 0.998439
vt 0.388426 0.001561
vt 0.776234 0.001561
vt 0.776234 0.998439
vt 0.775292 0.998439
vt 0.776234 0.001561
vt 0.775292 0.998439
vt 0.775292 0.001561
vt 0.778414 0.001561
vt 0.778414 0.365046
vt 0.777472 0.365046
vt 0.778414 0.001561
vt 0.777472 0.365046
vt 0.777472 0.001561
vt 0.752854 0.999381
vt 0.389369 0.999381
vt 0.389369 0.998439
vt 0.752854 0.999381
vt 0.389369 0.998439
vt 0.752854 0.998439
vt 0.778414 0.368169
vt 0.778414 0.731654
vt 0.777471 0.731654
vt 0.778414 0.368169
vt 0.777471 0.731654
vt 0.777472 0.368168
vt 0.389369 0.000619
vt 0.752854 0.000619
vt 0.752854 0.001561
vt 0.389369 0.000619
vt 0.752854 0.001561
vt 0.389369 0.001561
vt 0.797730 0.001561
vt 0.797729 0.365046
vt 0.778414 0.365046
vt 0.797730 0.001561
vt 0.778414 0.365046
vt 0.778414 0.001561
vt 0.001561 0.998439
vt 0.001561 0.001561
vt 0.020877 0.001561
vt 0.001561 0.998439
vt 0.020877 0.001561
vt 0.020877 0.998439
vt 0.389369 0.998439
vt 0.389369 0.001561
vt 0.752854 0.001561
vt 0.389369 0.998439
vt 0.752854 0.001561
vt 0.752854 0.998439
vt 0.797729 0.368169
vt 0.797730 0.731654
vt 0.778414 0.731654
vt 0.797729 0.368169
vt 0.778414 0.731654
vt 0.778414 0.368169
vt 0.022761 0.998439
vt 0.022761 0.001561
vt 0.386247 0.001561
vt 0.022761 0.998439
vt 0.386247 0.001561
vt 0.386247 0.998439
vt 0.755976 0.998439
vt 0.755976 0.001561
vt 0.775292 0.001561
vt 0.755976 0.998439
vt 0.775292 0.001561
vt 0.775292 0.998439
vn -0.40281 0.22792 -0.88645
vn -0.40281 0.22792 -0.88645
vn -0.40281 0.22792 -0.88645
vn -0.33010 0.32441 -0.88645
vn -0.33010 0.32441 -0.88645
vn -0.33010 0.32441 -0.88645
vn -0.92892 0.24027 -0.28175
vn -0.92892 0.24027 -0.28175
vn -0.92892 0.24027 -0.28175
vn -0.91703 0.15567 -0.36718
vn -0.91703 0.15567 -0.36718
vn -0.91703 0.15567 -0.36718
vn -0.40235 0.83863 -0.36718
vn -0.40235 0.83863 -0.36718
vn -0.40235 0.83863 -0.36718
vn -0.48695 0.82674 -0.28175
vn -0.48695 0.82674 -0.28175
vn -0.48695 0.82674 -0.28175
vn -0.91706 0.15569 0.36711
vn -0.91706 0.15569 0.36711
vn -0.91706 0.15569 0.36711
vn -0.92893 0.24023 0.28175
vn -0.92893 0.24023 0.28175
vn -0.92893 0.24023 0.28175
vn -0.33015 0.32427 0.88648
vn -0.33015 0.32427 0.88648
vn -0.33015 0.32427 0.88648
vn -0.40269 0.22801 0.88648
vn -0.40269 0.22801 0.88648
vn -0.40269 0.22801 0.88648
vn -0.48691 0.82676 0.28175
vn -0.48691 0.82676 0.28175
vn -0.48691 0.82676 0.28175
vn -0.40238 0.83864 0.36711
vn -0.40238 0.83864 0.36711
vn -0.40238 0.83864 0.36711
vn 0.22792 0.40281 -0.88645
vn 0.22792 0.40281 -0.88645
vn 0.22792 0.40281 -0.88645
vn 0.32441 0.33010 -0.88645
vn 0.32441 0.33010 -0.88645
vn 0.32441 0.33010 -0.88645
vn 0.24027 0.92892 -0.28175
vn 0.24027 0.92892 -0.28175
vn 0.24027 0.92892 -0.28175
vn 0.15567 0.91703 -0.36718
vn 0.15567 0.91703 -0.36718
vn 0.15567 0.91703 -0.36718
vn 0.83863 0.40235 -0.36718
vn 0.83863 0.40235 -0.36718
vn 0.83863 0.40235 -0.36718
vn 0.82674 0.48695 -0.28175
vn 0.82674 0.48695 -0.28175
vn 0.82674 0.48695 -0.28175
vn 0.32427 0.33015 0.88648
vn 0.32427 0.33015 0.88648
vn 0.32427 0.33015 0.88648
vn 0.22801 0.40269 0.88648
vn 0.22801 0.40269 0.88648
vn 0.22801 0.40269 0.88648
vn 0.82676 0.48691 0.28175
vn 0.82676 0.48691 0.28175
vn 0.82676 0.48691 0.28175
vn 0.83865 0.40238 0.36711
vn 0.83865 0.40238 0.36711
vn 0.83865 0.40238 0.36711
vn 0.15569 0.91706 0.36711
vn 0.15569 0.91706 0.36711
vn 0.15569 0.91706 0.36711
vn 0.24023 0.92893 0.28175
vn 0.24023 0.92893 0.28175
vn 0.24023 0.92893 0.28175
vn -0.22792 -0.40283 -0.88644
vn -0.22792 -0.40283 -0.88644
vn -0.22792 -0.40283 -0.88644
vn -0.32441 -0.33011 -0.88645
vn -0.32441 -0.33011 -0.88645
vn -0.32441 -0.33011 -0.88645
vn -0.24031 -0.92891 -0.28176
vn -0.24031 -0.92891 -0.28176
vn -0.24031 -0.92891 -0.28176
vn -0.15568 -0.91702 -0.36722
vn -0.15568 -0.91702 -0.36722
vn -0.15568 -0.91702 -0.36722
vn -0.83862 -0.40235 -0.36719
vn -0.83862 -0.40235 -0.36719
vn -0.83862 -0.40235 -0.36719
vn -0.82673 -0.48697 -0.28175
vn -0.82673 -0.48697 -0.28175
vn -0.82673 -0.48697 -0.28175
vn -0.32427 -0.33016 0.88648
vn -0.32427 -0.33016 0.88648
vn -0.32427 -0.33016 0.88648
vn -0.22801 -0.40271 0.88647
vn -0.22801 -0.40271 0.88647
vn -0.22801 -0.40271 0.88647
vn -0.82675 -0.48693 0.28175
vn -0.82675 -0.48693 0.28175
vn -0.82675 -0.48693 0.28175
vn -0.83864 -0.40239 0.36712
vn -0.83864 -0.40239 0.36712
vn -0.83864 -0.40239 0.36712
vn -0.15570 -0.91704 0.36714
vn -0.15570 -0.91704 0.36714
vn -0.15570 -0.91704 0.36714
vn -0.24026 -0.92892 0.28176
vn -0.24026 -0.92892 0.28176
vn -0.24026 -0.92892 0.28176
vn 0.40282 -0.22793 -0.88644
vn 0.40282 -0.22793 -0.88644
vn 0.40282 -0.22793 -0.88644
vn 0.33010 -0.32443 -0.88644
vn 0.33010 -0.32443 -0.88644
vn 0.33010 -0.32443 -0.88644
vn 0.92891 -0.24029 -0.28175
vn 0.92891 -0.24029 -0.28175
vn 0.92891 -0.24029 -0.28175
vn 0.91703 -0.15568 -0.36719
vn 0.91703 -0.15568 -0.36719
vn 0.91703 -0.15568 -0.36719
vn 0.40235 -0.83861 -0.36722
vn 0.40235 -0.83861 -0.36722
vn 0.40235 -0.83861 -0.36722
vn 0.48698 -0.82672 -0.28176
vn 0.48698 -0.82672 -0.28176
vn 0.48698 -0.82672 -0.28176
vn 0.33016 -0.32429 0.88647
vn 0.33016 -0.32429 0.88647
vn 0.33016 -0.32429 0.88647
vn 0.40270 -0.22802 0.88648
vn 0.40270 -0.22802 0.88648
vn 0.40270 -0.22802 0.88648
vn 0.48694 -0.82674 0.28176
vn 0.48694 -0.82674 0.28176
vn 0.48694 -0.82674 0.28176
vn 0.40238 -0.83863 0.36714
vn 0.40238 -0.83863 0.36714
vn 0.40238 -0.83863 0.36714
vn 0.91705 -0.15570 0.36711
vn 0.91705 -0.15570 0.36711
vn 0.91705 -0.15570 0.36711
vn 0.92892 -0.24025 0.28176
vn 0.92892 -0.24025 0.28176
vn 0.92892 -0.24025 0.28176
vn -0.05325 0.37896 -0.92388
vn -0.05325 0.37896 -0.92388
vn -0.05325 0.37896 -0.92388
vn -0.05325 0.37896 -0.92388
vn -0.05325 0.37896 -0.92388
vn -0.05325 0.37896 -0.92388
vn -0.12855 0.91489 -0.38268
vn -0.12855 0.91489 -0.38268
vn -0.12855 0.91489 -0.38268
vn -0.12855 0.91489 -0.38268
vn -0.12855 0.91489 -0.38268
vn -0.12855 0.91489 -0.38268
vn -0.96814 0.25042 -0.00000
vn -0.96814 0.25042 -0.00000
vn -0.96814 0.25042 -0.00000
vn -0.96814 0.25042 -0.00000
vn -0.96814 0.25042 -0.00000
vn -0.96814 0.25042 -0.00000
vn -0.50751 0.86165 -0.00000
vn -0.50751 0.86165 -0.00000
vn -0.50751 0.86165 -0.00000
vn -0.50751 0.86165 0.00000
vn -0.50751 0.86165 0.00000
vn -0.50751 0.86165 0.00000
vn -0.05323 0.37883 0.92393
vn -0.05323 0.37883 0.92393
vn -0.05323 0.37883 0.92393
vn -0.05323 0.37883 0.92393
vn -0.05323 0.37883 0.92393
vn -0.05323 0.37883 0.92393
vn -0.12855 0.91492 0.38261
vn -0.12855 0.91492 0.38261
vn -0.12855 0.91492 0.38261
vn -0.12855 0.91492 0.38261
vn -0.12855 0.91492 0.38261
vn -0.12855 0.91492 0.38261
vn 0.86165 0.50751 0.00000
vn 0.86165 0.50751 0.00000
vn 0.86165 0.50751 0.00000
vn 0.86165 0.50751 0.00000
vn 0.86165 0.50751 0.00000
vn 0.86165 0.50751 0.00000
vn 0.25041 0.96814 0.00000
vn 0.25041 0.96814 0.00000
vn 0.25041 0.96814 0.00000
vn 0.25041 0.96814 0.00000
vn 0.25041 0.96814 0.00000
vn 0.25041 0.96814 0.00000
vn 0.37896 0.05325 -0.92388
vn 0.37896 0.05325 -0.92388
vn 0.37896 0.05325 -0.92388
vn 0.37896 0.05325 -0.92388
vn 0.37896 0.05325 -0.92388
vn 0.37896 0.05325 -0.92388
vn 0.91489 0.12855 -0.38268
vn 0.91489 0.12855 -0.38268
vn 0.91489 0.12855 -0.38268
vn 0.91489 0.12855 -0.38268
vn 0.91489 0.12855 -0.38268
vn 0.91489 0.12855 -0.38268
vn 0.37883 0.05323 0.92393
vn 0.37883 0.05323 0.92393
vn 0.37883 0.05323 0.92393
vn 0.37883 0.05323 0.92393
vn 0.37883 0.05323 0.92393
vn 0.37883 0.05323 0.92393
vn 0.91492 0.12855 0.38261
vn 0.91492 0.12855 0.38261
vn 0.91492 0.12855 0.38261
vn 0.91492 0.12855 0.38261
vn 0.91492 0.12855 0.38261
vn 0.91492 0.12855 0.38261
vn 0.50754 -0.86163 0.00000
vn 0.50754 -0.86163 0.00000
vn 0.50754 -0.86163 0.00000
vn 0.50754 -0.86163 0.00000
vn 0.50754 -0.86163 0.00000
vn 0.50754 -0.86163 0.00000
vn 0.96813 -0.25044 0.00000
vn 0.96813 -0.25044 0.00000
vn 0.96813 -0.25044 0.00000
vn 0.96813 -0.25044 0.00000
vn 0.96813 -0.25044 0.00000
vn 0.96813 -0.25044 0.00000
vn 0.05325 -0.37898 -0.92387
vn 0.05325 -0.37898 -0.92387
vn 0.05325 -0.37898 -0.92387
vn 0.05325 -0.37898 -0.92387
vn 0.05325 -0.37898 -0.92387
vn 0.05325 -0.37898 -0.92387
vn 0.12855 -0.91488 -0.38272
vn 0.12855 -0.91488 -0.38272
vn 0.12855 -0.91488 -0.38272
vn 0.12855 -0.91488 -0.38272
vn 0.12855 -0.91488 -0.38272
vn 0.12855 -0.91488 -0.38272
vn 0.05323 -0.37886 0.92392
vn 0.05323 -0.37886 0.92392
vn 0.05323 -0.37886 0.92392
vn 0.05323 -0.37886 0.92392
vn 0.05323 -0.37886 0.92392
vn 0.05323 -0.37886 0.92392
vn 0.12855 -0.91491 0.38265
vn 0.12855 -0.91491 0.38265
vn 0.12855 -0.91491 0.38265
vn 0.12855 -0.91491 0.38265
vn 0.12855 -0.91491 0.38265
vn 0.12855 -0.91491 0.38265
vn -0.86164 -0.50753 0.00000
vn -0.86164 -0.50753 0.00000
vn -0.86164 -0.50753 0.00000
vn -0.86163 -0.50753 0.00000
vn -0.86163 -0.50753 0.00000
vn -0.86163 -0.50753 0.00000
vn -0.25045 -0.96813 0.00000
vn -0.25045 -0.96813 0.00000
vn -0.25045 -0.96813 0.00000
vn -0.25045 -0.96813 0.00000
vn -0.25045 -0.96813 0.00000
vn -0.25045 -0.96813 0.00000
vn -0.37896 -0.05325 -0.92388
vn -0.37896 -0.05325 -0.92388
vn -0.37896 -0.05325 -0.92388
vn -0.37896 -0.05325 -0.92388
vn -0.37896 -0.05325 -0.92388
vn -0.37896 -0.05325 -0.92388
vn -0.91489 -0.12855 -0.38268
vn -0.91489 -0.12855 -0.38268
vn -0.91489 -0.12855 -0.38268
vn -0.91489 -0.12855 -0.38269
vn -0.91489 -0.12855 -0.38269
vn -0.91489 -0.12855 -0.38269
vn -0.37883 -0.05323 0.92393
vn -0.37883 -0.05323 0.92393
vn -0.37883 -0.05323 0.92393
vn -0.37883 -0.05323 0.92393
vn -0.37883 -0.05323 0.92393
vn -0.37883 -0.05323 0.92393
vn -0.91492 -0.12855 0.38261
vn -0.91492 -0.12855 0.38261
vn -0.91492 -0.12855 0.38261
vn -0.91492 -0.12855 0.38261
vn -0.91492 -0.12855 0.38261
vn -0.91492 -0.12855 0.38261
vn 0.00000 0.00000 -1.00000
vn 0.00000 0.00000 -1.00000
vn 0.00000 0.00000 -1.00000
vn 0.00000 0.00000 -1.00000
vn 0.00000 0.00000 -1.00000
vn 0.00000 0.00000 -1.00000
vn -0.13914 0.99027 0.00000
vn -0.13914 0.99027 0.00000
vn -0.13914 0.99027 0.00000
vn -0.13914 0.99027 0.00000
vn -0.13914 0.99027 0.00000
vn -0.13914 0.99027 0.00000
vn -0.99027 -0.13914 0.00000
vn -0.99027 -0.13914 0.00000
vn -0.99027 -0.13914 0.00000
vn -0.99027 -0.13914 0.00000
vn -0.99027 -0.13914 0.00000
vn -0.99027 -0.13914 0.00000
vn 0.00000 0.00000 1.00000
vn 0.00000 0.00000 1.00000
vn 0.00000 0.00000 1.00000
vn 0.00000 0.00000 1.00000
vn 0.00000 0.00000 1.00000
vn 0.00000 0.00000 1.00000
vn 0.99027 0.13914 0.00000
vn 0.99027 0.13914 0.00000
vn 0.99027 0.13914 0.00000
vn 0.99027 0.13914 0.00000
vn 0.99027 0.13914 0.00000
vn 0.99027 0.13914 0.00000
vn 0.13914 -0.99027 0.00000
vn 0.13914 -0.99027 0.00000
vn 0.13914 -0.99027 0.00000
vn 0.13914 -0.99027 0.00000
vn 0.13914 -0.99027 0.00000
vn 0.13914 -0.99027 0.00000
f 1/1/1 2/2/2 3/3/3
f 4/4/4 5/5/5 6/6/6
f 7/7/7 8/8/8 9/9/9
f 10/10/10 11/11/11 12/12/12
f 13/13/13 14/14/14 15/15/15
f 16/16/16 17/17/17 18/18/18
f 19/19/19 20/20/20 21/21/21
f 22/22/22 23/23/23 24/24/24
f 25/25/25 26/26/26 27/27/27
f 28/28/28 29/29/29 30/30/30
f 31/31/31 32/32/32 33/33/33
f 34/34/34 35/35/35 36/36/36
f 37/37/37 38/38/38 39/39/39
f 40/40/40 41/41/41 42/42/42
f 43/43/43 44/44/44 45/45/45
f 46/46/46 47/47/47 48/48/48
f 49/49/49 50/50/50 51/51/51
f 52/52/52 53/53/53 54/54/54
f 55/55/55 56/56/56 57/57/57
f 58/58/58 59/59/59 60/60/60
f 61/61/61 62/62/62 63/63/63
f 64/64/64 65/65/65 66/66/66
f 67/67/67 68/68/68 69/69/69
f 70/70/70 71/71/71 72/72/72
f 73/73/73 74/74/74 75/75/75
f 76/76/76 77/77/77 78/78/78
f 79/79/79 80/80/80 81/81/81
f 82/82/82 83/83/83 84/84/84
f 85/85/85 86/86/86 87/87/87
f 88/88/88 89/89/89 90/90/90
f 91/91/91 92/92/92 93/93/93
f 94/94/94 95/95/95 96/96/96
f 97/97/97 98/98/98 99/99/99
f 100/100/100 101/101/101 102/102/102
f 103/103/103 104/104/104 105/105/105
f 106/106/106 107/107/107 108/108/108
f 109/109/109 110/110/110 111/111/111
f 112/112/112 113/113/113 114/114/114
f 115/115/115 116/116/116 117/117/117
f 118/118/118 119/119/119 120/120/120
f 121/121/121 122/122/122 123/123/123
f 124/124/124 125/125/125 126/126/126
f 127/127/127 128/128/128 129/129/129
f 130/130/130 131/131/131 132/132/132
f 133/133/133 134/134/134 135/135/135
f 136/136/136 137/137/137 138/138/138
f 139/139/139 140/140/140 141/141/141
f 142/142/142 143/143/143 144/144/144
f 145/145/145 146/146/146 147/147/147
f 148/148/148 149/149/149 150/150/150
f 151/151/151 152/152/152 153/153/153
f 154/154/154 155/155/155 156/156/156
f 157/157/157 158/158/158 159/159/159
f 160/160/160 161/161/161 162/162/162
f 163/163/163 164/164/164 165/165/165
f 166/166/166 167/167/167 168/168/168
f 169/169/169 170/170/170 171/171/171
f 172/172/172 173/173/173 174/174/174
f 175/175/175 176/176/176 177/177/177
f 178/178/178 179/179/179 180/180/180
f 181/181/181 182/182/182 183/183/183
f 184/184/184 185/185/185 186/186/186
f 187/187/187 188/188/188 189/189/189
f 190/190/190 191/191/191 192/192/192
f 193/193/193 194/194/194 195/195/195
f 196/196/196 197/197/197 198/198/198
f 199/199/199 200/200/200 201/201/201
f 202/202/202 203/203/203 204/204/204
f 205/205/205 206/206/206 207/207/207
f 208/208/208 209/209/209 210/210/210
f 211/211/211 212/212/212 213/213/213
f 214/214/214 215/215/215 216/216/216
f 217/217/217 218/218/218 219/219/219
f 220/220/220 221/221/221 222/222/222
f 223/223/223 224/224/224 225/225/225
f 226/226/226 227/227/227 228/228/228
f 229/229/229 230/230/230 231/231/231
f 232/232/232 233/233/233 234/234/234
f 235/235/235 236/236/236 237/237/237
f 238/238/238 239/239/239 240/240/240
f 241/241/241 242/242/242 243/243/243
f 244/244/244 245/245/245 246/246/246
f 247/247/247 248/248/248 249/249/249
f 250/250/250 251/251/251 252/252/252
f 253/253/253 254/254/254 255/255/255
f 256/256/256 257/257/257 258/258/258
f 259/259/259 260/260/260 261/261/261
f 262/262/262 263/263/263 264/264/264
f 265/265/265 266/266/266 267/267/267
f 268/268/268 269/269/269 270/270/270
f 271/271/271 272/272/272 273/273/273
f 274/274/274 275/275/275 276/276/276
f 277/277/277 278/278/278 279/279/279
f 280/280/280 281/281/281 282/282/282
f 283/283/283 284/284/284 285/285/285
f 286/286/286 287/287/287 288/288/288
f 289/289/289 290/290/290 291/291/291
f 292/292/292 293/293/293 294/294/294
f 295/295/295 296/296/296 297/297/297
f 298/298/298 299/299/299 300/300/300
f 301/301/301 302/302/302 303/303/303
f 304/304/304 305/305/305 306/306/306
f 307/307/307 308/308/308 309/309/309
f 310/310/310 311/311/311 312/312/312
f 313/313/313 314/314/314 315/315/315
f 316/316/316 317/317/317 318/318/318
f 319/319/319 320/320/320 321/321/321
f 322/322/322 323/323/323 324/324/324
