# door_white_jamb_at_the_glass_end.obj: metric frame, metres
v -4.870000 2.100000 0.000000
v -4.870000 2.100000 2.750000
v -4.870000 2.200000 2.750000
v -4.870000 2.100000 0.000000
v -4.870000 2.200000 2.750000
v -4.870000 2.200000 0.000000
v -4.870000 2.200000 0.000000
v -4.870000 2.200000 2.750000
v -4.820000 2.200000 2.750000
v -4.870000 2.200000 0.000000
v -4.820000 2.200000 2.750000
v -4.820000 2.200000 0.000000
v -4.820000 2.200000 0.000000
v -4.820000 2.200000 2.750000
v -4.820000 2.100000 2.750000
v -4.820000 2.200000 0.000000
v -4.820000 2.100000 2.750000
v -4.820000 2.100000 0.000000
v -4.820000 2.100000 0.000000
v -4.820000 2.100000 2.750000
v -4.870000 2.100000 2.750000
v -4.820000 2.100000 0.000000
v -4.870000 2.100000 2.750000
v -4.870000 2.100000 0.000000
v -4.870000 2.200000 0.000000
v -4.820000 2.200000 0.000000
v -4.820000 2.100000 0.000000
v -4.870000 2.200000 0.000000
v -4.820000 2.100000 0.000000
v -4.870000 2.100000 0.000000
v -4.820000 2.200000 2.750000
v -4.870000 2.200000 2.750000
v -4.870000 2.100000 2.750000
v -4.820000 2.200000 2.750000
v -4.870000 2.100000 2.750000
v -4.820000 2.100000 2.750000
vt 0.000281 0.999719
vt 0.000281 0.000281
vt 0.036624 0.000281
vt 0.000281 0.999719
vt 0.036624 0.000281
vt 0.036624 0.999719
vt 0.074091 0.999719
vt 0.074091 0.000281
vt 0.092262 0.000281
vt 0.074091 0.999719
vt 0.092262 0.000281
vt 0.092262 0.999719
vt 0.037186 0.999719
vt 0.037186 0.000281
vt 0.073529 0.000281
vt 0.037186 0.999719
vt 0.073529 0.000281
vt 0.073529 0.999719
vt 0.092824 0.999719
vt 0.092824 0.000281
vt 0.110995 0.000281
vt 0.092824 0.999719
vt 0.110995 0.000281
vt 0.110995 0.999719
vt 0.129728 0.036624
vt 0.111557 0.036624
vt 0.111557 0.000281
vt 0.129728 0.036624
vt 0.111557 0.000281
vt 0.129728 0.000281
vt 0.129729 0.073529
vt 0.111557 0.073529
vt 0.111557 0.037186
vt 0.129729 0.073529
vt 0.111557 0.037186
vt 0.129729 0.037186
vn -1.00000 0.00000 0.00000
vn -1.00000 0.00000 0.00000
vn -1.00000 0.00000 0.00000
vn -1.00000 0.00000 0.00000
vn -1.00000 0.00000 0.00000
vn -1.00000 0.00000 0.00000
vn 0.00000 1.00000 0.00000
vn 0.00000 1.00000 0.00000
vn 0.00000 1.00000 0.00000
vn 0.00000 1.00000 0.00000
vn 0.00000 1.00000 0.00000
vn 0.00000 1.00000 0.00000
vn 1.00000 0.00000 0.00000
vn 1.00000 0.00000 0.00000
vn 1.00000 0.00000 0.00000
vn 1.00000 0.00000 0.00000
vn 1.00000 0.00000 0.00000
vn 1.00000 0.00000 0.00000
vn 0.00000 -1.00000 0.00000
vn 0.00000 -1.00000 0.00000
vn 0.00000 -1.00000 0.00000
vn 0.00000 -1.00000 0.00000
vn 0.00000 -1.00000 0.00000
vn 0.00000 -1.00000 0.00000
vn 0.00000 0.00000 -1.00000
vn 0.00000 0.00000 -1.00000
vn 0.00000 0.00000 -1.00000
vn 0.00000 0.00000 -1.00000
vn 0.00000 0.00000 -1.00000
vn 0.00000 0.00000 -1.00000
vn 0.00000 0.00000 1.00000
vn 0.00000 0.00000 1.00000
vn 0.00000 0.00000 1.00000
vn 0.00000 0.00000 1.00000
vn 0.00000 0.00000 1.00000
vn 0.00000 0.00000 1.00000
f 1/1/1 2/2/2 3/3/3
f 4/4/4 5/5/5 6/6/6
f 7/7/7 8/8/8 9/9/9
f 10/10/10 11/11/11 12/12/12
f 13/13/13 14/14/14 15/15/15
f 16/16/16 17/17/17 18/18/18
f 19/19/19 20/20/20 21/21/21
f 22/22/22 23/23/23 24/24/24
f 25/25/25 26/26/26 27/27/27
f 28/28/28 29/29/29 30/30/30
f 31/31/31 32/32/32 33/33/33
f 34/34/34 35/35/35 36/36/36
