# door_latch_side_jamb.obj: metric frame, metres
v -4.980000 1.250000 0.000000
v -4.980000 1.250000 2.160000
v -4.980000 1.290000 2.160000
v -4.980000 1.250000 0.000000
v -4.980000 1.290000 2.160000
v -4.980000 1.290000 0.000000
v -4.980000 1.290000 0.000000
v -4.980000 1.290000 2.160000
v -4.870000 1.290000 2.160000
v -4.980000 1.290000 0.000000
v -4.870000 1.290000 2.160000
v -4.870000 1.290000 0.000000
v -4.870000 1.290000 0.000000
v -4.870000 1.290000 2.160000
v -4.870000 1.250000 2.160000
v -4.870000 1.290000 0.000000
v -4.870000 1.250000 2.160000
v -4.870000 1.250000 0.000000
v -4.870000 1.250000 0.000000
v -4.870000 1.250000 2.160000
v -4.980000 1.250000 2.160000
v -4.870000 1.250000 0.000000
v -4.980000 1.250000 2.160000
v -4.980000 1.250000 0.000000
v -4.980000 1.290000 0.000000
v -4.870000 1.290000 0.000000
v -4.870000 1.250000 0.000000
v -4.980000 1.290000 0.000000
v -4.870000 1.250000 0.000000
v -4.980000 1.250000 0.000000
v -4.870000 1.290000 2.160000
v -4.980000 1.290000 2.160000
v -4.980000 1.250000 2.160000
v -4.870000 1.290000 2.160000
v -4.980000 1.250000 2.160000
v -4.870000 1.250000 2.160000
vt 0.103357 0.999686
vt 0.103357 0.000314
vt 0.121864 0.000314
vt 0.103357 0.999686
vt 0.121864 0.000314
vt 0.121864 0.999686
vt 0.000314 0.999686
vt 0.000314 0.000314
vt 0.051208 0.000314
vt 0.000314 0.999686
vt 0.051208 0.000314
vt 0.051208 0.999686
vt 0.122491 0.999686
vt 0.122491 0.000314
vt 0.140998 0.000314
vt 0.122491 0.999686
vt 0.140998 0.000314
vt 0.140998 0.999686
vt 0.051835 0.999686
vt 0.051835 0.000314
vt 0.102729 0.000314
vt 0.051835 0.999686
vt 0.102729 0.000314
vt 0.102729 0.999686
vt 0.160133 0.000314
vt 0.160133 0.051208
vt 0.141626 0.051208
vt 0.160133 0.000314
vt 0.141626 0.051208
vt 0.141626 0.000314
vt 0.160133 0.051835
vt 0.160133 0.102729
vt 0.141626 0.102729
vt 0.160133 0.051835
vt 0.141626 0.102729
vt 0.141626 0.051835
vn -1.00000 0.00000 0.00000
vn -1.00000 0.00000 0.00000
vn -1.00000 0.00000 0.00000
vn -1.00000 0.00000 0.00000
vn -1.00000 0.00000 0.00000
vn -1.00000 0.00000 0.00000
vn 0.00000 1.00000 0.00000
vn 0.00000 1.00000 0.00000
vn 0.00000 1.00000 0.00000
vn 0.00000 1.00000 0.00000
vn 0.00000 1.00000 0.00000
vn 0.00000 1.00000 0.00000
vn 1.00000 0.00000 0.00000
vn 1.00000 0.00000 0.00000
vn 1.00000 0.00000 0.00000
vn 1.00000 0.00000 0.00000
vn 1.00000 0.00000 0.00000
vn 1.00000 0.00000 0.00000
vn 0.00000 -1.00000 0.00000
vn 0.00000 -1.00000 0.00000
vn 0.00000 -1.00000 0.00000
vn 0.00000 -1.00000 0.00000
vn 0.00000 -1.00000 0.00000
vn 0.00000 -1.00000 0.00000
vn 0.00000 0.00000 -1.00000
vn 0.00000 0.00000 -1.00000
vn 0.00000 0.00000 -1.00000
vn 0.00000 0.00000 -1.00000
vn 0.00000 0.00000 -1.00000
vn 0.00000 0.00000 -1.00000
vn 0.00000 0.00000 1.00000
vn 0.00000 0.00000 1.00000
vn 0.00000 0.00000 1.00000
vn 0.00000 0.00000 1.00000
vn 0.00000 0.00000 1.00000
vn 0.00000 0.00000 1.00000
f 1/1/1 2/2/2 3/3/3
f 4/4/4 5/5/5 6/6/6
f 7/7/7 8/8/8 9/9/9
f 10/10/10 11/11/11 12/12/12
f 13/13/13 14/14/14 15/15/15
f 16/16/16 17/17/17 18/18/18
f 19/19/19 20/20/20 21/21/21
f 22/22/22 23/23/23 24/24/24
f 25/25/25 26/26/26 27/27/27
f 28/28/28 29/29/29 30/30/30
f 31/31/31 32/32/32 33/33/33
f 34/34/34 35/35/35 36/36/36
