# floor_carpet.obj: metric frame, metres
v -7.000000 -2.500000 -0.020000
v -7.000000 -2.500000 0.000000
v -7.000000 5.000000 0.000000
v -7.000000 -2.500000 -0.020000
v -7.000000 5.000000 0.000000
v -7.000000 5.000000 -0.020000
v -7.000000 5.000000 -0.020000
v -7.000000 5.000000 0.000000
v 2.500000 5.000000 0.000000
v -7.000000 5.000000 -0.020000
v 2.500000 5.000000 0.000000
v 2.500000 5.000000 -0.020000
v 2.500000 5.000000 -0.020000
v 2.500000 5.000000 0.000000
v 2.500000 -2.500000 0.000000
v 2.500000 5.000000 -0.020000
v 2.500000 -2.500000 0.000000
v 2.500000 -2.500000 -0.020000
v 2.500000 -2.500000 -0.020000
v 2.500000 -2.500000 0.000000
v -7.000000 -2.500000 0.000000
v 2.500000 -2.500000 -0.020000
v -7.000000 -2.500000 0.000000
v -7.000000 -2.500000 -0.020000
v -7.000000 5.000000 -0.020000
v 2.500000 5.000000 -0.020000
v 2.500000 -2.500000 -0.020000
v -7.000000 5.000000 -0.020000
v 2.500000 -2.500000 -0.020000
v -7.000000 -2.500000 -0.020000
v 2.500000 5.000000 0.000000
v -7.000000 5.000000 0.000000
v -7.000000 -2.500000 0.000000
v 2.500000 5.000000 0.000000
v -7.000000 -2.500000 0.000000
v 2.500000 -2.500000 0.000000
vt 0.999510 0.496059
vt 0.998189 0.496059
vt 0.998189 0.000490
vt 0.999510 0.496059
vt 0.998189 0.000490
vt 0.999510 0.000490
vt 0.994908 0.628211
vt 0.993587 0.628211
vt 0.993587 0.000490
vt 0.994908 0.628211
vt 0.993587 0.000490
vt 0.994908 0.000490
vt 0.999510 0.992607
vt 0.998189 0.992607
vt 0.998189 0.497038
vt 0.999510 0.992607
vt 0.998189 0.497038
vt 0.999510 0.497038
vt 0.997209 0.628211
vt 0.995888 0.628211
vt 0.995888 0.000490
vt 0.997209 0.628211
vt 0.995888 0.000490
vt 0.997209 0.000490
vt 0.992607 0.000490
vt 0.992607 0.628211
vt 0.497038 0.628210
vt 0.992607 0.000490
vt 0.497038 0.628210
vt 0.497038 0.000490
vt 0.496059 0.000490
vt 0.496059 0.628211
vt 0.000490 0.628211
vt 0.496059 0.000490
vt 0.000490 0.628211
vt 0.000490 0.000490
vn -1.00000 0.00000 0.00000
vn -1.00000 0.00000 0.00000
vn -1.00000 0.00000 0.00000
vn -1.00000 0.00000 0.00000
vn -1.00000 0.00000 0.00000
vn -1.00000 0.00000 0.00000
vn 0.00000 1.00000 0.00000
vn 0.00000 1.00000 0.00000
vn 0.00000 1.00000 0.00000
vn 0.00000 1.00000 0.00000
vn 0.00000 1.00000 0.00000
vn 0.00000 1.00000 0.00000
vn 1.00000 0.00000 0.00000
vn 1.00000 0.00000 0.00000
vn 1.00000 0.00000 0.00000
vn 1.00000 0.00000 0.00000
vn 1.00000 0.00000 0.00000
vn 1.00000 0.00000 0.00000
vn 0.00000 -1.00000 0.00000
vn 0.00000 -1.00000 0.00000
vn 0.00000 -1.00000 0.00000
vn 0.00000 -1.00000 0.00000
vn 0.00000 -1.00000 0.00000
vn 0.00000 -1.00000 0.00000
vn 0.00000 0.00000 -1.00000
vn 0.00000 0.00000 -1.00000
vn 0.00000 0.00000 -1.00000
vn 0.00000 0.00000 -1.00000
vn 0.00000 0.00000 -1.00000
vn 0.00000 0.00000 -1.00000
vn 0.00000 0.00000 1.00000
vn 0.00000 0.00000 1.00000
vn 0.00000 0.00000 1.00000
vn 0.00000 0.00000 1.00000
vn 0.00000 0.00000 1.00000
vn 0.00000 0.00000 1.00000
f 1/1/1 2/2/2 3/3/3
f 4/4/4 5/5/5 6/6/6
f 7/7/7 8/8/8 9/9/9
f 10/10/10 11/11/11 12/12/12
f 13/13/13 14/14/14 15/15/15
f 16/16/16 17/17/17 18/18/18
f 19/19/19 20/20/20 21/21/21
f 22/22/22 23/23/23 24/24/24
f 25/25/25 26/26/26 27/27/27
f 28/28/28 29/29/29 30/30/30
f 31/31/31 32/32/32 33/33/33
f 34/34/34 35/35/35 36/36/36
