# glass_frame_ceiling_channel.obj: metric frame, metres
v -4.870000 2.135000 2.730000
v -4.870000 2.135000 2.750000
v -4.870000 2.175000 2.750000
v -4.870000 2.135000 2.730000
v -4.870000 2.175000 2.750000
v -4.870000 2.175000 2.730000
v -4.870000 2.175000 2.730000
v -4.870000 2.175000 2.750000
v -2.975000 2.175000 2.750000
v -4.870000 2.175000 2.730000
v -2.975000 2.175000 2.750000
v -2.975000 2.175000 2.730000
v -2.975000 2.175000 2.730000
v -2.975000 2.175000 2.750000
v -2.975000 2.135000 2.750000
v -2.975000 2.175000 2.730000
v -2.975000 2.135000 2.750000
v -2.975000 2.135000 2.730000
v -2.975000 2.135000 2.730000
v -2.975000 2.135000 2.750000
v -4.870000 2.135000 2.750000
v -2.975000 2.135000 2.730000
v -4.870000 2.135000 2.750000
v -4.870000 2.135000 2.730000
v -4.870000 2.175000 2.730000
v -2.975000 2.175000 2.730000
v -2.975000 2.135000 2.730000
v -4.870000 2.175000 2.730000
v -2.975000 2.135000 2.730000
v -4.870000 2.135000 2.730000
v -2.975000 2.175000 2.750000
v -4.870000 2.175000 2.750000
v -4.870000 2.135000 2.750000
v -2.975000 2.175000 2.750000
v -4.870000 2.135000 2.750000
v -2.975000 2.135000 2.750000
vt 0.075740 0.021310
vt 0.065191 0.021310
vt 0.065191 0.000210
vt 0.075740 0.021310
vt 0.065191 0.000210
vt 0.075740 0.000210
vt 0.053800 0.999790
vt 0.043250 0.999790
vt 0.043250 0.000210
vt 0.053800 0.999790
vt 0.043250 0.000210
vt 0.053800 0.000210
vt 0.075740 0.042829
vt 0.065191 0.042829
vt 0.065191 0.021730
vt 0.075740 0.042829
vt 0.065191 0.021730
vt 0.075740 0.021730
vt 0.064770 0.999790
vt 0.054221 0.999790
vt 0.054221 0.000210
vt 0.064770 0.999790
vt 0.054221 0.000210
vt 0.064770 0.000210
vt 0.021310 0.000210
vt 0.021310 0.999790
vt 0.000210 0.999790
vt 0.021310 0.000210
vt 0.000210 0.999790
vt 0.000210 0.000210
vt 0.042830 0.000210
vt 0.042829 0.999789
vt 0.021730 0.999789
vt 0.042830 0.000210
vt 0.021730 0.999789
vt 0.021730 0.000210
vn -1.00000 0.00000 0.00000
vn -1.00000 0.00000 0.00000
vn -1.00000 0.00000 0.00000
vn -1.00000 0.00000 0.00000
vn -1.00000 0.00000 0.00000
vn -1.00000 0.00000 0.00000
vn 0.00000 1.00000 0.00000
vn 0.00000 1.00000 0.00000
vn 0.00000 1.00000 0.00000
vn 0.00000 1.00000 0.00000
vn 0.00000 1.00000 0.00000
vn 0.00000 1.00000 0.00000
vn 1.00000 0.00000 0.00000
vn 1.00000 0.00000 0.00000
vn 1.00000 0.00000 0.00000
vn 1.00000 0.00000 0.00000
vn 1.00000 0.00000 0.00000
vn 1.00000 0.00000 0.00000
vn 0.00000 -1.00000 0.00000
vn 0.00000 -1.00000 0.00000
vn 0.00000 -1.00000 0.00000
vn 0.00000 -1.00000 0.00000
vn 0.00000 -1.00000 0.00000
vn 0.00000 -1.00000 0.00000
vn 0.00000 0.00000 -1.00000
vn 0.00000 0.00000 -1.00000
vn 0.00000 0.00000 -1.00000
vn 0.00000 0.00000 -1.00000
vn 0.00000 0.00000 -1.00000
vn 0.00000 0.00000 -1.00000
vn 0.00000 0.00000 1.00000
vn 0.00000 0.00000 1.00000
vn 0.00000 0.00000 1.00000
vn 0.00000 0.00000 1.00000
vn 0.00000 0.00000 1.00000
vn 0.00000 0.00000 1.00000
f 1/1/1 2/2/2 3/3/3
f 4/4/4 5/5/5 6/6/6
f 7/7/7 8/8/8 9/9/9
f 10/10/10 11/11/11 12/12/12
f 13/13/13 14/14/14 15/15/15
f 16/16/16 17/17/17 18/18/18
f 19/19/19 20/20/20 21/21/21
f 22/22/22 23/23/23 24/24/24
f 25/25/25 26/26/26 27/27/27
f 28/28/28 29/29/29 30/30/30
f 31/31/31 32/32/32 33/33/33
f 34/34/34 35/35/35 36/36/36
