# glass_frame_wall_end_jamb.obj: metric frame, metres
v -3.005000 2.162000 0.000000
v -3.005000 2.162000 2.750000
v -3.005000 2.185000 2.750000
v -3.005000 2.162000 0.000000
v -3.005000 2.185000 2.750000
v -3.005000 2.185000 0.000000
v -3.005000 2.185000 0.000000
v -3.005000 2.185000 2.750000
v -2.975000 2.185000 2.750000
v -3.005000 2.185000 0.000000
v -2.975000 2.185000 2.750000
v -2.975000 2.185000 0.000000
v -2.975000 2.185000 0.000000
v -2.975000 2.185000 2.750000
v -2.975000 2.162000 2.750000
v -2.975000 2.185000 0.000000
v -2.975000 2.162000 2.750000
v -2.975000 2.162000 0.000000
v -2.975000 2.162000 0.000000
v -2.975000 2.162000 2.750000
v -3.005000 2.162000 2.750000
v -2.975000 2.162000 0.000000
v -3.005000 2.162000 2.750000
v -3.005000 2.162000 0.000000
v -3.005000 2.185000 0.000000
v -2.975000 2.185000 0.000000
v -2.975000 2.162000 0.000000
v -3.005000 2.185000 0.000000
v -2.975000 2.162000 0.000000
v -3.005000 2.162000 0.000000
v -2.975000 2.185000 2.750000
v -3.005000 2.185000 2.750000
v -3.005000 2.162000 2.750000
v -2.975000 2.185000 2.750000
v -3.005000 2.162000 2.750000
v -2.975000 2.162000 2.750000
vt 0.022633 0.999836
vt 0.022633 0.000164
vt 0.030994 0.000164
vt 0.022633 0.999836
vt 0.030994 0.000164
vt 0.030994 0.999836
vt 0.000164 0.999836
vt 0.000164 0.000164
vt 0.011070 0.000164
vt 0.000164 0.999836
vt 0.011070 0.000164
vt 0.011070 0.999836
vt 0.031322 0.999836
vt 0.031322 0.000164
vt 0.039683 0.000164
vt 0.031322 0.999836
vt 0.039683 0.000164
vt 0.039683 0.999836
vt 0.011398 0.999836
vt 0.011398 0.000164
vt 0.022304 0.000164
vt 0.011398 0.999836
vt 0.022304 0.000164
vt 0.022304 0.999836
vt 0.048373 0.000164
vt 0.048373 0.011070
vt 0.040012 0.011070
vt 0.048373 0.000164
vt 0.040012 0.011070
vt 0.040012 0.000164
vt 0.048373 0.011398
vt 0.048373 0.022304
vt 0.040012 0.022304
vt 0.048373 0.011398
vt 0.040012 0.022304
vt 0.040012 0.011398
vn -1.00000 0.00000 0.00000
vn -1.00000 0.00000 0.00000
vn -1.00000 0.00000 0.00000
vn -1.00000 0.00000 0.00000
vn -1.00000 0.00000 0.00000
vn -1.00000 0.00000 0.00000
vn 0.00000 1.00000 0.00000
vn 0.00000 1.00000 0.00000
vn 0.00000 1.00000 0.00000
vn 0.00000 1.00000 0.00000
vn 0.00000 1.00000 0.00000
vn 0.00000 1.00000 0.00000
vn 1.00000 0.00000 0.00000
vn 1.00000 0.00000 0.00000
vn 1.00000 0.00000 0.00000
vn 1.00000 0.00000 0.00000
vn 1.00000 0.00000 0.00000
vn 1.00000 0.00000 0.00000
vn 0.00000 -1.00000 0.00000
vn 0.00000 -1.00000 0.00000
vn 0.00000 -1.00000 0.00000
vn 0.00000 -1.00000 0.00000
vn 0.00000 -1.00000 0.00000
vn 0.00000 -1.00000 0.00000
vn 0.00000 0.00000 -1.00000
vn 0.00000 0.00000 -1.00000
vn 0.00000 0.00000 -1.00000
vn 0.00000 0.00000 -1.00000
vn 0.00000 0.00000 -1.00000
vn 0.00000 0.00000 -1.00000
vn 0.00000 0.00000 1.00000
vn 0.00000 0.00000 1.00000
vn 0.00000 0.00000 1.00000
vn 0.00000 0.00000 1.00000
vn 0.00000 0.00000 1.00000
vn 0.00000 0.00000 1.00000
f 1/1/1 2/2/2 3/3/3
f 4/4/4 5/5/5 6/6/6
f 7/7/7 8/8/8 9/9/9
f 10/10/10 11/11/11 12/12/12
f 13/13/13 14/14/14 15/15/15
f 16/16/16 17/17/17 18/18/18
f 19/19/19 20/20/20 21/21/21
f 22/22/22 23/23/23 24/24/24
f 25/25/25 26/26/26 27/27/27
f 28/28/28 29/29/29 30/30/30
f 31/31/31 32/32/32 33/33/33
f 34/34/34 35/35/35 36/36/36
