# glass_a_frosted_band.obj: metric frame, metres
v -3.844000 2.150000 0.830000
v -3.844000 2.150000 2.050000
v -3.844000 2.160000 2.050000
v -3.844000 2.150000 0.830000
v -3.844000 2.160000 2.050000
v -3.844000 2.160000 0.830000
v -3.844000 2.160000 0.830000
v -3.844000 2.160000 2.050000
v -2.995000 2.160000 2.050000
v -3.844000 2.160000 0.830000
v -2.995000 2.160000 2.050000
v -2.995000 2.160000 0.830000
v -2.995000 2.160000 0.830000
v -2.995000 2.160000 2.050000
v -2.995000 2.150000 2.050000
v -2.995000 2.160000 0.830000
v -2.995000 2.150000 2.050000
v -2.995000 2.150000 0.830000
v -2.995000 2.150000 0.830000
v -2.995000 2.150000 2.050000
v -3.844000 2.150000 2.050000
v -2.995000 2.150000 0.830000
v -3.844000 2.150000 2.050000
v -3.844000 2.150000 0.830000
v -3.844000 2.160000 0.830000
v -2.995000 2.160000 0.830000
v -2.995000 2.150000 0.830000
v -3.844000 2.160000 0.830000
v -2.995000 2.150000 0.830000
v -3.844000 2.150000 0.830000
v -2.995000 2.160000 2.050000
v -3.844000 2.160000 2.050000
v -3.844000 2.150000 2.050000
v -2.995000 2.160000 2.050000
v -3.844000 2.150000 2.050000
v -2.995000 2.150000 2.050000
vt 0.979927 0.702614
vt 0.979927 0.000562
vt 0.985682 0.000562
vt 0.979927 0.702614
vt 0.985682 0.000562
vt 0.985682 0.702614
vt 0.000562 0.702614
vt 0.000562 0.000562
vt 0.489121 0.000562
vt 0.000562 0.702614
vt 0.489121 0.000562
vt 0.489121 0.702614
vt 0.986806 0.702614
vt 0.986806 0.000562
vt 0.992560 0.000562
vt 0.986806 0.702614
vt 0.992560 0.000562
vt 0.992560 0.702614
vt 0.490245 0.702614
vt 0.490245 0.000562
vt 0.978804 0.000562
vt 0.490245 0.702614
vt 0.978804 0.000562
vt 0.978804 0.702614
vt 0.999438 0.000562
vt 0.999438 0.489121
vt 0.993684 0.489121
vt 0.999438 0.000562
vt 0.993684 0.489121
vt 0.993684 0.000562
vt 0.999438 0.490245
vt 0.999438 0.978804
vt 0.993684 0.978804
vt 0.999438 0.490245
vt 0.993684 0.978804
vt 0.993684 0.490245
vn -1.00000 0.00000 0.00000
vn -1.00000 0.00000 0.00000
vn -1.00000 0.00000 0.00000
vn -1.00000 0.00000 0.00000
vn -1.00000 0.00000 0.00000
vn -1.00000 0.00000 0.00000
vn 0.00000 1.00000 0.00000
vn 0.00000 1.00000 0.00000
vn 0.00000 1.00000 0.00000
vn 0.00000 1.00000 0.00000
vn 0.00000 1.00000 0.00000
vn 0.00000 1.00000 0.00000
vn 1.00000 0.00000 0.00000
vn 1.00000 0.00000 0.00000
vn 1.00000 0.00000 0.00000
vn 1.00000 0.00000 0.00000
vn 1.00000 0.00000 0.00000
vn 1.00000 0.00000 0.00000
vn 0.00000 -1.00000 0.00000
vn 0.00000 -1.00000 0.00000
vn 0.00000 -1.00000 0.00000
vn 0.00000 -1.00000 0.00000
vn 0.00000 -1.00000 0.00000
vn 0.00000 -1.00000 0.00000
vn 0.00000 0.00000 -1.00000
vn 0.00000 0.00000 -1.00000
vn 0.00000 0.00000 -1.00000
vn 0.00000 0.00000 -1.00000
vn 0.00000 0.00000 -1.00000
vn 0.00000 0.00000 -1.00000
vn 0.00000 0.00000 1.00000
vn 0.00000 0.00000 1.00000
vn 0.00000 0.00000 1.00000
vn 0.00000 0.00000 1.00000
vn 0.00000 0.00000 1.00000
vn 0.00000 0.00000 1.00000
f 1/1/1 2/2/2 3/3/3
f 4/4/4 5/5/5 6/6/6
f 7/7/7 8/8/8 9/9/9
f 10/10/10 11/11/11 12/12/12
f 13/13/13 14/14/14 15/15/15
f 16/16/16 17/17/17 18/18/18
f 19/19/19 20/20/20 21/21/21
f 22/22/22 23/23/23 24/24/24
f 25/25/25 26/26/26 27/27/27
f 28/28/28 29/29/29 30/30/30
f 31/31/31 32/32/32 33/33/33
f 34/34/34 35/35/35 36/36/36
