# monitors_monitor_foot.obj: metric frame, metres
v -0.696714 1.786882 0.710000
v -0.696714 1.786882 0.720000
v -0.682080 1.926115 0.720000
v -0.696714 1.786882 0.710000
v -0.682080 1.926115 0.720000
v -0.682080 1.926115 0.710000
v -0.682080 1.926115 0.710000
v -0.682080 1.926115 0.720000
v -0.463286 1.903118 0.720000
v -0.682080 1.926115 0.710000
v -0.463286 1.903118 0.720000
v -0.463286 1.903118 0.710000
v -0.463286 1.903118 0.710000
v -0.463286 1.903118 0.720000
v -0.477920 1.763885 0.720000
v -0.463286 1.903118 0.710000
v -0.477920 1.763885 0.720000
v -0.477920 1.763885 0.710000
v -0.477920 1.763885 0.710000
v -0.477920 1.763885 0.720000
v -0.696714 1.786882 0.720000
v -0.477920 1.763885 0.710000
v -0.696714 1.786882 0.720000
v -0.696714 1.786882 0.710000
v -0.682080 1.926115 0.710000
v -0.463286 1.903118 0.710000
v -0.477920 1.763885 0.710000
v -0.682080 1.926115 0.710000
v -0.477920 1.763885 0.710000
v -0.696714 1.786882 0.710000
v -0.463286 1.903118 0.720000
v -0.682080 1.926115 0.720000
v -0.696714 1.786882 0.720000
v -0.463286 1.903118 0.720000
v -0.696714 1.786882 0.720000
v -0.477920 1.763885 0.720000
vt 0.999334 0.449271
vt 0.967291 0.449271
vt 0.967291 0.000666
vt 0.999334 0.449271
vt 0.967291 0.000666
vt 0.999334 0.000666
vt 0.932583 0.705616
vt 0.900540 0.705616
vt 0.900540 0.000666
vt 0.932583 0.705616
vt 0.900540 0.000666
vt 0.932583 0.000666
vt 0.999334 0.899208
vt 0.967290 0.899208
vt 0.967291 0.450603
vt 0.999334 0.899208
vt 0.967291 0.450603
vt 0.999334 0.450603
vt 0.965958 0.705616
vt 0.933915 0.705616
vt 0.933915 0.000666
vt 0.965958 0.705616
vt 0.933915 0.000666
vt 0.965958 0.000666
vt 0.449271 0.000666
vt 0.449271 0.705616
vt 0.000666 0.705616
vt 0.449271 0.000666
vt 0.000666 0.705616
vt 0.000666 0.000666
vt 0.899208 0.000666
vt 0.899208 0.705616
vt 0.450603 0.705616
vt 0.899208 0.000666
vt 0.450603 0.705616
vt 0.450603 0.000666
vn -0.99452 0.10453 0.00000
vn -0.99452 0.10453 0.00000
vn -0.99452 0.10453 0.00000
vn -0.99452 0.10453 0.00000
vn -0.99452 0.10453 0.00000
vn -0.99452 0.10453 0.00000
vn 0.10453 0.99452 0.00000
vn 0.10453 0.99452 0.00000
vn 0.10453 0.99452 0.00000
vn 0.10453 0.99452 0.00000
vn 0.10453 0.99452 0.00000
vn 0.10453 0.99452 0.00000
vn 0.99452 -0.10453 0.00000
vn 0.99452 -0.10453 0.00000
vn 0.99452 -0.10453 0.00000
vn 0.99452 -0.10453 0.00000
vn 0.99452 -0.10453 0.00000
vn 0.99452 -0.10453 0.00000
vn -0.10453 -0.99452 0.00000
vn -0.10453 -0.99452 0.00000
vn -0.10453 -0.99452 0.00000
vn -0.10453 -0.99452 0.00000
vn -0.10453 -0.99452 0.00000
vn -0.10453 -0.99452 0.00000
vn 0.00000 0.00000 -1.00000
vn 0.00000 0.00000 -1.00000
vn 0.00000 0.00000 -1.00000
vn 0.00000 0.00000 -1.00000
vn 0.00000 0.00000 -1.00000
vn 0.00000 0.00000 -1.00000
vn 0.00000 0.00000 1.00000
vn 0.00000 0.00000 1.00000
vn 0.00000 0.00000 1.00000
vn 0.00000 0.00000 1.00000
vn 0.00000 0.00000 1.00000
vn 0.00000 0.00000 1.00000
f 1/1/1 2/2/2 3/3/3
f 4/4/4 5/5/5 6/6/6
f 7/7/7 8/8/8 9/9/9
f 10/10/10 11/11/11 12/12/12
f 13/13/13 14/14/14 15/15/15
f 16/16/16 17/17/17 18/18/18
f 19/19/19 20/20/20 21/21/21
f 22/22/22 23/23/23 24/24/24
f 25/25/25 26/26/26 27/27/27
f 28/28/28 29/29/29 30/30/30
f 31/31/31 32/32/32 33/33/33
f 34/34/34 35/35/35 36/36/36
