# monitor_desk_top.obj: metric frame, metres
v -1.406000 1.325000 0.685000
v -1.406000 1.325000 0.710000
v -1.406000 2.085000 0.710000
v -1.406000 1.325000 0.685000
v -1.406000 2.085000 0.710000
v -1.406000 2.085000 0.685000
v -1.406000 2.085000 0.685000
v -1.406000 2.085000 0.710000
v 0.093000 2.085000 0.710000
v -1.406000 2.085000 0.685000
v 0.093000 2.085000 0.710000
v 0.093000 2.085000 0.685000
v 0.093000 2.085000 0.685000
v 0.093000 2.085000 0.710000
v 0.093000 1.325000 0.710000
v 0.093000 2.085000 0.685000
v 0.093000 1.325000 0.710000
v 0.093000 1.325000 0.685000
v 0.093000 1.325000 0.685000
v 0.093000 1.325000 0.710000
v -1.406000 1.325000 0.710000
v 0.093000 1.325000 0.685000
v -1.406000 1.325000 0.710000
v -1.406000 1.325000 0.685000
v -1.406000 2.085000 0.685000
v 0.093000 2.085000 0.685000
v 0.093000 1.325000 0.685000
v -1.406000 2.085000 0.685000
v 0.093000 1.325000 0.685000
v -1.406000 1.325000 0.685000
v 0.093000 2.085000 0.710000
v -1.406000 2.085000 0.710000
v -1.406000 1.325000 0.710000
v 0.093000 2.085000 0.710000
v -1.406000 1.325000 0.710000
v 0.093000 1.325000 0.710000
vt 0.999303 0.473866
vt 0.983739 0.473866
vt 0.983739 0.000697
vt 0.999303 0.473866
vt 0.983739 0.000697
vt 0.999303 0.000697
vt 0.965387 0.933961
vt 0.949822 0.933961
vt 0.949822 0.000697
vt 0.965387 0.933961
vt 0.949822 0.000697
vt 0.965387 0.000697
vt 0.999303 0.948429
vt 0.983738 0.948429
vt 0.983738 0.475259
vt 0.999303 0.948429
vt 0.983738 0.475259
vt 0.999303 0.475259
vt 0.982345 0.933961
vt 0.966780 0.933961
vt 0.966780 0.000697
vt 0.982345 0.933961
vt 0.966780 0.000697
vt 0.982345 0.000697
vt 0.948429 0.000697
vt 0.948429 0.933961
vt 0.475259 0.933961
vt 0.948429 0.000697
vt 0.475259 0.933961
vt 0.475259 0.000697
vt 0.473866 0.000697
vt 0.473866 0.933961
vt 0.000697 0.933961
vt 0.473866 0.000697
vt 0.000697 0.933961
vt 0.000697 0.000697
vn -1.00000 0.00000 0.00000
vn -1.00000 0.00000 0.00000
vn -1.00000 0.00000 0.00000
vn -1.00000 0.00000 0.00000
vn -1.00000 0.00000 0.00000
vn -1.00000 0.00000 0.00000
vn 0.00000 1.00000 0.00000
vn 0.00000 1.00000 0.00000
vn 0.00000 1.00000 0.00000
vn 0.00000 1.00000 0.00000
vn 0.00000 1.00000 0.00000
vn 0.00000 1.00000 0.00000
vn 1.00000 0.00000 0.00000
vn 1.00000 0.00000 0.00000
vn 1.00000 0.00000 0.00000
vn 1.00000 0.00000 0.00000
vn 1.00000 0.00000 0.00000
vn 1.00000 0.00000 0.00000
vn 0.00000 -1.00000 0.00000
vn 0.00000 -1.00000 0.00000
vn 0.00000 -1.00000 0.00000
vn 0.00000 -1.00000 0.00000
vn 0.00000 -1.00000 0.00000
vn 0.00000 -1.00000 0.00000
vn 0.00000 0.00000 -1.00000
vn 0.00000 0.00000 -1.00000
vn 0.00000 0.00000 -1.00000
vn 0.00000 0.00000 -1.00000
vn 0.00000 0.00000 -1.00000
vn 0.00000 0.00000 -1.00000
vn 0.00000 0.00000 1.00000
vn 0.00000 0.00000 1.00000
vn 0.00000 0.00000 1.00000
vn 0.00000 0.00000 1.00000
vn 0.00000 0.00000 1.00000
vn 0.00000 0.00000 1.00000
f 1/1/1 2/2/2 3/3/3
f 4/4/4 5/5/5 6/6/6
f 7/7/7 8/8/8 9/9/9
f 10/10/10 11/11/11 12/12/12
f 13/13/13 14/14/14 15/15/15
f 16/16/16 17/17/17 18/18/18
f 19/19/19 20/20/20 21/21/21
f 22/22/22 23/23/23 24/24/24
f 25/25/25 26/26/26 27/27/27
f 28/28/28 29/29/29 30/30/30
f 31/31/31 32/32/32 33/33/33
f 34/34/34 35/35/35 36/36/36
