# monitor_desk_leg_column_1.obj: metric frame, metres
v -0.062000 1.680000 0.030000
v -0.062000 1.680000 0.650000
v -0.062000 1.750000 0.650000
v -0.062000 1.680000 0.030000
v -0.062000 1.750000 0.650000
v -0.062000 1.750000 0.030000
v -0.062000 1.750000 0.030000
v -0.062000 1.750000 0.650000
v 0.008000 1.750000 0.650000
v -0.062000 1.750000 0.030000
v 0.008000 1.750000 0.650000
v 0.008000 1.750000 0.030000
v 0.008000 1.750000 0.030000
v 0.008000 1.750000 0.650000
v 0.008000 1.680000 0.650000
v 0.008000 1.750000 0.030000
v 0.008000 1.680000 0.650000
v 0.008000 1.680000 0.030000
v 0.008000 1.680000 0.030000
v 0.008000 1.680000 0.650000
v -0.062000 1.680000 0.650000
v 0.008000 1.680000 0.030000
v -0.062000 1.680000 0.650000
v -0.062000 1.680000 0.030000
v -0.062000 1.750000 0.030000
v 0.008000 1.750000 0.030000
v 0.008000 1.680000 0.030000
v -0.062000 1.750000 0.030000
v 0.008000 1.680000 0.030000
v -0.062000 1.680000 0.030000
v 0.008000 1.750000 0.650000
v -0.062000 1.750000 0.650000
v -0.062000 1.680000 0.650000
v 0.008000 1.750000 0.650000
v -0.062000 1.680000 0.650000
v 0.008000 1.680000 0.650000
vt 0.000627 0.999373
vt 0.000627 0.000627
vt 0.113389 0.000627
vt 0.000627 0.999373
vt 0.113389 0.000627
vt 0.113389 0.999373
vt 0.228659 0.999373
vt 0.228659 0.000627
vt 0.341421 0.000627
vt 0.228659 0.999373
vt 0.341421 0.000627
vt 0.341421 0.999373
vt 0.114643 0.999373
vt 0.114643 0.000627
vt 0.227405 0.000627
vt 0.114643 0.999373
vt 0.227405 0.000627
vt 0.227405 0.999373
vt 0.342675 0.999373
vt 0.342675 0.000627
vt 0.455437 0.000627
vt 0.342675 0.999373
vt 0.455437 0.000627
vt 0.455437 0.999373
vt 0.569453 0.113389
vt 0.456691 0.113389
vt 0.456691 0.000627
vt 0.569453 0.113389
vt 0.456691 0.000627
vt 0.569453 0.000627
vt 0.569453 0.227405
vt 0.456691 0.227405
vt 0.456691 0.114643
vt 0.569453 0.227405
vt 0.456691 0.114643
vt 0.569453 0.114643
vn -1.00000 0.00000 0.00000
vn -1.00000 0.00000 0.00000
vn -1.00000 0.00000 0.00000
vn -1.00000 0.00000 0.00000
vn -1.00000 0.00000 0.00000
vn -1.00000 0.00000 0.00000
vn 0.00000 1.00000 0.00000
vn 0.00000 1.00000 0.00000
vn 0.00000 1.00000 0.00000
vn 0.00000 1.00000 0.00000
vn 0.00000 1.00000 0.00000
vn 0.00000 1.00000 0.00000
vn 1.00000 0.00000 0.00000
vn 1.00000 0.00000 0.00000
vn 1.00000 0.00000 0.00000
vn 1.00000 0.00000 0.00000
vn 1.00000 0.00000 0.00000
vn 1.00000 0.00000 0.00000
vn 0.00000 -1.00000 0.00000
vn 0.00000 -1.00000 0.00000
vn 0.00000 -1.00000 0.00000
vn 0.00000 -1.00000 0.00000
vn 0.00000 -1.00000 0.00000
vn 0.00000 -1.00000 0.00000
vn 0.00000 0.00000 -1.00000
vn 0.00000 0.00000 -1.00000
vn 0.00000 0.00000 -1.00000
vn 0.00000 0.00000 -1.00000
vn 0.00000 0.00000 -1.00000
vn 0.00000 0.00000 -1.00000
vn 0.00000 0.00000 1.00000
vn 0.00000 0.00000 1.00000
vn 0.00000 0.00000 1.00000
vn 0.00000 0.00000 1.00000
vn 0.00000 0.00000 1.00000
vn 0.00000 0.00000 1.00000
f 1/1/1 2/2/2 3/3/3
f 4/4/4 5/5/5 6/6/6
f 7/7/7 8/8/8 9/9/9
f 10/10/10 11/11/11 12/12/12
f 13/13/13 14/14/14 15/15/15
f 16/16/16 17/17/17 18/18/18
f 19/19/19 20/20/20 21/21/21
f 22/22/22 23/23/23 24/24/24
f 25/25/25 26/26/26 27/27/27
f 28/28/28 29/29/29 30/30/30
f 31/31/31 32/32/32 33/33/33
f 34/34/34 35/35/35 36/36/36
