# monitors_privacy_panel.obj: metric frame, metres
v -1.498847 2.065000 1.184705
v -1.500000 2.065000 1.173000
v -1.500000 2.065000 0.804000
v -1.500000 2.065000 0.804000
v 0.060000 2.065000 0.804000
v 0.060000 2.065000 1.173000
v 0.060000 2.065000 1.173000
v 0.058847 2.065000 1.184705
v 0.055433 2.065000 1.195961
v 0.055433 2.065000 1.195961
v 0.049888 2.065000 1.206334
v 0.042426 2.065000 1.215426
v 0.042426 2.065000 1.215426
v 0.033334 2.065000 1.222888
v 0.022961 2.065000 1.228433
v 0.022961 2.065000 1.228433
v 0.011705 2.065000 1.231847
v 0.000000 2.065000 1.233000
v 0.000000 2.065000 1.233000
v -1.440000 2.065000 1.233000
v -1.451705 2.065000 1.231847
v -1.451705 2.065000 1.231847
v -1.462961 2.065000 1.228433
v -1.473334 2.065000 1.222888
v -1.473334 2.065000 1.222888
v -1.482426 2.065000 1.215426
v -1.489888 2.065000 1.206334
v -1.489888 2.065000 1.206334
v -1.495433 2.065000 1.195961
v -1.498847 2.065000 1.184705
v -1.498847 2.065000 1.184705
v -1.500000 2.065000 0.804000
v 0.060000 2.065000 1.173000
v 0.060000 2.065000 1.173000
v 0.055433 2.065000 1.195961
v 0.042426 2.065000 1.215426
v 0.042426 2.065000 1.215426
v 0.022961 2.065000 1.228433
v 0.000000 2.065000 1.233000
v 0.000000 2.065000 1.233000
v -1.451705 2.065000 1.231847
v -1.473334 2.065000 1.222888
v -1.473334 2.065000 1.222888
v -1.489888 2.065000 1.206334
v -1.498847 2.065000 1.184705
v -1.498847 2.065000 1.184705
v 0.060000 2.065000 1.173000
v 0.042426 2.065000 1.215426
v 0.042426 2.065000 1.215426
v 0.000000 2.065000 1.233000
v -1.473334 2.065000 1.222888
v 0.042426 2.065000 1.215426
v -1.473334 2.065000 1.222888
v -1.498847 2.065000 1.184705
v 0.060000 2.085000 0.804000
v -1.500000 2.085000 0.804000
v -1.500000 2.085000 1.173000
v -1.500000 2.085000 1.173000
v -1.498847 2.085000 1.184705
v -1.495433 2.085000 1.195961
v -1.495433 2.085000 1.195961
v -1.489888 2.085000 1.206334
v -1.482426 2.085000 1.215426
v -1.482426 2.085000 1.215426
v -1.473334 2.085000 1.222888
v -1.462961 2.085000 1.228433
v -1.462961 2.085000 1.228433
v -1.451705 2.085000 1.231847
v -1.440000 2.085000 1.233000
v -1.440000 2.085000 1.233000
v 0.000000 2.085000 1.233000
v 0.011705 2.085000 1.231847
v 0.011705 2.085000 1.231847
v 0.022961 2.085000 1.228433
v 0.033334 2.085000 1.222888
v 0.033334 2.085000 1.222888
v 0.042426 2.085000 1.215426
v 0.049888 2.085000 1.206334
v 0.049888 2.085000 1.206334
v 0.055433 2.085000 1.195961
v 0.058847 2.085000 1.184705
v 0.058847 2.085000 1.184705
v 0.060000 2.085000 1.173000
v 0.060000 2.085000 0.804000
v 0.060000 2.085000 0.804000
v -1.500000 2.085000 1.173000
v -1.495433 2.085000 1.195961
v -1.495433 2.085000 1.195961
v -1.482426 2.085000 1.215426
v -1.462961 2.085000 1.228433
v -1.462961 2.085000 1.228433
v -1.440000 2.085000 1.233000
v 0.011705 2.085000 1.231847
v 0.011705 2.085000 1.231847
v 0.033334 2.085000 1.222888
v 0.049888 2.085000 1.206334
v 0.049888 2.085000 1.206334
v 0.058847 2.085000 1.184705
v 0.060000 2.085000 0.804000
v 0.060000 2.085000 0.804000
v -1.495433 2.085000 1.195961
v -1.462961 2.085000 1.228433
v -1.462961 2.085000 1.228433
v 0.011705 2.085000 1.231847
v 0.049888 2.085000 1.206334
v -1.462961 2.085000 1.228433
v 0.049888 2.085000 1.206334
v 0.060000 2.085000 0.804000
v -1.500000 2.065000 0.804000
v -1.500000 2.085000 0.804000
v 0.060000 2.085000 0.804000
v -1.500000 2.065000 0.804000
v 0.060000 2.085000 0.804000
v 0.060000 2.065000 0.804000
v 0.060000 2.065000 0.804000
v 0.060000 2.085000 0.804000
v 0.060000 2.085000 1.173000
v 0.060000 2.065000 0.804000
v 0.060000 2.085000 1.173000
v 0.060000 2.065000 1.173000
v 0.060000 2.065000 1.173000
v 0.060000 2.085000 1.173000
v 0.058847 2.085000 1.184705
v 0.060000 2.065000 1.173000
v 0.058847 2.085000 1.184705
v 0.058847 2.065000 1.184705
v 0.058847 2.065000 1.184705
v 0.058847 2.085000 1.184705
v 0.055433 2.085000 1.195961
v 0.058847 2.065000 1.184705
v 0.055433 2.085000 1.195961
v 0.055433 2.065000 1.195961
v 0.055433 2.065000 1.195961
v 0.055433 2.085000 1.195961
v 0.049888 2.085000 1.206334
v 0.055433 2.065000 1.195961
v 0.049888 2.085000 1.206334
v 0.049888 2.065000 1.206334
v 0.049888 2.065000 1.206334
v 0.049888 2.085000 1.206334
v 0.042426 2.085000 1.215426
v 0.049888 2.065000 1.206334
v 0.042426 2.085000 1.215426
v 0.042426 2.065000 1.215426
v 0.042426 2.065000 1.215426
v 0.042426 2.085000 1.215426
v 0.033334 2.085000 1.222888
v 0.042426 2.065000 1.215426
v 0.033334 2.085000 1.222888
v 0.033334 2.065000 1.222888
v 0.033334 2.065000 1.222888
v 0.033334 2.085000 1.222888
v 0.022961 2.085000 1.228433
v 0.033334 2.065000 1.222888
v 0.022961 2.085000 1.228433
v 0.022961 2.065000 1.228433
v 0.022961 2.065000 1.228433
v 0.022961 2.085000 1.228433
v 0.011705 2.085000 1.231847
v 0.022961 2.065000 1.228433
v 0.011705 2.085000 1.231847
v 0.011705 2.065000 1.231847
v 0.011705 2.065000 1.231847
v 0.011705 2.085000 1.231847
v 0.000000 2.085000 1.233000
v 0.011705 2.065000 1.231847
v 0.000000 2.085000 1.233000
v 0.000000 2.065000 1.233000
v 0.000000 2.065000 1.233000
v 0.000000 2.085000 1.233000
v -1.440000 2.085000 1.233000
v 0.000000 2.065000 1.233000
v -1.440000 2.085000 1.233000
v -1.440000 2.065000 1.233000
v -1.440000 2.065000 1.233000
v -1.440000 2.085000 1.233000
v -1.451705 2.085000 1.231847
v -1.440000 2.065000 1.233000
v -1.451705 2.085000 1.231847
v -1.451705 2.065000 1.231847
v -1.451705 2.065000 1.231847
v -1.451705 2.085000 1.231847
v -1.462961 2.085000 1.228433
v -1.451705 2.065000 1.231847
v -1.462961 2.085000 1.228433
v -1.462961 2.065000 1.228433
v -1.462961 2.065000 1.228433
v -1.462961 2.085000 1.228433
v -1.473334 2.085000 1.222888
v -1.462961 2.065000 1.228433
v -1.473334 2.085000 1.222888
v -1.473334 2.065000 1.222888
v -1.473334 2.065000 1.222888
v -1.473334 2.085000 1.222888
v -1.482426 2.085000 1.215426
v -1.473334 2.065000 1.222888
v -1.482426 2.085000 1.215426
v -1.482426 2.065000 1.215426
v -1.482426 2.065000 1.215426
v -1.482426 2.085000 1.215426
v -1.489888 2.085000 1.206334
v -1.482426 2.065000 1.215426
v -1.489888 2.085000 1.206334
v -1.489888 2.065000 1.206334
v -1.489888 2.065000 1.206334
v -1.489888 2.085000 1.206334
v -1.495433 2.085000 1.195961
v -1.489888 2.065000 1.206334
v -1.495433 2.085000 1.195961
v -1.495433 2.065000 1.195961
v -1.495433 2.065000 1.195961
v -1.495433 2.085000 1.195961
v -1.498847 2.085000 1.184705
v -1.495433 2.065000 1.195961
v -1.498847 2.085000 1.184705
v -1.498847 2.065000 1.184705
v -1.498847 2.065000 1.184705
v -1.498847 2.085000 1.184705
v -1.500000 2.085000 1.173000
v -1.498847 2.065000 1.184705
v -1.500000 2.085000 1.173000
v -1.500000 2.065000 1.173000
v -1.500000 2.065000 1.173000
v -1.500000 2.085000 1.173000
v -1.500000 2.085000 0.804000
v -1.500000 2.065000 1.173000
v -1.500000 2.085000 0.804000
v -1.500000 2.065000 0.804000
vt 0.307285 0.001294
vt 0.314780 0.000555
vt 0.551055 0.000555
vt 0.551055 0.000555
vt 0.551055 0.999445
vt 0.314780 0.999445
vt 0.314780 0.999445
vt 0.307285 0.998706
vt 0.300077 0.996520
vt 0.300077 0.996520
vt 0.293435 0.992970
vt 0.287613 0.988192
vt 0.287613 0.988192
vt 0.282836 0.982370
vt 0.279285 0.975728
vt 0.279285 0.975728
vt 0.277099 0.968521
vt 0.276361 0.961026
vt 0.276361 0.961026
vt 0.276361 0.038974
vt 0.277099 0.031479
vt 0.277099 0.031479
vt 0.279285 0.024272
vt 0.282836 0.017630
vt 0.282836 0.017630
vt 0.287614 0.011808
vt 0.293435 0.007030
vt 0.293435 0.007030
vt 0.300078 0.003480
vt 0.307285 0.001294
vt 0.307285 0.001294
vt 0.551055 0.000555
vt 0.314780 0.999445
vt 0.314780 0.999445
vt 0.300077 0.996520
vt 0.287613 0.988192
vt 0.287613 0.988192
vt 0.279285 0.975728
vt 0.276361 0.961026
vt 0.276361 0.961026
vt 0.277099 0.031479
vt 0.282836 0.017630
vt 0.282836 0.017630
vt 0.293435 0.007030
vt 0.307285 0.001294
vt 0.307285 0.001294
vt 0.314780 0.999445
vt 0.287613 0.988192
vt 0.287613 0.988192
vt 0.276361 0.961026
vt 0.282836 0.017630
vt 0.287613 0.988192
vt 0.282836 0.017630
vt 0.307285 0.001294
vt 0.275250 0.000555
vt 0.275250 0.999445
vt 0.038974 0.999445
vt 0.038974 0.999445
vt 0.031479 0.998706
vt 0.024272 0.996520
vt 0.024272 0.996520
vt 0.017630 0.992970
vt 0.011808 0.988192
vt 0.011808 0.988192
vt 0.007030 0.982370
vt 0.003480 0.975728
vt 0.003480 0.975728
vt 0.001294 0.968521
vt 0.000555 0.961026
vt 0.000555 0.961026
vt 0.000555 0.038974
vt 0.001294 0.031479
vt 0.001294 0.031479
vt 0.003480 0.024272
vt 0.007030 0.017630
vt 0.007030 0.017630
vt 0.011808 0.011808
vt 0.017630 0.007030
vt 0.017630 0.007030
vt 0.024272 0.003480
vt 0.031479 0.001294
vt 0.031479 0.001294
vt 0.038974 0.000555
vt 0.275250 0.000555
vt 0.275250 0.000555
vt 0.038974 0.999445
vt 0.024272 0.996520
vt 0.024272 0.996520
vt 0.011808 0.988192
vt 0.003480 0.975728
vt 0.003480 0.975728
vt 0.000555 0.961026
vt 0.001294 0.031479
vt 0.001294 0.031479
vt 0.007030 0.017630
vt 0.017630 0.007030
vt 0.017630 0.007030
vt 0.031479 0.001294
vt 0.275250 0.000555
vt 0.275250 0.000555
vt 0.024272 0.996520
vt 0.003480 0.975728
vt 0.003480 0.975728
vt 0.001294 0.031479
vt 0.017630 0.007030
vt 0.003480 0.975728
vt 0.017630 0.007030
vt 0.275250 0.000555
vt 0.552166 0.000555
vt 0.564973 0.000555
vt 0.564973 0.999445
vt 0.552166 0.000555
vt 0.564973 0.999445
vt 0.552166 0.999445
vt 0.592807 0.532580
vt 0.580000 0.532580
vt 0.580000 0.302029
vt 0.592807 0.532580
vt 0.580000 0.302029
vt 0.592807 0.302029
vt 0.592807 0.302029
vt 0.580000 0.302029
vt 0.580000 0.294554
vt 0.592807 0.302029
vt 0.580000 0.294554
vt 0.592807 0.294554
vt 0.592807 0.294554
vt 0.580000 0.294554
vt 0.580000 0.287043
vt 0.592807 0.294554
vt 0.580000 0.287043
vt 0.592807 0.287043
vt 0.592807 0.287043
vt 0.580000 0.287043
vt 0.580000 0.279785
vt 0.592807 0.287043
vt 0.580000 0.279785
vt 0.592807 0.279785
vt 0.592807 0.279785
vt 0.580000 0.279785
vt 0.580000 0.273059
vt 0.592807 0.279785
vt 0.580000 0.273059
vt 0.592807 0.273059
vt 0.592807 0.273059
vt 0.580000 0.273059
vt 0.580000 0.267123
vt 0.592807 0.273059
vt 0.580000 0.267123
vt 0.592807 0.267123
vt 0.566083 0.000555
vt 0.578890 0.000555
vt 0.578890 0.007197
vt 0.566083 0.000555
vt 0.578890 0.007197
vt 0.566083 0.007197
vt 0.566083 0.007197
vt 0.578890 0.007197
vt 0.578890 0.014405
vt 0.566083 0.007197
vt 0.578890 0.014405
vt 0.566083 0.014405
vt 0.566083 0.014405
vt 0.578890 0.014405
vt 0.578890 0.021900
vt 0.566083 0.014405
vt 0.578890 0.021900
vt 0.566083 0.021900
vt 0.566083 0.021900
vt 0.578890 0.021900
vt 0.578890 0.943951
vt 0.566083 0.021900
vt 0.578890 0.943951
vt 0.566083 0.943951
vt 0.566083 0.943951
vt 0.578890 0.943951
vt 0.578890 0.951446
vt 0.566083 0.943951
vt 0.578890 0.951446
vt 0.566083 0.951446
vt 0.566083 0.951446
vt 0.578890 0.951446
vt 0.578890 0.958653
vt 0.566083 0.951446
vt 0.578890 0.958653
vt 0.566083 0.958653
vt 0.566083 0.958653
vt 0.578890 0.958653
vt 0.578890 0.965296
vt 0.566083 0.958653
vt 0.578890 0.965296
vt 0.566083 0.965296
vt 0.580000 0.000555
vt 0.592807 0.000555
vt 0.592807 0.006491
vt 0.580000 0.000555
vt 0.592807 0.006491
vt 0.580000 0.006491
vt 0.580000 0.006491
vt 0.592807 0.006491
vt 0.592807 0.013217
vt 0.580000 0.006491
vt 0.592807 0.013217
vt 0.580000 0.013217
vt 0.580000 0.013217
vt 0.592807 0.013217
vt 0.592807 0.020475
vt 0.580000 0.013217
vt 0.592807 0.020475
vt 0.580000 0.020475
vt 0.580000 0.020475
vt 0.592807 0.020475
vt 0.592807 0.027986
vt 0.580000 0.020475
vt 0.592807 0.027986
vt 0.580000 0.027986
vt 0.580000 0.027986
vt 0.592807 0.027986
vt 0.592807 0.035461
vt 0.580000 0.027986
vt 0.592807 0.035461
vt 0.580000 0.035461
vt 0.580000 0.035461
vt 0.592807 0.035461
vt 0.592807 0.266012
vt 0.580000 0.035461
vt 0.592807 0.266012
vt 0.580000 0.266012
vn 0.00000 -1.00000 0.00000
vn 0.00000 -1.00000 0.00000
vn 0.00000 -1.00000 0.00000
vn 0.00000 -1.00000 0.00000
vn 0.00000 -1.00000 0.00000
vn 0.00000 -1.00000 0.00000
vn 0.00000 -1.00000 0.00000
vn 0.00000 -1.00000 0.00000
vn 0.00000 -1.00000 0.00000
vn 0.00000 -1.00000 0.00000
vn 0.00000 -1.00000 0.00000
vn 0.00000 -1.00000 0.00000
vn 0.00000 -1.00000 0.00000
vn 0.00000 -1.00000 0.00000
vn 0.00000 -1.00000 0.00000
vn 0.00000 -1.00000 0.00000
vn 0.00000 -1.00000 0.00000
vn 0.00000 -1.00000 0.00000
vn 0.00000 -1.00000 0.00000
vn 0.00000 -1.00000 0.00000
vn 0.00000 -1.00000 0.00000
vn 0.00000 -1.00000 0.00000
vn 0.00000 -1.00000 0.00000
vn 0.00000 -1.00000 0.00000
vn 0.00000 -1.00000 0.00000
vn 0.00000 -1.00000 0.00000
vn 0.00000 -1.00000 0.00000
vn 0.00000 -1.00000 0.00000
vn 0.00000 -1.00000 0.00000
vn 0.00000 -1.00000 0.00000
vn 0.00000 -1.00000 0.00000
vn 0.00000 -1.00000 0.00000
vn 0.00000 -1.00000 0.00000
vn 0.00000 -1.00000 0.00000
vn 0.00000 -1.00000 0.00000
vn 0.00000 -1.00000 0.00000
vn 0.00000 -1.00000 0.00000
vn 0.00000 -1.00000 0.00000
vn 0.00000 -1.00000 0.00000
vn 0.00000 -1.00000 0.00000
vn 0.00000 -1.00000 0.00000
vn 0.00000 -1.00000 0.00000
vn 0.00000 -1.00000 0.00000
vn 0.00000 -1.00000 0.00000
vn 0.00000 -1.00000 0.00000
vn 0.00000 -1.00000 0.00000
vn 0.00000 -1.00000 0.00000
vn 0.00000 -1.00000 0.00000
vn 0.00000 -1.00000 0.00000
vn 0.00000 -1.00000 0.00000
vn 0.00000 -1.00000 0.00000
vn 0.00000 -1.00000 0.00000
vn 0.00000 -1.00000 0.00000
vn 0.00000 -1.00000 0.00000
vn 0.00000 1.00000 0.00000
vn 0.00000 1.00000 0.00000
vn 0.00000 1.00000 0.00000
vn 0.00000 1.00000 0.00000
vn 0.00000 1.00000 0.00000
vn 0.00000 1.00000 0.00000
vn 0.00000 1.00000 0.00000
vn 0.00000 1.00000 0.00000
vn 0.00000 1.00000 0.00000
vn 0.00000 1.00000 0.00000
vn 0.00000 1.00000 0.00000
vn 0.00000 1.00000 0.00000
vn 0.00000 1.00000 0.00000
vn 0.00000 1.00000 0.00000
vn 0.00000 1.00000 0.00000
vn 0.00000 1.00000 0.00000
vn 0.00000 1.00000 0.00000
vn 0.00000 1.00000 0.00000
vn 0.00000 1.00000 0.00000
vn 0.00000 1.00000 0.00000
vn 0.00000 1.00000 0.00000
vn 0.00000 1.00000 0.00000
vn 0.00000 1.00000 0.00000
vn 0.00000 1.00000 0.00000
vn 0.00000 1.00000 0.00000
vn 0.00000 1.00000 0.00000
vn 0.00000 1.00000 0.00000
vn 0.00000 1.00000 0.00000
vn 0.00000 1.00000 0.00000
vn 0.00000 1.00000 0.00000
vn 0.00000 1.00000 0.00000
vn 0.00000 1.00000 0.00000
vn 0.00000 1.00000 0.00000
vn 0.00000 1.00000 0.00000
vn 0.00000 1.00000 0.00000
vn 0.00000 1.00000 0.00000
vn 0.00000 1.00000 0.00000
vn 0.00000 1.00000 0.00000
vn 0.00000 1.00000 0.00000
vn 0.00000 1.00000 0.00000
vn 0.00000 1.00000 0.00000
vn 0.00000 1.00000 0.00000
vn 0.00000 1.00000 0.00000
vn 0.00000 1.00000 0.00000
vn 0.00000 1.00000 0.00000
vn 0.00000 1.00000 0.00000
vn 0.00000 1.00000 0.00000
vn 0.00000 1.00000 0.00000
vn 0.00000 1.00000 0.00000
vn 0.00000 1.00000 0.00000
vn 0.00000 1.00000 0.00000
vn 0.00000 1.00000 0.00000
vn 0.00000 1.00000 0.00000
vn 0.00000 1.00000 0.00000
vn 0.00000 0.00000 -1.00000
vn 0.00000 0.00000 -1.00000
vn 0.00000 0.00000 -1.00000
vn 0.00000 0.00000 -1.00000
vn 0.00000 0.00000 -1.00000
vn 0.00000 0.00000 -1.00000
vn 1.00000 0.00000 0.00000
vn 1.00000 0.00000 0.00000
vn 1.00000 0.00000 0.00000
vn 1.00000 0.00000 0.00000
vn 1.00000 0.00000 0.00000
vn 1.00000 0.00000 0.00000
vn 0.99518 0.00000 0.09802
vn 0.99518 0.00000 0.09802
vn 0.99518 0.00000 0.09802
vn 0.99518 0.00000 0.09802
vn 0.99518 0.00000 0.09802
vn 0.99518 0.00000 0.09802
vn 0.95694 0.00000 0.29028
vn 0.95694 0.00000 0.29028
vn 0.95694 0.00000 0.29028
vn 0.95694 0.00000 0.29028
vn 0.95694 0.00000 0.29028
vn 0.95694 0.00000 0.29028
vn 0.88192 0.00000 0.47140
vn 0.88192 0.00000 0.47140
vn 0.88192 0.00000 0.47140
vn 0.88192 0.00000 0.47140
vn 0.88192 0.00000 0.47140
vn 0.88192 0.00000 0.47140
vn 0.77301 0.00000 0.63439
vn 0.77301 0.00000 0.63439
vn 0.77301 0.00000 0.63439
vn 0.77301 0.00000 0.63439
vn 0.77301 0.00000 0.63439
vn 0.77301 0.00000 0.63439
vn 0.63439 0.00000 0.77301
vn 0.63439 0.00000 0.77301
vn 0.63439 0.00000 0.77301
vn 0.63439 0.00000 0.77301
vn 0.63439 0.00000 0.77301
vn 0.63439 0.00000 0.77301
vn 0.47139 0.00000 0.88192
vn 0.47139 0.00000 0.88192
vn 0.47139 0.00000 0.88192
vn 0.47139 0.00000 0.88192
vn 0.47139 0.00000 0.88192
vn 0.47139 0.00000 0.88192
vn 0.29029 0.00000 0.95694
vn 0.29029 0.00000 0.95694
vn 0.29029 0.00000 0.95694
vn 0.29029 0.00000 0.95694
vn 0.29029 0.00000 0.95694
vn 0.29029 0.00000 0.95694
vn 0.09802 0.00000 0.99518
vn 0.09802 0.00000 0.99518
vn 0.09802 0.00000 0.99518
vn 0.09802 0.00000 0.99518
vn 0.09802 0.00000 0.99518
vn 0.09802 0.00000 0.99518
vn 0.00000 0.00000 1.00000
vn 0.00000 0.00000 1.00000
vn 0.00000 0.00000 1.00000
vn 0.00000 0.00000 1.00000
vn 0.00000 0.00000 1.00000
vn 0.00000 0.00000 1.00000
vn -0.09802 0.00000 0.99518
vn -0.09802 0.00000 0.99518
vn -0.09802 0.00000 0.99518
vn -0.09802 0.00000 0.99518
vn -0.09802 0.00000 0.99518
vn -0.09802 0.00000 0.99518
vn -0.29029 0.00000 0.95694
vn -0.29029 0.00000 0.95694
vn -0.29029 0.00000 0.95694
vn -0.29029 0.00000 0.95694
vn -0.29029 0.00000 0.95694
vn -0.29029 0.00000 0.95694
vn -0.47139 0.00000 0.88192
vn -0.47139 0.00000 0.88192
vn -0.47139 0.00000 0.88192
vn -0.47139 0.00000 0.88192
vn -0.47139 0.00000 0.88192
vn -0.47139 0.00000 0.88192
vn -0.63439 0.00000 0.77301
vn -0.63439 0.00000 0.77301
vn -0.63439 0.00000 0.77301
vn -0.63439 0.00000 0.77301
vn -0.63439 0.00000 0.77301
vn -0.63439 0.00000 0.77301
vn -0.77301 0.00000 0.63439
vn -0.77301 0.00000 0.63439
vn -0.77301 0.00000 0.63439
vn -0.77301 0.00000 0.63439
vn -0.77301 0.00000 0.63439
vn -0.77301 0.00000 0.63439
vn -0.88192 0.00000 0.47139
vn -0.88192 0.00000 0.47139
vn -0.88192 0.00000 0.47139
vn -0.88192 0.00000 0.47139
vn -0.88192 0.00000 0.47139
vn -0.88192 0.00000 0.47139
vn -0.95694 0.00000 0.29029
vn -0.95694 0.00000 0.29029
vn -0.95694 0.00000 0.29029
vn -0.95694 0.00000 0.29029
vn -0.95694 0.00000 0.29029
vn -0.95694 0.00000 0.29029
vn -0.99518 0.00000 0.09802
vn -0.99518 0.00000 0.09802
vn -0.99518 0.00000 0.09802
vn -0.99518 0.00000 0.09802
vn -0.99518 0.00000 0.09802
vn -0.99518 0.00000 0.09802
vn -1.00000 0.00000 0.00000
vn -1.00000 0.00000 0.00000
vn -1.00000 0.00000 0.00000
vn -1.00000 0.00000 0.00000
vn -1.00000 0.00000 0.00000
vn -1.00000 0.00000 0.00000
f 1/1/1 2/2/2 3/3/3
f 4/4/4 5/5/5 6/6/6
f 7/7/7 8/8/8 9/9/9
f 10/10/10 11/11/11 12/12/12
f 13/13/13 14/14/14 15/15/15
f 16/16/16 17/17/17 18/18/18
f 19/19/19 20/20/20 21/21/21
f 22/22/22 23/23/23 24/24/24
f 25/25/25 26/26/26 27/27/27
f 28/28/28 29/29/29 30/30/30
f 31/31/31 32/32/32 33/33/33
f 34/34/34 35/35/35 36/36/36
f 37/37/37 38/38/38 39/39/39
f 40/40/40 41/41/41 42/42/42
f 43/43/43 44/44/44 45/45/45
f 46/46/46 47/47/47 48/48/48
f 49/49/49 50/50/50 51/51/51
f 52/52/52 53/53/53 54/54/54
f 55/55/55 56/56/56 57/57/57
f 58/58/58 59/59/59 60/60/60
f 61/61/61 62/62/62 63/63/63
f 64/64/64 65/65/65 66/66/66
f 67/67/67 68/68/68 69/69/69
f 70/70/70 71/71/71 72/72/72
f 73/73/73 74/74/74 75/75/75
f 76/76/76 77/77/77 78/78/78
f 79/79/79 80/80/80 81/81/81
f 82/82/82 83/83/83 84/84/84
f 85/85/85 86/86/86 87/87/87
f 88/88/88 89/89/89 90/90/90
f 91/91/91 92/92/92 93/93/93
f 94/94/94 95/95/95 96/96/96
f 97/97/97 98/98/98 99/99/99
f 100/100/100 101/101/101 102/102/102
f 103/103/103 104/104/104 105/105/105
f 106/106/106 107/107/107 108/108/108
f 109/109/109 110/110/110 111/111/111
f 112/112/112 113/113/113 114/114/114
f 115/115/115 116/116/116 117/117/117
f 118/118/118 119/119/119 120/120/120
f 121/121/121 122/122/122 123/123/123
f 124/124/124 125/125/125 126/126/126
f 127/127/127 128/128/128 129/129/129
f 130/130/130 131/131/131 132/132/132
f 133/133/133 134/134/134 135/135/135
f 136/136/136 137/137/137 138/138/138
f 139/139/139 140/140/140 141/141/141
f 142/142/142 143/143/143 144/144/144
f 145/145/145 146/146/146 147/147/147
f 148/148/148 149/149/149 150/150/150
f 151/151/151 152/152/152 153/153/153
f 154/154/154 155/155/155 156/156/156
f 157/157/157 158/158/158 159/159/159
f 160/160/160 161/161/161 162/162/162
f 163/163/163 164/164/164 165/165/165
f 166/166/166 167/167/167 168/168/168
f 169/169/169 170/170/170 171/171/171
f 172/172/172 173/173/173 174/174/174
f 175/175/175 176/176/176 177/177/177
f 178/178/178 179/179/179 180/180/180
f 181/181/181 182/182/182 183/183/183
f 184/184/184 185/185/185 186/186/186
f 187/187/187 188/188/188 189/189/189
f 190/190/190 191/191/191 192/192/192
f 193/193/193 194/194/194 195/195/195
f 196/196/196 197/197/197 198/198/198
f 199/199/199 200/200/200 201/201/201
f 202/202/202 203/203/203 204/204/204
f 205/205/205 206/206/206 207/207/207
f 208/208/208 209/209/209 210/210/210
f 211/211/211 212/212/212 213/213/213
f 214/214/214 215/215/215 216/216/216
f 217/217/217 218/218/218 219/219/219
f 220/220/220 221/221/221 222/222/222
f 223/223/223 224/224/224 225/225/225
f 226/226/226 227/227/227 228/228/228
