# monitor_desk_foot_1.obj: metric frame, metres
v -0.057000 1.365000 0.000000
v -0.057000 1.365000 0.030000
v -0.057000 2.045000 0.030000
v -0.057000 1.365000 0.000000
v -0.057000 2.045000 0.030000
v -0.057000 2.045000 0.000000
v -0.057000 2.045000 0.000000
v -0.057000 2.045000 0.030000
v 0.003000 2.045000 0.030000
v -0.057000 2.045000 0.000000
v 0.003000 2.045000 0.030000
v 0.003000 2.045000 0.000000
v 0.003000 2.045000 0.000000
v 0.003000 2.045000 0.030000
v 0.003000 1.365000 0.030000
v 0.003000 2.045000 0.000000
v 0.003000 1.365000 0.030000
v 0.003000 1.365000 0.000000
v 0.003000 1.365000 0.000000
v 0.003000 1.365000 0.030000
v -0.057000 1.365000 0.030000
v 0.003000 1.365000 0.000000
v -0.057000 1.365000 0.030000
v -0.057000 1.365000 0.000000
v -0.057000 2.045000 0.000000
v 0.003000 2.045000 0.000000
v 0.003000 1.365000 0.000000
v -0.057000 2.045000 0.000000
v 0.003000 1.365000 0.000000
v -0.057000 1.365000 0.000000
v 0.003000 2.045000 0.030000
v -0.057000 2.045000 0.030000
v -0.057000 1.365000 0.030000
v 0.003000 2.045000 0.030000
v -0.057000 1.365000 0.030000
v 0.003000 1.365000 0.030000
vt 0.222663 0.999545
vt 0.178586 0.999545
vt 0.178586 0.000455
vt 0.222663 0.999545
vt 0.178586 0.000455
vt 0.222663 0.000455
vt 0.312639 0.088610
vt 0.268562 0.088610
vt 0.268562 0.000455
vt 0.312639 0.088610
vt 0.268562 0.000455
vt 0.312639 0.000455
vt 0.267651 0.999545
vt 0.223574 0.999545
vt 0.223574 0.000455
vt 0.267651 0.999545
vt 0.223574 0.000455
vt 0.267651 0.000455
vt 0.312639 0.177675
vt 0.268562 0.177675
vt 0.268562 0.089520
vt 0.312639 0.177675
vt 0.268562 0.089520
vt 0.312639 0.089520
vt 0.088610 0.999545
vt 0.000455 0.999545
vt 0.000455 0.000455
vt 0.088610 0.999545
vt 0.000455 0.000455
vt 0.088610 0.000455
vt 0.177675 0.999545
vt 0.089520 0.999545
vt 0.089520 0.000455
vt 0.177675 0.999545
vt 0.089520 0.000455
vt 0.177675 0.000455
vn -1.00000 0.00000 0.00000
vn -1.00000 0.00000 0.00000
vn -1.00000 0.00000 0.00000
vn -1.00000 0.00000 0.00000
vn -1.00000 0.00000 0.00000
vn -1.00000 0.00000 0.00000
vn 0.00000 1.00000 0.00000
vn 0.00000 1.00000 0.00000
vn 0.00000 1.00000 0.00000
vn 0.00000 1.00000 0.00000
vn 0.00000 1.00000 0.00000
vn 0.00000 1.00000 0.00000
vn 1.00000 0.00000 0.00000
vn 1.00000 0.00000 0.00000
vn 1.00000 0.00000 0.00000
vn 1.00000 0.00000 0.00000
vn 1.00000 0.00000 0.00000
vn 1.00000 0.00000 0.00000
vn 0.00000 -1.00000 0.00000
vn 0.00000 -1.00000 0.00000
vn 0.00000 -1.00000 0.00000
vn 0.00000 -1.00000 0.00000
vn 0.00000 -1.00000 0.00000
vn 0.00000 -1.00000 0.00000
vn 0.00000 0.00000 -1.00000
vn 0.00000 0.00000 -1.00000
vn 0.00000 0.00000 -1.00000
vn 0.00000 0.00000 -1.00000
vn 0.00000 0.00000 -1.00000
vn 0.00000 0.00000 -1.00000
vn 0.00000 0.00000 1.00000
vn 0.00000 0.00000 1.00000
vn 0.00000 0.00000 1.00000
vn 0.00000 0.00000 1.00000
vn 0.00000 0.00000 1.00000
vn 0.00000 0.00000 1.00000
f 1/1/1 2/2/2 3/3/3
f 4/4/4 5/5/5 6/6/6
f 7/7/7 8/8/8 9/9/9
f 10/10/10 11/11/11 12/12/12
f 13/13/13 14/14/14 15/15/15
f 16/16/16 17/17/17 18/18/18
f 19/19/19 20/20/20 21/21/21
f 22/22/22 23/23/23 24/24/24
f 25/25/25 26/26/26 27/27/27
f 28/28/28 29/29/29 30/30/30
f 31/31/31 32/32/32 33/33/33
f 34/34/34 35/35/35 36/36/36
