# monitor_desk_side_rail_1.obj: metric frame, metres
v 0.038000 1.375000 0.625000
v 0.038000 1.375000 0.685000
v 0.038000 2.035000 0.685000
v 0.038000 1.375000 0.625000
v 0.038000 2.035000 0.685000
v 0.038000 2.035000 0.625000
v 0.038000 2.035000 0.625000
v 0.038000 2.035000 0.685000
v 0.078000 2.035000 0.685000
v 0.038000 2.035000 0.625000
v 0.078000 2.035000 0.685000
v 0.078000 2.035000 0.625000
v 0.078000 2.035000 0.625000
v 0.078000 2.035000 0.685000
v 0.078000 1.375000 0.685000
v 0.078000 2.035000 0.625000
v 0.078000 1.375000 0.685000
v 0.078000 1.375000 0.625000
v 0.078000 1.375000 0.625000
v 0.078000 1.375000 0.685000
v 0.038000 1.375000 0.685000
v 0.078000 1.375000 0.625000
v 0.038000 1.375000 0.685000
v 0.038000 1.375000 0.625000
v 0.038000 2.035000 0.625000
v 0.078000 2.035000 0.625000
v 0.078000 1.375000 0.625000
v 0.038000 2.035000 0.625000
v 0.078000 1.375000 0.625000
v 0.038000 1.375000 0.625000
v 0.078000 2.035000 0.685000
v 0.038000 2.035000 0.685000
v 0.038000 1.375000 0.685000
v 0.078000 2.035000 0.685000
v 0.038000 1.375000 0.685000
v 0.078000 1.375000 0.685000
vt 0.091316 0.999503
vt 0.000497 0.999503
vt 0.000497 0.000497
vt 0.091316 0.999503
vt 0.000497 0.000497
vt 0.091316 0.000497
vt 0.307203 0.091316
vt 0.307203 0.000497
vt 0.367748 0.000497
vt 0.307203 0.091316
vt 0.367748 0.000497
vt 0.367748 0.091316
vt 0.183129 0.999503
vt 0.092310 0.999503
vt 0.092310 0.000497
vt 0.183129 0.999503
vt 0.092310 0.000497
vt 0.183129 0.000497
vt 0.307203 0.183128
vt 0.307203 0.092310
vt 0.367748 0.092310
vt 0.307203 0.183128
vt 0.367748 0.092310
vt 0.367748 0.183128
vt 0.244669 0.999503
vt 0.184123 0.999503
vt 0.184123 0.000497
vt 0.244669 0.999503
vt 0.184123 0.000497
vt 0.244669 0.000497
vt 0.306209 0.999503
vt 0.245663 0.999503
vt 0.245663 0.000497
vt 0.306209 0.999503
vt 0.245663 0.000497
vt 0.306209 0.000497
vn -1.00000 0.00000 0.00000
vn -1.00000 0.00000 0.00000
vn -1.00000 0.00000 0.00000
vn -1.00000 0.00000 0.00000
vn -1.00000 0.00000 0.00000
vn -1.00000 0.00000 0.00000
vn 0.00000 1.00000 0.00000
vn 0.00000 1.00000 0.00000
vn 0.00000 1.00000 0.00000
vn 0.00000 1.00000 0.00000
vn 0.00000 1.00000 0.00000
vn 0.00000 1.00000 0.00000
vn 1.00000 0.00000 0.00000
vn 1.00000 0.00000 0.00000
vn 1.00000 0.00000 0.00000
vn 1.00000 0.00000 0.00000
vn 1.00000 0.00000 0.00000
vn 1.00000 0.00000 0.00000
vn 0.00000 -1.00000 0.00000
vn 0.00000 -1.00000 0.00000
vn 0.00000 -1.00000 0.00000
vn 0.00000 -1.00000 0.00000
vn 0.00000 -1.00000 0.00000
vn 0.00000 -1.00000 0.00000
vn 0.00000 0.00000 -1.00000
vn 0.00000 0.00000 -1.00000
vn 0.00000 0.00000 -1.00000
vn 0.00000 0.00000 -1.00000
vn 0.00000 0.00000 -1.00000
vn 0.00000 0.00000 -1.00000
vn 0.00000 0.00000 1.00000
vn 0.00000 0.00000 1.00000
vn 0.00000 0.00000 1.00000
vn 0.00000 0.00000 1.00000
vn 0.00000 0.00000 1.00000
vn 0.00000 0.00000 1.00000
f 1/1/1 2/2/2 3/3/3
f 4/4/4 5/5/5 6/6/6
f 7/7/7 8/8/8 9/9/9
f 10/10/10 11/11/11 12/12/12
f 13/13/13 14/14/14 15/15/15
f 16/16/16 17/17/17 18/18/18
f 19/19/19 20/20/20 21/21/21
f 22/22/22 23/23/23 24/24/24
f 25/25/25 26/26/26 27/27/27
f 28/28/28 29/29/29 30/30/30
f 31/31/31 32/32/32 33/33/33
f 34/34/34 35/35/35 36/36/36
