# rail_c_clamp_0_screw.obj: metric frame, metres
v -2.739699 1.334000 0.738300
v -2.739699 1.334000 0.746300
v -2.739699 1.344000 0.746300
v -2.739699 1.334000 0.738300
v -2.739699 1.344000 0.746300
v -2.739699 1.344000 0.738300
v -2.739699 1.344000 0.738300
v -2.739699 1.344000 0.746300
v -2.729699 1.344000 0.746300
v -2.739699 1.344000 0.738300
v -2.729699 1.344000 0.746300
v -2.729699 1.344000 0.738300
v -2.729699 1.344000 0.738300
v -2.729699 1.344000 0.746300
v -2.729699 1.334000 0.746300
v -2.729699 1.344000 0.738300
v -2.729699 1.334000 0.746300
v -2.729699 1.334000 0.738300
v -2.729699 1.334000 0.738300
v -2.729699 1.334000 0.746300
v -2.739699 1.334000 0.746300
v -2.729699 1.334000 0.738300
v -2.739699 1.334000 0.746300
v -2.739699 1.334000 0.738300
v -2.739699 1.344000 0.738300
v -2.729699 1.344000 0.738300
v -2.729699 1.334000 0.738300
v -2.739699 1.344000 0.738300
v -2.729699 1.334000 0.738300
v -2.739699 1.334000 0.738300
v -2.729699 1.344000 0.746300
v -2.739699 1.344000 0.746300
v -2.739699 1.334000 0.746300
v -2.729699 1.344000 0.746300
v -2.739699 1.334000 0.746300
v -2.729699 1.334000 0.746300
vt 0.691323 0.383499
vt 0.385208 0.383499
vt 0.385208 0.000853
vt 0.691323 0.383499
vt 0.385208 0.000853
vt 0.691323 0.000853
vt 0.691321 0.767856
vt 0.385205 0.767856
vt 0.385205 0.385210
vt 0.691321 0.767856
vt 0.385205 0.385210
vt 0.691321 0.385210
vt 0.999147 0.383499
vt 0.693032 0.383499
vt 0.693032 0.000853
vt 0.999147 0.383499
vt 0.693032 0.000853
vt 0.999147 0.000853
vt 0.999145 0.767847
vt 0.693029 0.767847
vt 0.693029 0.385201
vt 0.999145 0.767847
vt 0.693029 0.385201
vt 0.999145 0.385201
vt 0.383499 0.000848
vt 0.383499 0.383495
vt 0.000853 0.383495
vt 0.383499 0.000848
vt 0.000853 0.383495
vt 0.000853 0.000848
vt 0.383499 0.385210
vt 0.383499 0.767856
vt 0.000853 0.767856
vt 0.383499 0.385210
vt 0.000853 0.767856
vt 0.000853 0.385210
vn -1.00000 0.00000 0.00000
vn -1.00000 0.00000 0.00000
vn -1.00000 0.00000 0.00000
vn -1.00000 0.00000 0.00000
vn -1.00000 0.00000 0.00000
vn -1.00000 0.00000 0.00000
vn 0.00000 1.00000 0.00000
vn 0.00000 1.00000 0.00000
vn 0.00000 1.00000 0.00000
vn 0.00000 1.00000 0.00000
vn 0.00000 1.00000 0.00000
vn 0.00000 1.00000 0.00000
vn 1.00000 0.00000 0.00000
vn 1.00000 0.00000 0.00000
vn 1.00000 0.00000 0.00000
vn 1.00000 0.00000 0.00000
vn 1.00000 0.00000 0.00000
vn 1.00000 0.00000 0.00000
vn 0.00000 -1.00000 0.00000
vn 0.00000 -1.00000 0.00000
vn 0.00000 -1.00000 0.00000
vn 0.00000 -1.00000 0.00000
vn 0.00000 -1.00000 0.00000
vn 0.00000 -1.00000 0.00000
vn 0.00000 0.00000 -1.00000
vn 0.00000 0.00000 -1.00000
vn 0.00000 0.00000 -1.00000
vn 0.00000 0.00000 -1.00000
vn 0.00000 0.00000 -1.00000
vn 0.00000 0.00000 -1.00000
vn 0.00000 0.00000 1.00000
vn 0.00000 0.00000 1.00000
vn 0.00000 0.00000 1.00000
vn 0.00000 0.00000 1.00000
vn 0.00000 0.00000 1.00000
vn 0.00000 0.00000 1.00000
f 1/1/1 2/2/2 3/3/3
f 4/4/4 5/5/5 6/6/6
f 7/7/7 8/8/8 9/9/9
f 10/10/10 11/11/11 12/12/12
f 13/13/13 14/14/14 15/15/15
f 16/16/16 17/17/17 18/18/18
f 19/19/19 20/20/20 21/21/21
f 22/22/22 23/23/23 24/24/24
f 25/25/25 26/26/26 27/27/27
f 28/28/28 29/29/29 30/30/30
f 31/31/31 32/32/32 33/33/33
f 34/34/34 35/35/35 36/36/36
