# rail_c_clamp_1_top_jaw.obj: metric frame, metres
v -1.806699 1.284000 0.746300
v -1.806699 1.284000 0.758300
v -1.806699 1.364000 0.758300
v -1.806699 1.284000 0.746300
v -1.806699 1.364000 0.758300
v -1.806699 1.364000 0.746300
v -1.806699 1.364000 0.746300
v -1.806699 1.364000 0.758300
v -1.782699 1.364000 0.758300
v -1.806699 1.364000 0.746300
v -1.782699 1.364000 0.758300
v -1.782699 1.364000 0.746300
v -1.782699 1.364000 0.746300
v -1.782699 1.364000 0.758300
v -1.782699 1.284000 0.758300
v -1.782699 1.364000 0.746300
v -1.782699 1.284000 0.758300
v -1.782699 1.284000 0.746300
v -1.782699 1.284000 0.746300
v -1.782699 1.284000 0.758300
v -1.806699 1.284000 0.758300
v -1.782699 1.284000 0.746300
v -1.806699 1.284000 0.758300
v -1.806699 1.284000 0.746300
v -1.806699 1.364000 0.746300
v -1.782699 1.364000 0.746300
v -1.782699 1.284000 0.746300
v -1.806699 1.364000 0.746300
v -1.782699 1.284000 0.746300
v -1.806699 1.284000 0.746300
v -1.782699 1.364000 0.758300
v -1.806699 1.364000 0.758300
v -1.806699 1.284000 0.758300
v -1.782699 1.364000 0.758300
v -1.806699 1.284000 0.758300
v -1.782699 1.284000 0.758300
vt 0.712428 0.944994
vt 0.570809 0.944994
vt 0.570809 0.000865
vt 0.712428 0.944994
vt 0.570809 0.000865
vt 0.712428 0.000865
vt 0.999134 0.284103
vt 0.857514 0.284103
vt 0.857514 0.000865
vt 0.999134 0.284103
vt 0.857514 0.000865
vt 0.999134 0.000865
vt 0.855781 0.944994
vt 0.714162 0.944994
vt 0.714162 0.000865
vt 0.855781 0.944994
vt 0.714162 0.000865
vt 0.855781 0.000865
vt 0.999134 0.569075
vt 0.857514 0.569075
vt 0.857514 0.285837
vt 0.999134 0.569075
vt 0.857514 0.285837
vt 0.999134 0.285837
vt 0.284105 0.944996
vt 0.000867 0.944996
vt 0.000867 0.000867
vt 0.284105 0.944996
vt 0.000867 0.000867
vt 0.284105 0.000867
vt 0.569076 0.944996
vt 0.285838 0.944996
vt 0.285838 0.000867
vt 0.569076 0.944996
vt 0.285838 0.000867
vt 0.569076 0.000867
vn -1.00000 0.00000 0.00000
vn -1.00000 0.00000 0.00000
vn -1.00000 0.00000 0.00000
vn -1.00000 0.00000 0.00000
vn -1.00000 0.00000 0.00000
vn -1.00000 0.00000 0.00000
vn 0.00000 1.00000 0.00000
vn 0.00000 1.00000 0.00000
vn 0.00000 1.00000 0.00000
vn 0.00000 1.00000 0.00000
vn 0.00000 1.00000 0.00000
vn 0.00000 1.00000 0.00000
vn 1.00000 0.00000 0.00000
vn 1.00000 0.00000 0.00000
vn 1.00000 0.00000 0.00000
vn 1.00000 0.00000 0.00000
vn 1.00000 0.00000 0.00000
vn 1.00000 0.00000 0.00000
vn 0.00000 -1.00000 0.00000
vn 0.00000 -1.00000 0.00000
vn 0.00000 -1.00000 0.00000
vn 0.00000 -1.00000 0.00000
vn 0.00000 -1.00000 0.00000
vn 0.00000 -1.00000 0.00000
vn 0.00000 0.00000 -1.00000
vn 0.00000 0.00000 -1.00000
vn 0.00000 0.00000 -1.00000
vn 0.00000 0.00000 -1.00000
vn 0.00000 0.00000 -1.00000
vn 0.00000 0.00000 -1.00000
vn 0.00000 0.00000 1.00000
vn 0.00000 0.00000 1.00000
vn 0.00000 0.00000 1.00000
vn 0.00000 0.00000 1.00000
vn 0.00000 0.00000 1.00000
vn 0.00000 0.00000 1.00000
f 1/1/1 2/2/2 3/3/3
f 4/4/4 5/5/5 6/6/6
f 7/7/7 8/8/8 9/9/9
f 10/10/10 11/11/11 12/12/12
f 13/13/13 14/14/14 15/15/15
f 16/16/16 17/17/17 18/18/18
f 19/19/19 20/20/20 21/21/21
f 22/22/22 23/23/23 24/24/24
f 25/25/25 26/26/26 27/27/27
f 28/28/28 29/29/29 30/30/30
f 31/31/31 32/32/32 33/33/33
f 34/34/34 35/35/35 36/36/36
