# rail_c_clamp_1_spine.obj: metric frame, metres
v -1.806699 1.284000 0.630000
v -1.806699 1.284000 0.758300
v -1.806699 1.302000 0.758300
v -1.806699 1.284000 0.630000
v -1.806699 1.302000 0.758300
v -1.806699 1.302000 0.630000
v -1.806699 1.302000 0.630000
v -1.806699 1.302000 0.758300
v -1.782699 1.302000 0.758300
v -1.806699 1.302000 0.630000
v -1.782699 1.302000 0.758300
v -1.782699 1.302000 0.630000
v -1.782699 1.302000 0.630000
v -1.782699 1.302000 0.758300
v -1.782699 1.284000 0.758300
v -1.782699 1.302000 0.630000
v -1.782699 1.284000 0.758300
v -1.782699 1.284000 0.630000
v -1.782699 1.284000 0.630000
v -1.782699 1.284000 0.758300
v -1.806699 1.284000 0.758300
v -1.782699 1.284000 0.630000
v -1.806699 1.284000 0.758300
v -1.806699 1.284000 0.630000
v -1.806699 1.302000 0.630000
v -1.782699 1.302000 0.630000
v -1.782699 1.284000 0.630000
v -1.806699 1.302000 0.630000
v -1.782699 1.284000 0.630000
v -1.806699 1.284000 0.630000
v -1.782699 1.302000 0.758300
v -1.806699 1.302000 0.758300
v -1.806699 1.284000 0.758300
v -1.782699 1.302000 0.758300
v -1.806699 1.284000 0.758300
v -1.782699 1.284000 0.758300
vt 0.377413 0.999226
vt 0.377413 0.000774
vt 0.517492 0.000774
vt 0.377413 0.999226
vt 0.517492 0.000774
vt 0.517492 0.999226
vt 0.000774 0.999226
vt 0.000774 0.000774
vt 0.187545 0.000774
vt 0.000774 0.999226
vt 0.187545 0.000774
vt 0.187545 0.999226
vt 0.519040 0.999226
vt 0.519040 0.000774
vt 0.659119 0.000774
vt 0.519040 0.999226
vt 0.659119 0.000774
vt 0.659119 0.999226
vt 0.189093 0.999226
vt 0.189093 0.000774
vt 0.375865 0.000774
vt 0.189093 0.999226
vt 0.375865 0.000774
vt 0.375865 0.999226
vt 0.800746 0.000774
vt 0.800746 0.187545
vt 0.660667 0.187545
vt 0.800746 0.000774
vt 0.660667 0.187545
vt 0.660667 0.000774
vt 0.800746 0.189094
vt 0.800746 0.375865
vt 0.660667 0.375865
vt 0.800746 0.189094
vt 0.660667 0.375865
vt 0.660667 0.189094
vn -1.00000 0.00000 0.00000
vn -1.00000 0.00000 0.00000
vn -1.00000 0.00000 0.00000
vn -1.00000 0.00000 0.00000
vn -1.00000 0.00000 0.00000
vn -1.00000 0.00000 0.00000
vn 0.00000 1.00000 0.00000
vn 0.00000 1.00000 0.00000
vn 0.00000 1.00000 0.00000
vn 0.00000 1.00000 0.00000
vn 0.00000 1.00000 0.00000
vn 0.00000 1.00000 0.00000
vn 1.00000 0.00000 0.00000
vn 1.00000 0.00000 0.00000
vn 1.00000 0.00000 0.00000
vn 1.00000 0.00000 0.00000
vn 1.00000 0.00000 0.00000
vn 1.00000 0.00000 0.00000
vn 0.00000 -1.00000 0.00000
vn 0.00000 -1.00000 0.00000
vn 0.00000 -1.00000 0.00000
vn 0.00000 -1.00000 0.00000
vn 0.00000 -1.00000 0.00000
vn 0.00000 -1.00000 0.00000
vn 0.00000 0.00000 -1.00000
vn 0.00000 0.00000 -1.00000
vn 0.00000 0.00000 -1.00000
vn 0.00000 0.00000 -1.00000
vn 0.00000 0.00000 -1.00000
vn 0.00000 0.00000 -1.00000
vn 0.00000 0.00000 1.00000
vn 0.00000 0.00000 1.00000
vn 0.00000 0.00000 1.00000
vn 0.00000 0.00000 1.00000
vn 0.00000 0.00000 1.00000
vn 0.00000 0.00000 1.00000
f 1/1/1 2/2/2 3/3/3
f 4/4/4 5/5/5 6/6/6
f 7/7/7 8/8/8 9/9/9
f 10/10/10 11/11/11 12/12/12
f 13/13/13 14/14/14 15/15/15
f 16/16/16 17/17/17 18/18/18
f 19/19/19 20/20/20 21/21/21
f 22/22/22 23/23/23 24/24/24
f 25/25/25 26/26/26 27/27/27
f 28/28/28 29/29/29 30/30/30
f 31/31/31 32/32/32 33/33/33
f 34/34/34 35/35/35 36/36/36
