# rail_right_arm_adapter_plate.obj: metric frame, metres
v -2.079704 1.319000 0.738300
v -2.079704 1.319000 0.742564
v -2.079704 1.429000 0.742564
v -2.079704 1.319000 0.738300
v -2.079704 1.429000 0.742564
v -2.079704 1.429000 0.738300
v -2.079704 1.429000 0.738300
v -2.079704 1.429000 0.742564
v -1.839704 1.429000 0.742564
v -2.079704 1.429000 0.738300
v -1.839704 1.429000 0.742564
v -1.839704 1.429000 0.738300
v -1.839704 1.429000 0.738300
v -1.839704 1.429000 0.742564
v -1.839704 1.319000 0.742564
v -1.839704 1.429000 0.738300
v -1.839704 1.319000 0.742564
v -1.839704 1.319000 0.738300
v -1.839704 1.319000 0.738300
v -1.839704 1.319000 0.742564
v -2.079704 1.319000 0.742564
v -1.839704 1.319000 0.738300
v -2.079704 1.319000 0.742564
v -2.079704 1.319000 0.738300
v -2.079704 1.429000 0.738300
v -1.839704 1.429000 0.738300
v -1.839704 1.319000 0.738300
v -2.079704 1.429000 0.738300
v -1.839704 1.319000 0.738300
v -2.079704 1.319000 0.738300
v -1.839704 1.429000 0.742564
v -2.079704 1.429000 0.742564
v -2.079704 1.319000 0.742564
v -1.839704 1.429000 0.742564
v -2.079704 1.319000 0.742564
v -1.839704 1.319000 0.742564
vt 0.975040 0.458393
vt 0.957301 0.458393
vt 0.957301 0.000719
vt 0.975040 0.458393
vt 0.957301 0.000719
vt 0.975040 0.000719
vt 0.936684 0.999280
vt 0.918945 0.999280
vt 0.918945 0.000719
vt 0.936684 0.999280
vt 0.918945 0.000719
vt 0.936684 0.000719
vt 0.975040 0.917505
vt 0.957301 0.917505
vt 0.957301 0.459831
vt 0.975040 0.917505
vt 0.957301 0.459831
vt 0.975040 0.459831
vt 0.955862 0.999280
vt 0.938123 0.999280
vt 0.938123 0.000719
vt 0.955862 0.999280
vt 0.938123 0.000719
vt 0.955862 0.000719
vt 0.458393 0.000719
vt 0.458393 0.999280
vt 0.000720 0.999280
vt 0.458393 0.000719
vt 0.000720 0.999280
vt 0.000720 0.000719
vt 0.917506 0.000719
vt 0.917506 0.999280
vt 0.459832 0.999280
vt 0.917506 0.000719
vt 0.459832 0.999280
vt 0.459832 0.000719
vn -1.00000 0.00000 0.00000
vn -1.00000 0.00000 0.00000
vn -1.00000 0.00000 0.00000
vn -1.00000 0.00000 0.00000
vn -1.00000 0.00000 0.00000
vn -1.00000 0.00000 0.00000
vn 0.00000 1.00000 0.00000
vn 0.00000 1.00000 0.00000
vn 0.00000 1.00000 0.00000
vn 0.00000 1.00000 0.00000
vn 0.00000 1.00000 0.00000
vn 0.00000 1.00000 0.00000
vn 1.00000 0.00000 0.00000
vn 1.00000 0.00000 0.00000
vn 1.00000 0.00000 0.00000
vn 1.00000 0.00000 0.00000
vn 1.00000 0.00000 0.00000
vn 1.00000 0.00000 0.00000
vn 0.00000 -1.00000 0.00000
vn 0.00000 -1.00000 0.00000
vn 0.00000 -1.00000 0.00000
vn 0.00000 -1.00000 0.00000
vn 0.00000 -1.00000 0.00000
vn 0.00000 -1.00000 0.00000
vn 0.00000 0.00000 -1.00000
vn 0.00000 0.00000 -1.00000
vn 0.00000 0.00000 -1.00000
vn 0.00000 0.00000 -1.00000
vn 0.00000 0.00000 -1.00000
vn 0.00000 0.00000 -1.00000
vn 0.00000 0.00000 1.00000
vn 0.00000 0.00000 1.00000
vn 0.00000 0.00000 1.00000
vn 0.00000 0.00000 1.00000
vn 0.00000 0.00000 1.00000
vn 0.00000 0.00000 1.00000
f 1/1/1 2/2/2 3/3/3
f 4/4/4 5/5/5 6/6/6
f 7/7/7 8/8/8 9/9/9
f 10/10/10 11/11/11 12/12/12
f 13/13/13 14/14/14 15/15/15
f 16/16/16 17/17/17 18/18/18
f 19/19/19 20/20/20 21/21/21
f 22/22/22 23/23/23 24/24/24
f 25/25/25 26/26/26 27/27/27
f 28/28/28 29/29/29 30/30/30
f 31/31/31 32/32/32 33/33/33
f 34/34/34 35/35/35 36/36/36
