# rig_desk_cross_beam.obj: metric frame, metres
v -2.928750 1.690000 0.620000
v -2.928750 1.690000 0.660000
v -2.928750 1.740000 0.660000
v -2.928750 1.690000 0.620000
v -2.928750 1.740000 0.660000
v -2.928750 1.740000 0.620000
v -2.928750 1.740000 0.620000
v -2.928750 1.740000 0.660000
v -1.648750 1.740000 0.660000
v -2.928750 1.740000 0.620000
v -1.648750 1.740000 0.660000
v -1.648750 1.740000 0.620000
v -1.648750 1.740000 0.620000
v -1.648750 1.740000 0.660000
v -1.648750 1.690000 0.660000
v -1.648750 1.740000 0.620000
v -1.648750 1.690000 0.660000
v -1.648750 1.690000 0.620000
v -1.648750 1.690000 0.620000
v -1.648750 1.690000 0.660000
v -2.928750 1.690000 0.660000
v -1.648750 1.690000 0.620000
v -2.928750 1.690000 0.660000
v -2.928750 1.690000 0.620000
v -2.928750 1.740000 0.620000
v -1.648750 1.740000 0.620000
v -1.648750 1.690000 0.620000
v -2.928750 1.740000 0.620000
v -1.648750 1.690000 0.620000
v -2.928750 1.690000 0.620000
v -1.648750 1.740000 0.660000
v -2.928750 1.740000 0.660000
v -2.928750 1.690000 0.660000
v -1.648750 1.740000 0.660000
v -2.928750 1.690000 0.660000
v -1.648750 1.690000 0.660000
vt 0.174708 0.039364
vt 0.143479 0.039364
vt 0.143479 0.000327
vt 0.174708 0.039364
vt 0.143479 0.000327
vt 0.174708 0.000327
vt 0.110940 0.999673
vt 0.079710 0.999673
vt 0.079710 0.000327
vt 0.110940 0.999673
vt 0.079710 0.000327
vt 0.110940 0.000327
vt 0.174708 0.079056
vt 0.143479 0.079056
vt 0.143479 0.040019
vt 0.174708 0.079056
vt 0.143479 0.040019
vt 0.174708 0.040019
vt 0.142824 0.999673
vt 0.111595 0.999673
vt 0.111595 0.000327
vt 0.142824 0.999673
vt 0.111595 0.000327
vt 0.142824 0.000327
vt 0.079056 0.000327
vt 0.079056 0.999673
vt 0.040019 0.999673
vt 0.079056 0.000327
vt 0.040019 0.999673
vt 0.040019 0.000327
vt 0.039364 0.000327
vt 0.039364 0.999673
vt 0.000327 0.999673
vt 0.039364 0.000327
vt 0.000327 0.999673
vt 0.000327 0.000327
vn -1.00000 0.00000 0.00000
vn -1.00000 0.00000 0.00000
vn -1.00000 0.00000 0.00000
vn -1.00000 0.00000 0.00000
vn -1.00000 0.00000 0.00000
vn -1.00000 0.00000 0.00000
vn 0.00000 1.00000 0.00000
vn 0.00000 1.00000 0.00000
vn 0.00000 1.00000 0.00000
vn 0.00000 1.00000 0.00000
vn 0.00000 1.00000 0.00000
vn 0.00000 1.00000 0.00000
vn 1.00000 0.00000 0.00000
vn 1.00000 0.00000 0.00000
vn 1.00000 0.00000 0.00000
vn 1.00000 0.00000 0.00000
vn 1.00000 0.00000 0.00000
vn 1.00000 0.00000 0.00000
vn 0.00000 -1.00000 0.00000
vn 0.00000 -1.00000 0.00000
vn 0.00000 -1.00000 0.00000
vn 0.00000 -1.00000 0.00000
vn 0.00000 -1.00000 0.00000
vn 0.00000 -1.00000 0.00000
vn 0.00000 0.00000 -1.00000
vn 0.00000 0.00000 -1.00000
vn 0.00000 0.00000 -1.00000
vn 0.00000 0.00000 -1.00000
vn 0.00000 0.00000 -1.00000
vn 0.00000 0.00000 -1.00000
vn 0.00000 0.00000 1.00000
vn 0.00000 0.00000 1.00000
vn 0.00000 0.00000 1.00000
vn 0.00000 0.00000 1.00000
vn 0.00000 0.00000 1.00000
vn 0.00000 0.00000 1.00000
f 1/1/1 2/2/2 3/3/3
f 4/4/4 5/5/5 6/6/6
f 7/7/7 8/8/8 9/9/9
f 10/10/10 11/11/11 12/12/12
f 13/13/13 14/14/14 15/15/15
f 16/16/16 17/17/17 18/18/18
f 19/19/19 20/20/20 21/21/21
f 22/22/22 23/23/23 24/24/24
f 25/25/25 26/26/26 27/27/27
f 28/28/28 29/29/29 30/30/30
f 31/31/31 32/32/32 33/33/33
f 34/34/34 35/35/35 36/36/36
