# rig_desk_panel_bracket_1.obj: metric frame, metres
v -3.070000 1.540000 0.620000
v -3.070000 1.540000 0.960000
v -3.070000 1.560000 0.960000
v -3.070000 1.540000 0.620000
v -3.070000 1.560000 0.960000
v -3.070000 1.560000 0.620000
v -3.070000 1.560000 0.620000
v -3.070000 1.560000 0.960000
v -3.062000 1.560000 0.960000
v -3.070000 1.560000 0.620000
v -3.062000 1.560000 0.960000
v -3.062000 1.560000 0.620000
v -3.062000 1.560000 0.620000
v -3.062000 1.560000 0.960000
v -3.062000 1.540000 0.960000
v -3.062000 1.560000 0.620000
v -3.062000 1.540000 0.960000
v -3.062000 1.540000 0.620000
v -3.062000 1.540000 0.620000
v -3.062000 1.540000 0.960000
v -3.070000 1.540000 0.960000
v -3.062000 1.540000 0.620000
v -3.070000 1.540000 0.960000
v -3.070000 1.540000 0.620000
v -3.070000 1.560000 0.620000
v -3.062000 1.560000 0.620000
v -3.062000 1.540000 0.620000
v -3.070000 1.560000 0.620000
v -3.062000 1.540000 0.620000
v -3.070000 1.540000 0.620000
v -3.062000 1.560000 0.960000
v -3.070000 1.560000 0.960000
v -3.070000 1.540000 0.960000
v -3.062000 1.560000 0.960000
v -3.070000 1.540000 0.960000
v -3.062000 1.540000 0.960000
vt 0.000346 0.999654
vt 0.000346 0.000346
vt 0.059129 0.000346
vt 0.000346 0.999654
vt 0.059129 0.000346
vt 0.059129 0.999654
vt 0.119297 0.999654
vt 0.119297 0.000346
vt 0.142810 0.000346
vt 0.119297 0.999654
vt 0.142810 0.000346
vt 0.142810 0.999654
vt 0.059822 0.999654
vt 0.059822 0.000346
vt 0.118604 0.000346
vt 0.059822 0.999654
vt 0.118604 0.000346
vt 0.118604 0.999654
vt 0.143502 0.999654
vt 0.143502 0.000346
vt 0.167015 0.000346
vt 0.143502 0.999654
vt 0.167015 0.000346
vt 0.167015 0.999654
vt 0.191220 0.059129
vt 0.167707 0.059129
vt 0.167707 0.000346
vt 0.191220 0.059129
vt 0.167707 0.000346
vt 0.191220 0.000346
vt 0.191220 0.118604
vt 0.167707 0.118604
vt 0.167707 0.059822
vt 0.191220 0.118604
vt 0.167707 0.059822
vt 0.191220 0.059822
vn -1.00000 0.00000 0.00000
vn -1.00000 0.00000 0.00000
vn -1.00000 0.00000 0.00000
vn -1.00000 0.00000 0.00000
vn -1.00000 0.00000 0.00000
vn -1.00000 0.00000 0.00000
vn 0.00000 1.00000 0.00000
vn 0.00000 1.00000 0.00000
vn 0.00000 1.00000 0.00000
vn 0.00000 1.00000 0.00000
vn 0.00000 1.00000 0.00000
vn 0.00000 1.00000 0.00000
vn 1.00000 0.00000 0.00000
vn 1.00000 0.00000 0.00000
vn 1.00000 0.00000 0.00000
vn 1.00000 0.00000 0.00000
vn 1.00000 0.00000 0.00000
vn 1.00000 0.00000 0.00000
vn 0.00000 -1.00000 0.00000
vn 0.00000 -1.00000 0.00000
vn 0.00000 -1.00000 0.00000
vn 0.00000 -1.00000 0.00000
vn 0.00000 -1.00000 0.00000
vn 0.00000 -1.00000 0.00000
vn 0.00000 0.00000 -1.00000
vn 0.00000 0.00000 -1.00000
vn 0.00000 0.00000 -1.00000
vn 0.00000 0.00000 -1.00000
vn 0.00000 0.00000 -1.00000
vn 0.00000 0.00000 -1.00000
vn 0.00000 0.00000 1.00000
vn 0.00000 0.00000 1.00000
vn 0.00000 0.00000 1.00000
vn 0.00000 0.00000 1.00000
vn 0.00000 0.00000 1.00000
vn 0.00000 0.00000 1.00000
f 1/1/1 2/2/2 3/3/3
f 4/4/4 5/5/5 6/6/6
f 7/7/7 8/8/8 9/9/9
f 10/10/10 11/11/11 12/12/12
f 13/13/13 14/14/14 15/15/15
f 16/16/16 17/17/17 18/18/18
f 19/19/19 20/20/20 21/21/21
f 22/22/22 23/23/23 24/24/24
f 25/25/25 26/26/26 27/27/27
f 28/28/28 29/29/29 30/30/30
f 31/31/31 32/32/32 33/33/33
f 34/34/34 35/35/35 36/36/36
