# rig_desk_top_bracket_1.obj: metric frame, metres
v -1.673750 1.383922 0.660000
v -1.673750 1.383922 0.695000
v -1.673750 2.023922 0.695000
v -1.673750 1.383922 0.660000
v -1.673750 2.023922 0.695000
v -1.673750 2.023922 0.660000
v -1.673750 2.023922 0.660000
v -1.673750 2.023922 0.695000
v -1.623750 2.023922 0.695000
v -1.673750 2.023922 0.660000
v -1.623750 2.023922 0.695000
v -1.623750 2.023922 0.660000
v -1.623750 2.023922 0.660000
v -1.623750 2.023922 0.695000
v -1.623750 1.383922 0.695000
v -1.623750 2.023922 0.660000
v -1.623750 1.383922 0.695000
v -1.623750 1.383922 0.660000
v -1.623750 1.383922 0.660000
v -1.623750 1.383922 0.695000
v -1.673750 1.383922 0.695000
v -1.623750 1.383922 0.660000
v -1.673750 1.383922 0.695000
v -1.673750 1.383922 0.660000
v -1.673750 2.023922 0.660000
v -1.623750 2.023922 0.660000
v -1.623750 1.383922 0.660000
v -1.673750 2.023922 0.660000
v -1.623750 1.383922 0.660000
v -1.673750 1.383922 0.660000
v -1.623750 2.023922 0.695000
v -1.673750 2.023922 0.695000
v -1.673750 1.383922 0.695000
v -1.623750 2.023922 0.695000
v -1.673750 1.383922 0.695000
v -1.623750 1.383922 0.695000
vt 0.213055 0.999538
vt 0.158419 0.999538
vt 0.158419 0.000463
vt 0.213055 0.999538
vt 0.158419 0.000463
vt 0.213055 0.000463
vt 0.324179 0.078515
vt 0.269543 0.078515
vt 0.269543 0.000462
vt 0.324179 0.078515
vt 0.269543 0.000462
vt 0.324179 0.000462
vt 0.268617 0.999537
vt 0.213980 0.999537
vt 0.213981 0.000462
vt 0.268617 0.999537
vt 0.213981 0.000462
vt 0.268617 0.000462
vt 0.324179 0.157493
vt 0.269543 0.157493
vt 0.269543 0.079440
vt 0.324179 0.157493
vt 0.269543 0.079440
vt 0.324179 0.079440
vt 0.078515 0.999538
vt 0.000462 0.999538
vt 0.000462 0.000463
vt 0.078515 0.999538
vt 0.000462 0.000463
vt 0.078515 0.000463
vt 0.157493 0.999538
vt 0.079441 0.999538
vt 0.079441 0.000463
vt 0.157493 0.999538
vt 0.079441 0.000463
vt 0.157493 0.000463
vn -1.00000 0.00000 0.00000
vn -1.00000 0.00000 0.00000
vn -1.00000 0.00000 0.00000
vn -1.00000 0.00000 0.00000
vn -1.00000 0.00000 0.00000
vn -1.00000 0.00000 0.00000
vn 0.00000 1.00000 0.00000
vn 0.00000 1.00000 0.00000
vn 0.00000 1.00000 0.00000
vn 0.00000 1.00000 0.00000
vn 0.00000 1.00000 0.00000
vn 0.00000 1.00000 0.00000
vn 1.00000 0.00000 0.00000
vn 1.00000 0.00000 0.00000
vn 1.00000 0.00000 0.00000
vn 1.00000 0.00000 0.00000
vn 1.00000 0.00000 0.00000
vn 1.00000 0.00000 0.00000
vn 0.00000 -1.00000 0.00000
vn 0.00000 -1.00000 0.00000
vn 0.00000 -1.00000 0.00000
vn 0.00000 -1.00000 0.00000
vn 0.00000 -1.00000 0.00000
vn 0.00000 -1.00000 0.00000
vn 0.00000 0.00000 -1.00000
vn 0.00000 0.00000 -1.00000
vn 0.00000 0.00000 -1.00000
vn 0.00000 0.00000 -1.00000
vn 0.00000 0.00000 -1.00000
vn 0.00000 0.00000 -1.00000
vn 0.00000 0.00000 1.00000
vn 0.00000 0.00000 1.00000
vn 0.00000 0.00000 1.00000
vn 0.00000 0.00000 1.00000
vn 0.00000 0.00000 1.00000
vn 0.00000 0.00000 1.00000
f 1/1/1 2/2/2 3/3/3
f 4/4/4 5/5/5 6/6/6
f 7/7/7 8/8/8 9/9/9
f 10/10/10 11/11/11 12/12/12
f 13/13/13 14/14/14 15/15/15
f 16/16/16 17/17/17 18/18/18
f 19/19/19 20/20/20 21/21/21
f 22/22/22 23/23/23 24/24/24
f 25/25/25 26/26/26 27/27/27
f 28/28/28 29/29/29 30/30/30
f 31/31/31 32/32/32 33/33/33
f 34/34/34 35/35/35 36/36/36
