# rig_desk_top.obj: metric frame, metres
v -3.048750 1.323922 0.695000
v -3.048750 1.323922 0.720000
v -3.048750 2.083922 0.720000
v -3.048750 1.323922 0.695000
v -3.048750 2.083922 0.720000
v -3.048750 2.083922 0.695000
v -3.048750 2.083922 0.695000
v -3.048750 2.083922 0.720000
v -1.528750 2.083922 0.720000
v -3.048750 2.083922 0.695000
v -1.528750 2.083922 0.720000
v -1.528750 2.083922 0.695000
v -1.528750 2.083922 0.695000
v -1.528750 2.083922 0.720000
v -1.528750 1.323922 0.720000
v -1.528750 2.083922 0.695000
v -1.528750 1.323922 0.720000
v -1.528750 1.323922 0.695000
v -1.528750 1.323922 0.695000
v -1.528750 1.323922 0.720000
v -3.048750 1.323922 0.720000
v -1.528750 1.323922 0.695000
v -3.048750 1.323922 0.720000
v -3.048750 1.323922 0.695000
v -3.048750 2.083922 0.695000
v -1.528750 2.083922 0.695000
v -1.528750 1.323922 0.695000
v -3.048750 2.083922 0.695000
v -1.528750 1.323922 0.695000
v -3.048750 1.323922 0.695000
v -1.528750 2.083922 0.720000
v -3.048750 2.083922 0.720000
v -3.048750 1.323922 0.720000
v -1.528750 2.083922 0.720000
v -3.048750 1.323922 0.720000
v -1.528750 1.323922 0.720000
vt 0.999299 0.473849
vt 0.983735 0.473849
vt 0.983735 0.000701
vt 0.999299 0.473849
vt 0.983735 0.000701
vt 0.999299 0.000701
vt 0.965366 0.946998
vt 0.949802 0.946998
vt 0.949802 0.000701
vt 0.965366 0.946998
vt 0.949802 0.000701
vt 0.965366 0.000701
vt 0.999299 0.948400
vt 0.983735 0.948400
vt 0.983735 0.475251
vt 0.999299 0.948400
vt 0.983735 0.475251
vt 0.999299 0.475251
vt 0.982333 0.946998
vt 0.966769 0.946998
vt 0.966769 0.000701
vt 0.982333 0.946998
vt 0.966769 0.000701
vt 0.982333 0.000701
vt 0.948400 0.000701
vt 0.948400 0.946998
vt 0.475252 0.946998
vt 0.948400 0.000701
vt 0.475252 0.946998
vt 0.475252 0.000701
vt 0.473849 0.000701
vt 0.473849 0.946998
vt 0.000701 0.946998
vt 0.473849 0.000701
vt 0.000701 0.946998
vt 0.000701 0.000701
vn -1.00000 0.00000 0.00000
vn -1.00000 0.00000 0.00000
vn -1.00000 0.00000 0.00000
vn -1.00000 0.00000 0.00000
vn -1.00000 0.00000 0.00000
vn -1.00000 0.00000 0.00000
vn 0.00000 1.00000 0.00000
vn 0.00000 1.00000 0.00000
vn 0.00000 1.00000 0.00000
vn 0.00000 1.00000 0.00000
vn 0.00000 1.00000 0.00000
vn 0.00000 1.00000 0.00000
vn 1.00000 0.00000 0.00000
vn 1.00000 0.00000 0.00000
vn 1.00000 0.00000 0.00000
vn 1.00000 0.00000 0.00000
vn 1.00000 0.00000 0.00000
vn 1.00000 0.00000 0.00000
vn 0.00000 -1.00000 0.00000
vn 0.00000 -1.00000 0.00000
vn 0.00000 -1.00000 0.00000
vn 0.00000 -1.00000 0.00000
vn 0.00000 -1.00000 0.00000
vn 0.00000 -1.00000 0.00000
vn 0.00000 0.00000 -1.00000
vn 0.00000 0.00000 -1.00000
vn 0.00000 0.00000 -1.00000
vn 0.00000 0.00000 -1.00000
vn 0.00000 0.00000 -1.00000
vn 0.00000 0.00000 -1.00000
vn 0.00000 0.00000 1.00000
vn 0.00000 0.00000 1.00000
vn 0.00000 0.00000 1.00000
vn 0.00000 0.00000 1.00000
vn 0.00000 0.00000 1.00000
vn 0.00000 0.00000 1.00000
f 1/1/1 2/2/2 3/3/3
f 4/4/4 5/5/5 6/6/6
f 7/7/7 8/8/8 9/9/9
f 10/10/10 11/11/11 12/12/12
f 13/13/13 14/14/14 15/15/15
f 16/16/16 17/17/17 18/18/18
f 19/19/19 20/20/20 21/21/21
f 22/22/22 23/23/23 24/24/24
f 25/25/25 26/26/26 27/27/27
f 28/28/28 29/29/29 30/30/30
f 31/31/31 32/32/32 33/33/33
f 34/34/34 35/35/35 36/36/36
