# side_wall_beige_left_of_the_door.obj: metric frame, metres
v -5.100000 0.500000 0.000000
v -5.100000 0.500000 2.750000
v -5.100000 1.250000 2.750000
v -5.100000 0.500000 0.000000
v -5.100000 1.250000 2.750000
v -5.100000 1.250000 0.000000
v -5.100000 1.250000 0.000000
v -5.100000 1.250000 2.750000
v -4.980000 1.250000 2.750000
v -5.100000 1.250000 0.000000
v -4.980000 1.250000 2.750000
v -4.980000 1.250000 0.000000
v -4.980000 1.250000 0.000000
v -4.980000 1.250000 2.750000
v -4.980000 0.500000 2.750000
v -4.980000 1.250000 0.000000
v -4.980000 0.500000 2.750000
v -4.980000 0.500000 0.000000
v -4.980000 0.500000 0.000000
v -4.980000 0.500000 2.750000
v -5.100000 0.500000 2.750000
v -4.980000 0.500000 0.000000
v -5.100000 0.500000 2.750000
v -5.100000 0.500000 0.000000
v -5.100000 1.250000 0.000000
v -4.980000 1.250000 0.000000
v -4.980000 0.500000 0.000000
v -5.100000 1.250000 0.000000
v -4.980000 0.500000 0.000000
v -5.100000 0.500000 0.000000
v -4.980000 1.250000 2.750000
v -5.100000 1.250000 2.750000
v -5.100000 0.500000 2.750000
v -4.980000 1.250000 2.750000
v -5.100000 0.500000 2.750000
v -4.980000 0.500000 2.750000
vt 0.000671 0.999329
vt 0.000671 0.000671
vt 0.273032 0.000671
vt 0.000671 0.999329
vt 0.273032 0.000671
vt 0.273032 0.999329
vt 0.548079 0.999329
vt 0.548079 0.000671
vt 0.591656 0.000671
vt 0.548079 0.999329
vt 0.591656 0.000671
vt 0.591656 0.999329
vt 0.274375 0.999329
vt 0.274375 0.000671
vt 0.546736 0.000671
vt 0.274375 0.999329
vt 0.546736 0.000671
vt 0.546736 0.999329
vt 0.592999 0.999329
vt 0.592999 0.000671
vt 0.636577 0.000671
vt 0.592999 0.999329
vt 0.636577 0.000671
vt 0.636577 0.999329
vt 0.681497 0.273032
vt 0.637919 0.273032
vt 0.637919 0.000671
vt 0.681497 0.273032
vt 0.637919 0.000671
vt 0.681497 0.000671
vt 0.681497 0.546736
vt 0.637919 0.546736
vt 0.637919 0.274375
vt 0.681497 0.546736
vt 0.637919 0.274375
vt 0.681497 0.274375
vn -1.00000 0.00000 0.00000
vn -1.00000 0.00000 0.00000
vn -1.00000 0.00000 0.00000
vn -1.00000 0.00000 0.00000
vn -1.00000 0.00000 0.00000
vn -1.00000 0.00000 0.00000
vn 0.00000 1.00000 0.00000
vn 0.00000 1.00000 0.00000
vn 0.00000 1.00000 0.00000
vn 0.00000 1.00000 0.00000
vn 0.00000 1.00000 0.00000
vn 0.00000 1.00000 0.00000
vn 1.00000 0.00000 0.00000
vn 1.00000 0.00000 0.00000
vn 1.00000 0.00000 0.00000
vn 1.00000 0.00000 0.00000
vn 1.00000 0.00000 0.00000
vn 1.00000 0.00000 0.00000
vn 0.00000 -1.00000 0.00000
vn 0.00000 -1.00000 0.00000
vn 0.00000 -1.00000 0.00000
vn 0.00000 -1.00000 0.00000
vn 0.00000 -1.00000 0.00000
vn 0.00000 -1.00000 0.00000
vn 0.00000 0.00000 -1.00000
vn 0.00000 0.00000 -1.00000
vn 0.00000 0.00000 -1.00000
vn 0.00000 0.00000 -1.00000
vn 0.00000 0.00000 -1.00000
vn 0.00000 0.00000 -1.00000
vn 0.00000 0.00000 1.00000
vn 0.00000 0.00000 1.00000
vn 0.00000 0.00000 1.00000
vn 0.00000 0.00000 1.00000
vn 0.00000 0.00000 1.00000
vn 0.00000 0.00000 1.00000
f 1/1/1 2/2/2 3/3/3
f 4/4/4 5/5/5 6/6/6
f 7/7/7 8/8/8 9/9/9
f 10/10/10 11/11/11 12/12/12
f 13/13/13 14/14/14 15/15/15
f 16/16/16 17/17/17 18/18/18
f 19/19/19 20/20/20 21/21/21
f 22/22/22 23/23/23 24/24/24
f 25/25/25 26/26/26 27/27/27
f 28/28/28 29/29/29 30/30/30
f 31/31/31 32/32/32 33/33/33
f 34/34/34 35/35/35 36/36/36
