# zed_x_scene_camera_mount_bracket.obj: metric frame, metres
v -2.295900 1.415400 1.644511
v -2.295900 1.415400 1.700000
v -2.295900 1.471739 1.700000
v -2.295900 1.415400 1.644511
v -2.295900 1.471739 1.700000
v -2.295900 1.471739 1.644511
v -2.295900 1.471739 1.644511
v -2.295900 1.471739 1.700000
v -2.255900 1.471739 1.700000
v -2.295900 1.471739 1.644511
v -2.255900 1.471739 1.700000
v -2.255900 1.471739 1.644511
v -2.255900 1.471739 1.644511
v -2.255900 1.471739 1.700000
v -2.255900 1.415400 1.700000
v -2.255900 1.471739 1.644511
v -2.255900 1.415400 1.700000
v -2.255900 1.415400 1.644511
v -2.255900 1.415400 1.644511
v -2.255900 1.415400 1.700000
v -2.295900 1.415400 1.700000
v -2.255900 1.415400 1.644511
v -2.295900 1.415400 1.700000
v -2.295900 1.415400 1.644511
v -2.295900 1.471739 1.644511
v -2.255900 1.471739 1.644511
v -2.255900 1.415400 1.644511
v -2.295900 1.471739 1.644511
v -2.255900 1.415400 1.644511
v -2.295900 1.415400 1.644511
v -2.255900 1.471739 1.700000
v -2.295900 1.471739 1.700000
v -2.295900 1.415400 1.700000
v -2.255900 1.471739 1.700000
v -2.295900 1.415400 1.700000
v -2.255900 1.415400 1.700000
vt 0.366573 0.372174
vt 0.000794 0.372174
vt 0.000794 0.000794
vt 0.366573 0.372174
vt 0.000794 0.000794
vt 0.366573 0.000794
vt 0.735526 0.366573
vt 0.735526 0.000793
vt 0.999205 0.000793
vt 0.735526 0.366573
vt 0.999205 0.000793
vt 0.999205 0.366573
vt 0.733940 0.372174
vt 0.368161 0.372174
vt 0.368161 0.000794
vt 0.733940 0.372174
vt 0.368161 0.000794
vt 0.733940 0.000794
vt 0.735528 0.733940
vt 0.735528 0.368160
vt 0.999207 0.368160
vt 0.735528 0.733940
vt 0.999207 0.368160
vt 0.999207 0.733940
vt 0.264473 0.745141
vt 0.000794 0.745141
vt 0.000794 0.373761
vt 0.264473 0.745141
vt 0.000794 0.373761
vt 0.264473 0.373761
vt 0.529737 0.745141
vt 0.266058 0.745141
vt 0.266058 0.373761
vt 0.529737 0.745141
vt 0.266058 0.373761
vt 0.529737 0.373761
vn -1.00000 0.00000 0.00000
vn -1.00000 0.00000 0.00000
vn -1.00000 0.00000 0.00000
vn -1.00000 0.00000 0.00000
vn -1.00000 0.00000 0.00000
vn -1.00000 0.00000 0.00000
vn 0.00000 1.00000 0.00000
vn 0.00000 1.00000 0.00000
vn 0.00000 1.00000 0.00000
vn 0.00000 1.00000 0.00000
vn 0.00000 1.00000 0.00000
vn 0.00000 1.00000 0.00000
vn 1.00000 0.00000 0.00000
vn 1.00000 0.00000 0.00000
vn 1.00000 0.00000 0.00000
vn 1.00000 0.00000 0.00000
vn 1.00000 0.00000 0.00000
vn 1.00000 0.00000 0.00000
vn 0.00000 -1.00000 0.00000
vn 0.00000 -1.00000 0.00000
vn 0.00000 -1.00000 0.00000
vn 0.00000 -1.00000 0.00000
vn 0.00000 -1.00000 0.00000
vn 0.00000 -1.00000 0.00000
vn 0.00000 0.00000 -1.00000
vn 0.00000 0.00000 -1.00000
vn 0.00000 0.00000 -1.00000
vn 0.00000 0.00000 -1.00000
vn 0.00000 0.00000 -1.00000
vn 0.00000 0.00000 -1.00000
vn 0.00000 0.00000 1.00000
vn 0.00000 0.00000 1.00000
vn 0.00000 0.00000 1.00000
vn 0.00000 0.00000 1.00000
vn 0.00000 0.00000 1.00000
vn 0.00000 0.00000 1.00000
f 1/1/1 2/2/2 3/3/3
f 4/4/4 5/5/5 6/6/6
f 7/7/7 8/8/8 9/9/9
f 10/10/10 11/11/11 12/12/12
f 13/13/13 14/14/14 15/15/15
f 16/16/16 17/17/17 18/18/18
f 19/19/19 20/20/20 21/21/21
f 22/22/22 23/23/23 24/24/24
f 25/25/25 26/26/26 27/27/27
f 28/28/28 29/29/29 30/30/30
f 31/31/31 32/32/32 33/33/33
f 34/34/34 35/35/35 36/36/36
