# zed_x_scene_camera_body.obj: metric frame, metres
v -2.307456 1.485294 1.643494
v -2.307396 1.489602 1.645084
v -2.310898 1.489560 1.644113
v -2.307456 1.485294 1.643494
v -2.310898 1.489560 1.644113
v -2.311743 1.486489 1.642363
v -2.307466 1.493773 1.643165
v -2.311750 1.492484 1.642130
v -2.310898 1.489560 1.644113
v -2.307466 1.493773 1.643165
v -2.310898 1.489560 1.644113
v -2.307396 1.489602 1.645084
v -2.313614 1.489370 1.639315
v -2.311743 1.486489 1.642363
v -2.310898 1.489560 1.644113
v -2.313614 1.489370 1.639315
v -2.310898 1.489560 1.644113
v -2.311750 1.492484 1.642130
v -2.308222 1.512787 1.622625
v -2.308381 1.514379 1.618320
v -2.311842 1.513279 1.618492
v -2.308222 1.512787 1.622625
v -2.311842 1.513279 1.618492
v -2.312506 1.511499 1.621590
v -2.308537 1.512458 1.614152
v -2.312729 1.511266 1.615599
v -2.311842 1.513279 1.618492
v -2.308537 1.512458 1.614152
v -2.311842 1.513279 1.618492
v -2.308381 1.514379 1.618320
v -2.314370 1.508385 1.618776
v -2.312506 1.511499 1.621590
v -2.311842 1.513279 1.618492
v -2.314370 1.508385 1.618776
v -2.311842 1.513279 1.618492
v -2.312729 1.511266 1.615599
v -2.308294 1.461070 1.621100
v -2.312582 1.462265 1.619968
v -2.311913 1.460251 1.617018
v -2.308294 1.461070 1.621100
v -2.311913 1.460251 1.617018
v -2.308450 1.459149 1.616932
v -2.314452 1.465147 1.616921
v -2.312804 1.462032 1.613977
v -2.311913 1.460251 1.617018
v -2.314452 1.465147 1.616921
v -2.311913 1.460251 1.617018
v -2.312582 1.462265 1.619968
v -2.308609 1.460741 1.612627
v -2.308450 1.459149 1.616932
v -2.311913 1.460251 1.617018
v -2.308609 1.460741 1.612627
v -2.311913 1.460251 1.617018
v -2.312804 1.462032 1.613977
v -2.309375 1.488234 1.591758
v -2.309435 1.483926 1.590168
v -2.312856 1.483970 1.591396
v -2.309375 1.488234 1.591758
v -2.312856 1.483970 1.591396
v -2.313567 1.487042 1.593204
v -2.309365 1.479755 1.592087
v -2.313560 1.481046 1.593437
v -2.312856 1.483970 1.591396
v -2.309365 1.479755 1.592087
v -2.312856 1.483970 1.591396
v -2.309435 1.483926 1.590168
v -2.315209 1.484161 1.596382
v -2.313567 1.487042 1.593204
v -2.312856 1.483970 1.591396
v -2.315209 1.484161 1.596382
v -2.312856 1.483970 1.591396
v -2.313560 1.481046 1.593437
v -2.139571 1.485243 1.637264
v -2.135379 1.486435 1.635818
v -2.136090 1.489507 1.637627
v -2.139571 1.485243 1.637264
v -2.136090 1.489507 1.637627
v -2.139511 1.489551 1.638855
v -2.133738 1.489316 1.632641
v -2.135386 1.492431 1.635585
v -2.136090 1.489507 1.637627
v -2.133738 1.489316 1.632641
v -2.136090 1.489507 1.637627
v -2.135379 1.486435 1.635818
v -2.139581 1.493722 1.636935
v -2.139511 1.489551 1.638855
v -2.136090 1.489507 1.637627
v -2.139581 1.493722 1.636935
v -2.136090 1.489507 1.637627
v -2.135386 1.492431 1.635585
v -2.140652 1.512407 1.607922
v -2.140497 1.514328 1.612090
v -2.137034 1.513227 1.612005
v -2.140652 1.512407 1.607922
v -2.137034 1.513227 1.612005
v -2.136365 1.511212 1.609054
v -2.140338 1.512737 1.616395
v -2.136142 1.511445 1.615045
v -2.137034 1.513227 1.612005
v -2.140338 1.512737 1.616395
v -2.137034 1.513227 1.612005
v -2.140497 1.514328 1.612090
v -2.134494 1.508330 1.612101
v -2.136365 1.511212 1.609054
v -2.137034 1.513227 1.612005
v -2.134494 1.508330 1.612101
v -2.137034 1.513227 1.612005
v -2.136142 1.511445 1.615045
v -2.140410 1.461019 1.614870
v -2.140565 1.459098 1.610702
v -2.137105 1.460198 1.610531
v -2.140410 1.461019 1.614870
v -2.137105 1.460198 1.610531
v -2.136218 1.462211 1.613424
v -2.140724 1.460690 1.606397
v -2.136440 1.461978 1.607432
v -2.137105 1.460198 1.610531
v -2.140724 1.460690 1.606397
v -2.137105 1.460198 1.610531
v -2.140565 1.459098 1.610702
v -2.134576 1.465092 1.610246
v -2.136218 1.462211 1.613424
v -2.137105 1.460198 1.610531
v -2.134576 1.465092 1.610246
v -2.137105 1.460198 1.610531
v -2.136440 1.461978 1.607432
v -2.141490 1.488183 1.585528
v -2.137203 1.486988 1.586660
v -2.138048 1.483917 1.584909
v -2.141490 1.488183 1.585528
v -2.138048 1.483917 1.584909
v -2.141551 1.483875 1.583938
v -2.135333 1.484107 1.589707
v -2.137197 1.480993 1.586893
v -2.138048 1.483917 1.584909
v -2.135333 1.484107 1.589707
v -2.138048 1.483917 1.584909
v -2.137203 1.486988 1.586660
v -2.141481 1.479704 1.585858
v -2.141551 1.483875 1.583938
v -2.138048 1.483917 1.584909
v -2.141481 1.479704 1.585858
v -2.138048 1.483917 1.584909
v -2.137197 1.480993 1.586893
v -2.308294 1.461070 1.621100
v -2.307456 1.485294 1.643494
v -2.311743 1.486489 1.642363
v -2.308294 1.461070 1.621100
v -2.311743 1.486489 1.642363
v -2.312582 1.462265 1.619968
v -2.312582 1.462265 1.619968
v -2.311743 1.486489 1.642363
v -2.313614 1.489370 1.639315
v -2.312582 1.462265 1.619968
v -2.313614 1.489370 1.639315
v -2.314452 1.465147 1.616921
v -2.307466 1.493773 1.643165
v -2.308222 1.512787 1.622625
v -2.312506 1.511499 1.621590
v -2.307466 1.493773 1.643165
v -2.312506 1.511499 1.621590
v -2.311750 1.492484 1.642130
v -2.311750 1.492484 1.642130
v -2.312506 1.511499 1.621590
v -2.314370 1.508385 1.618776
v -2.311750 1.492484 1.642130
v -2.314370 1.508385 1.618776
v -2.313614 1.489370 1.639315
v -2.308537 1.512458 1.614152
v -2.309375 1.488234 1.591758
v -2.313567 1.487042 1.593204
v -2.308537 1.512458 1.614152
v -2.313567 1.487042 1.593204
v -2.312729 1.511266 1.615599
v -2.312729 1.511266 1.615599
v -2.313567 1.487042 1.593204
v -2.315209 1.484161 1.596382
v -2.312729 1.511266 1.615599
v -2.315209 1.484161 1.596382
v -2.314370 1.508385 1.618776
v -2.309365 1.479755 1.592087
v -2.308609 1.460741 1.612627
v -2.312804 1.462032 1.613977
v -2.309365 1.479755 1.592087
v -2.312804 1.462032 1.613977
v -2.313560 1.481046 1.593437
v -2.313560 1.481046 1.593437
v -2.312804 1.462032 1.613977
v -2.314452 1.465147 1.616921
v -2.313560 1.481046 1.593437
v -2.314452 1.465147 1.616921
v -2.315209 1.484161 1.596382
v -2.140410 1.461019 1.614870
v -2.308294 1.461070 1.621100
v -2.308450 1.459149 1.616932
v -2.140410 1.461019 1.614870
v -2.308450 1.459149 1.616932
v -2.140565 1.459098 1.610702
v -2.140565 1.459098 1.610702
v -2.308450 1.459149 1.616932
v -2.308609 1.460741 1.612627
v -2.140565 1.459098 1.610702
v -2.308609 1.460741 1.612627
v -2.140724 1.460690 1.606397
v -2.309375 1.488234 1.591758
v -2.141490 1.488183 1.585528
v -2.141551 1.483875 1.583938
v -2.309375 1.488234 1.591758
v -2.141551 1.483875 1.583938
v -2.309435 1.483926 1.590168
v -2.309435 1.483926 1.590168
v -2.141551 1.483875 1.583938
v -2.141481 1.479704 1.585858
v -2.309435 1.483926 1.590168
v -2.141481 1.479704 1.585858
v -2.309365 1.479755 1.592087
v -2.135333 1.484107 1.589707
v -2.134576 1.465092 1.610246
v -2.136440 1.461978 1.607432
v -2.135333 1.484107 1.589707
v -2.136440 1.461978 1.607432
v -2.137197 1.480993 1.586893
v -2.137197 1.480993 1.586893
v -2.136440 1.461978 1.607432
v -2.140724 1.460690 1.606397
v -2.137197 1.480993 1.586893
v -2.140724 1.460690 1.606397
v -2.141481 1.479704 1.585858
v -2.139571 1.485243 1.637264
v -2.140410 1.461019 1.614870
v -2.136218 1.462211 1.613424
v -2.139571 1.485243 1.637264
v -2.136218 1.462211 1.613424
v -2.135379 1.486435 1.635818
v -2.135379 1.486435 1.635818
v -2.136218 1.462211 1.613424
v -2.134576 1.465092 1.610246
v -2.135379 1.486435 1.635818
v -2.134576 1.465092 1.610246
v -2.133738 1.489316 1.632641
v -2.141490 1.488183 1.585528
v -2.140652 1.512407 1.607922
v -2.136365 1.511212 1.609054
v -2.141490 1.488183 1.585528
v -2.136365 1.511212 1.609054
v -2.137203 1.486988 1.586660
v -2.137203 1.486988 1.586660
v -2.136365 1.511212 1.609054
v -2.134494 1.508330 1.612101
v -2.137203 1.486988 1.586660
v -2.134494 1.508330 1.612101
v -2.135333 1.484107 1.589707
v -2.140338 1.512737 1.616395
v -2.139581 1.493722 1.636935
v -2.135386 1.492431 1.635585
v -2.140338 1.512737 1.616395
v -2.135386 1.492431 1.635585
v -2.136142 1.511445 1.615045
v -2.136142 1.511445 1.615045
v -2.135386 1.492431 1.635585
v -2.133738 1.489316 1.632641
v -2.136142 1.511445 1.615045
v -2.133738 1.489316 1.632641
v -2.134494 1.508330 1.612101
v -2.307456 1.485294 1.643494
v -2.139571 1.485243 1.637264
v -2.139511 1.489551 1.638855
v -2.307456 1.485294 1.643494
v -2.139511 1.489551 1.638855
v -2.307396 1.489602 1.645084
v -2.307396 1.489602 1.645084
v -2.139511 1.489551 1.638855
v -2.139581 1.493722 1.636935
v -2.307396 1.489602 1.645084
v -2.139581 1.493722 1.636935
v -2.307466 1.493773 1.643165
v -2.140652 1.512407 1.607922
v -2.308537 1.512458 1.614152
v -2.308381 1.514379 1.618320
v -2.140652 1.512407 1.607922
v -2.308381 1.514379 1.618320
v -2.140497 1.514328 1.612090
v -2.140497 1.514328 1.612090
v -2.308381 1.514379 1.618320
v -2.308222 1.512787 1.622625
v -2.140497 1.514328 1.612090
v -2.308222 1.512787 1.622625
v -2.140338 1.512737 1.616395
v -2.308294 1.461070 1.621100
v -2.140410 1.461019 1.614870
v -2.139571 1.485243 1.637264
v -2.308294 1.461070 1.621100
v -2.139571 1.485243 1.637264
v -2.307456 1.485294 1.643494
v -2.313614 1.489370 1.639315
v -2.314370 1.508385 1.618776
v -2.315209 1.484161 1.596382
v -2.313614 1.489370 1.639315
v -2.315209 1.484161 1.596382
v -2.314452 1.465147 1.616921
v -2.139581 1.493722 1.636935
v -2.140338 1.512737 1.616395
v -2.308222 1.512787 1.622625
v -2.139581 1.493722 1.636935
v -2.308222 1.512787 1.622625
v -2.307466 1.493773 1.643165
v -2.141490 1.488183 1.585528
v -2.309375 1.488234 1.591758
v -2.308537 1.512458 1.614152
v -2.141490 1.488183 1.585528
v -2.308537 1.512458 1.614152
v -2.140652 1.512407 1.607922
v -2.308609 1.460741 1.612627
v -2.309365 1.479755 1.592087
v -2.141481 1.479704 1.585858
v -2.308609 1.460741 1.612627
v -2.141481 1.479704 1.585858
v -2.140724 1.460690 1.606397
v -2.134576 1.465092 1.610246
v -2.135333 1.484107 1.589707
v -2.134494 1.508330 1.612101
v -2.134576 1.465092 1.610246
v -2.134494 1.508330 1.612101
v -2.133738 1.489316 1.632641
vt 0.029158 0.029158
vt 0.000821 0.029158
vt 0.000821 0.012797
vt 0.029158 0.029158
vt 0.000821 0.012797
vt 0.029158 0.000821
vt 0.780288 0.029158
vt 0.780288 0.000821
vt 0.796648 0.000821
vt 0.780288 0.029158
vt 0.796648 0.000821
vt 0.808625 0.029158
vt 0.970842 0.185011
vt 0.999179 0.185011
vt 0.999179 0.201371
vt 0.970842 0.185011
vt 0.999179 0.201371
vt 0.970842 0.213347
vt 0.648049 0.029158
vt 0.619712 0.029158
vt 0.619712 0.012797
vt 0.648049 0.029158
vt 0.619712 0.012797
vt 0.648049 0.000821
vt 0.243326 0.822590
vt 0.243326 0.850927
vt 0.226966 0.850927
vt 0.243326 0.822590
vt 0.226966 0.850927
vt 0.214989 0.822590
vt 0.838603 0.185011
vt 0.838603 0.213347
vt 0.822243 0.213347
vt 0.838603 0.185011
vt 0.822243 0.213347
vt 0.810267 0.185011
vt 0.185011 0.029158
vt 0.185011 0.000821
vt 0.201371 0.000821
vt 0.185011 0.029158
vt 0.201371 0.000821
vt 0.213348 0.029158
vt 0.970842 0.029158
vt 0.970842 0.000821
vt 0.987202 0.000821
vt 0.970842 0.029158
vt 0.987202 0.000821
vt 0.999179 0.029158
vt 0.589733 0.822590
vt 0.618070 0.822590
vt 0.618070 0.838950
vt 0.589733 0.822590
vt 0.618070 0.838950
vt 0.589733 0.850927
vt 0.399179 0.822590
vt 0.427516 0.822590
vt 0.427516 0.838950
vt 0.399179 0.822590
vt 0.427516 0.838950
vt 0.399179 0.850927
vt 0.457495 0.822590
vt 0.457495 0.850927
vt 0.441134 0.850927
vt 0.457495 0.822590
vt 0.441134 0.850927
vt 0.429158 0.822590
vt 0.838603 0.029158
vt 0.810267 0.029158
vt 0.810267 0.012797
vt 0.838603 0.029158
vt 0.810267 0.012797
vt 0.838603 0.000821
vt 0.029158 0.822590
vt 0.029158 0.850927
vt 0.012797 0.850927
vt 0.029158 0.822590
vt 0.012797 0.850927
vt 0.000821 0.822590
vt 0.970842 0.243326
vt 0.970842 0.214989
vt 0.987202 0.214989
vt 0.970842 0.243326
vt 0.987202 0.214989
vt 0.999179 0.243326
vt 0.780288 0.822590
vt 0.808625 0.822590
vt 0.808625 0.838950
vt 0.780288 0.822590
vt 0.808625 0.838950
vt 0.780288 0.850927
vt 0.243326 0.029158
vt 0.214989 0.029158
vt 0.214989 0.012797
vt 0.243326 0.029158
vt 0.214989 0.012797
vt 0.243326 0.000821
vt 0.648049 0.822590
vt 0.648049 0.850927
vt 0.631689 0.850927
vt 0.648049 0.822590
vt 0.631689 0.850927
vt 0.619712 0.822590
vt 0.838603 0.243326
vt 0.810267 0.243326
vt 0.810267 0.226966
vt 0.838603 0.243326
vt 0.810267 0.226966
vt 0.838603 0.214989
vt 0.185011 0.822590
vt 0.213347 0.822590
vt 0.213347 0.838950
vt 0.185011 0.822590
vt 0.213347 0.838950
vt 0.185011 0.850927
vt 0.589733 0.029158
vt 0.589733 0.000821
vt 0.606094 0.000821
vt 0.589733 0.029158
vt 0.606094 0.000821
vt 0.618070 0.029158
vt 0.970842 0.399179
vt 0.999179 0.399179
vt 0.999179 0.415539
vt 0.970842 0.399179
vt 0.999179 0.415539
vt 0.970842 0.427516
vt 0.399179 0.029158
vt 0.399179 0.000821
vt 0.415539 0.000821
vt 0.399179 0.029158
vt 0.415539 0.000821
vt 0.427516 0.029158
vt 0.838603 0.399179
vt 0.838603 0.427516
vt 0.822243 0.427516
vt 0.838603 0.399179
vt 0.822243 0.427516
vt 0.810267 0.399179
vt 0.457495 0.029158
vt 0.429158 0.029158
vt 0.429158 0.012797
vt 0.457495 0.029158
vt 0.429158 0.012797
vt 0.457495 0.000821
vt 0.185011 0.029158
vt 0.029158 0.029158
vt 0.029158 0.000821
vt 0.185011 0.029158
vt 0.029158 0.000821
vt 0.185011 0.000821
vt 0.999179 0.029158
vt 0.999179 0.185011
vt 0.970842 0.185011
vt 0.999179 0.029158
vt 0.970842 0.185011
vt 0.970842 0.029158
vt 0.780288 0.029158
vt 0.648049 0.029158
vt 0.648049 0.000821
vt 0.780288 0.029158
vt 0.648049 0.000821
vt 0.780288 0.000821
vt 0.970842 0.213347
vt 0.838603 0.213347
vt 0.838603 0.185011
vt 0.970842 0.213347
vt 0.838603 0.185011
vt 0.970842 0.185011
vt 0.243326 0.822590
vt 0.399179 0.822590
vt 0.399179 0.850927
vt 0.243326 0.822590
vt 0.399179 0.850927
vt 0.243326 0.850927
vt 0.810267 0.185011
vt 0.810267 0.029158
vt 0.838603 0.029158
vt 0.810267 0.185011
vt 0.838603 0.029158
vt 0.838603 0.185011
vt 0.457495 0.822590
vt 0.589733 0.822590
vt 0.589733 0.850927
vt 0.457495 0.822590
vt 0.589733 0.850927
vt 0.457495 0.850927
vt 0.838603 0.000821
vt 0.970842 0.000821
vt 0.970842 0.029158
vt 0.838603 0.000821
vt 0.970842 0.029158
vt 0.838603 0.029158
vt 0.185011 0.822590
vt 0.185011 0.029158
vt 0.213348 0.029158
vt 0.185011 0.822590
vt 0.213348 0.029158
vt 0.213347 0.822590
vt 0.618070 0.029158
vt 0.618070 0.822590
vt 0.589733 0.822590
vt 0.618070 0.029158
vt 0.589733 0.822590
vt 0.589733 0.029158
vt 0.399179 0.822590
vt 0.399179 0.029158
vt 0.427516 0.029158
vt 0.399179 0.822590
vt 0.427516 0.029158
vt 0.427516 0.822590
vt 0.429158 0.822590
vt 0.429158 0.029158
vt 0.457495 0.029158
vt 0.429158 0.822590
vt 0.457495 0.029158
vt 0.457495 0.822590
vt 0.838603 0.399179
vt 0.970842 0.399179
vt 0.970842 0.427516
vt 0.838603 0.399179
vt 0.970842 0.427516
vt 0.838603 0.427516
vt 0.457495 0.000821
vt 0.589733 0.000821
vt 0.589733 0.029158
vt 0.457495 0.000821
vt 0.589733 0.029158
vt 0.457495 0.029158
vt 0.029158 0.822590
vt 0.185011 0.822590
vt 0.185011 0.850927
vt 0.029158 0.822590
vt 0.185011 0.850927
vt 0.029158 0.850927
vt 0.999179 0.243326
vt 0.999179 0.399179
vt 0.970842 0.399179
vt 0.999179 0.243326
vt 0.970842 0.399179
vt 0.970842 0.243326
vt 0.399179 0.029158
vt 0.243326 0.029158
vt 0.243326 0.000821
vt 0.399179 0.029158
vt 0.243326 0.000821
vt 0.399179 0.000821
vt 0.810267 0.399179
vt 0.810267 0.243326
vt 0.838603 0.243326
vt 0.810267 0.399179
vt 0.838603 0.243326
vt 0.838603 0.399179
vt 0.648049 0.822590
vt 0.780288 0.822590
vt 0.780288 0.850927
vt 0.648049 0.822590
vt 0.780288 0.850927
vt 0.648049 0.850927
vt 0.838603 0.214989
vt 0.970842 0.214989
vt 0.970842 0.243326
vt 0.838603 0.214989
vt 0.970842 0.243326
vt 0.838603 0.243326
vt 0.029158 0.029158
vt 0.029158 0.822590
vt 0.000821 0.822590
vt 0.029158 0.029158
vt 0.000821 0.822590
vt 0.000821 0.029158
vt 0.808625 0.029158
vt 0.808625 0.822590
vt 0.780288 0.822590
vt 0.808625 0.029158
vt 0.780288 0.822590
vt 0.780288 0.029158
vt 0.243326 0.029158
vt 0.243326 0.822590
vt 0.214989 0.822590
vt 0.243326 0.029158
vt 0.214989 0.822590
vt 0.214989 0.029158
vt 0.619712 0.822590
vt 0.619712 0.029158
vt 0.648049 0.029158
vt 0.619712 0.822590
vt 0.648049 0.029158
vt 0.648049 0.822590
vt 0.185011 0.029158
vt 0.185011 0.822590
vt 0.029158 0.822590
vt 0.185011 0.029158
vt 0.029158 0.822590
vt 0.029158 0.029158
vt 0.970842 0.185011
vt 0.838603 0.185011
vt 0.838603 0.029158
vt 0.970842 0.185011
vt 0.838603 0.029158
vt 0.970842 0.029158
vt 0.780288 0.822590
vt 0.648049 0.822590
vt 0.648049 0.029158
vt 0.780288 0.822590
vt 0.648049 0.029158
vt 0.780288 0.029158
vt 0.399179 0.029158
vt 0.399179 0.822590
vt 0.243326 0.822590
vt 0.399179 0.029158
vt 0.243326 0.822590
vt 0.243326 0.029158
vt 0.589733 0.822590
vt 0.457495 0.822590
vt 0.457495 0.029158
vt 0.589733 0.822590
vt 0.457495 0.029158
vt 0.589733 0.029158
vt 0.970842 0.399179
vt 0.838603 0.399179
vt 0.838603 0.243326
vt 0.970842 0.399179
vt 0.838603 0.243326
vt 0.970842 0.243326
vn -0.24828 -0.33237 0.90989
vn -0.24828 -0.33237 0.90989
vn -0.24828 -0.33237 0.90989
vn -0.33582 -0.39505 0.85508
vn -0.33582 -0.39505 0.85508
vn -0.33582 -0.39505 0.85508
vn -0.33680 0.45948 0.82185
vn -0.33680 0.45948 0.82185
vn -0.33680 0.45948 0.82185
vn -0.24911 0.40144 0.88136
vn -0.24911 0.40144 0.88136
vn -0.24911 0.40144 0.88136
vn -0.86877 -0.04226 0.49342
vn -0.86877 -0.04226 0.49342
vn -0.86877 -0.04226 0.49342
vn -0.86890 0.07847 0.48872
vn -0.86890 0.07847 0.48872
vn -0.86890 0.07847 0.48872
vn -0.26895 0.90014 0.34266
vn -0.26895 0.90014 0.34266
vn -0.26895 0.90014 0.34266
vn -0.35202 0.84215 0.40850
vn -0.35202 0.84215 0.40850
vn -0.35202 0.84215 0.40850
vn -0.38372 0.80891 -0.44545
vn -0.38372 0.80891 -0.44545
vn -0.38372 0.80891 -0.44545
vn -0.29617 0.87160 -0.39064
vn -0.29617 0.87160 -0.39064
vn -0.29617 0.87160 -0.39064
vn -0.88413 0.46113 0.07537
vn -0.88413 0.46113 0.07537
vn -0.88413 0.46113 0.07537
vn -0.88860 0.45643 -0.04528
vn -0.88860 0.45643 -0.04528
vn -0.88860 0.45643 -0.04528
vn -0.35014 -0.80869 0.47268
vn -0.35014 -0.80869 0.47268
vn -0.35014 -0.80869 0.47268
vn -0.26693 -0.87143 0.41154
vn -0.26693 -0.87143 0.41154
vn -0.26693 -0.87143 0.41154
vn -0.88756 -0.46059 -0.00963
vn -0.88756 -0.46059 -0.00963
vn -0.88756 -0.46059 -0.00963
vn -0.88308 -0.45590 0.11102
vn -0.88308 -0.45590 0.11102
vn -0.88308 -0.45590 0.11102
vn -0.29415 -0.89997 -0.32176
vn -0.29415 -0.89997 -0.32176
vn -0.29415 -0.89997 -0.32176
vn -0.38184 -0.84192 -0.38127
vn -0.38184 -0.84192 -0.38127
vn -0.38184 -0.84192 -0.38127
vn -0.31483 0.33254 -0.88899
vn -0.31483 0.33254 -0.88899
vn -0.31483 0.33254 -0.88899
vn -0.39803 0.39528 -0.82784
vn -0.39803 0.39528 -0.82784
vn -0.39803 0.39528 -0.82784
vn -0.39706 -0.45926 -0.79462
vn -0.39706 -0.45926 -0.79462
vn -0.39706 -0.45926 -0.79462
vn -0.31399 -0.40127 -0.86046
vn -0.31399 -0.40127 -0.86046
vn -0.31399 -0.40127 -0.86046
vn -0.90292 0.04280 -0.42767
vn -0.90292 0.04280 -0.42767
vn -0.90292 0.04280 -0.42767
vn -0.90278 -0.07793 -0.42298
vn -0.90278 -0.07793 -0.42298
vn -0.90278 -0.07793 -0.42298
vn 0.39803 -0.39528 0.82784
vn 0.39803 -0.39528 0.82784
vn 0.39803 -0.39528 0.82784
vn 0.31483 -0.33254 0.88899
vn 0.31483 -0.33254 0.88899
vn 0.31483 -0.33254 0.88899
vn 0.90278 0.07793 0.42298
vn 0.90278 0.07793 0.42298
vn 0.90278 0.07793 0.42298
vn 0.90292 -0.04280 0.42767
vn 0.90292 -0.04280 0.42767
vn 0.90292 -0.04280 0.42767
vn 0.31399 0.40127 0.86046
vn 0.31399 0.40127 0.86046
vn 0.31399 0.40127 0.86046
vn 0.39706 0.45926 0.79462
vn 0.39706 0.45926 0.79462
vn 0.39706 0.45926 0.79462
vn 0.26693 0.87143 -0.41154
vn 0.26693 0.87143 -0.41154
vn 0.26693 0.87143 -0.41154
vn 0.35014 0.80869 -0.47268
vn 0.35014 0.80869 -0.47268
vn 0.35014 0.80869 -0.47268
vn 0.38184 0.84192 0.38127
vn 0.38184 0.84192 0.38127
vn 0.38184 0.84192 0.38127
vn 0.29415 0.89997 0.32176
vn 0.29415 0.89997 0.32176
vn 0.29415 0.89997 0.32176
vn 0.88308 0.45590 -0.11102
vn 0.88308 0.45590 -0.11102
vn 0.88308 0.45590 -0.11102
vn 0.88756 0.46059 0.00963
vn 0.88756 0.46059 0.00963
vn 0.88756 0.46059 0.00963
vn 0.29617 -0.87160 0.39064
vn 0.29617 -0.87160 0.39064
vn 0.29617 -0.87160 0.39064
vn 0.38372 -0.80891 0.44545
vn 0.38372 -0.80891 0.44545
vn 0.38372 -0.80891 0.44545
vn 0.35202 -0.84215 -0.40850
vn 0.35202 -0.84215 -0.40850
vn 0.35202 -0.84215 -0.40850
vn 0.26895 -0.90014 -0.34266
vn 0.26895 -0.90014 -0.34266
vn 0.26895 -0.90014 -0.34266
vn 0.88860 -0.45643 0.04528
vn 0.88860 -0.45643 0.04528
vn 0.88860 -0.45643 0.04528
vn 0.88413 -0.46113 -0.07537
vn 0.88413 -0.46113 -0.07537
vn 0.88413 -0.46113 -0.07537
vn 0.33582 0.39505 -0.85508
vn 0.33582 0.39505 -0.85508
vn 0.33582 0.39505 -0.85508
vn 0.24828 0.33237 -0.90989
vn 0.24828 0.33237 -0.90989
vn 0.24828 0.33237 -0.90989
vn 0.86890 -0.07847 -0.48872
vn 0.86890 -0.07847 -0.48872
vn 0.86890 -0.07847 -0.48872
vn 0.86877 0.04226 -0.49342
vn 0.86877 0.04226 -0.49342
vn 0.86877 0.04226 -0.49342
vn 0.24911 -0.40144 -0.88136
vn 0.24911 -0.40144 -0.88136
vn 0.24911 -0.40144 -0.88136
vn 0.33680 -0.45948 -0.82185
vn 0.33680 -0.45948 -0.82185
vn 0.33680 -0.45948 -0.82185
vn -0.35746 -0.62728 0.69191
vn -0.35746 -0.62728 0.69191
vn -0.35746 -0.62728 0.69191
vn -0.35746 -0.62728 0.69191
vn -0.35746 -0.62728 0.69191
vn -0.35746 -0.62728 0.69191
vn -0.91291 -0.25960 0.31498
vn -0.91291 -0.25960 0.31498
vn -0.91291 -0.25960 0.31498
vn -0.91291 -0.25960 0.31498
vn -0.91291 -0.25960 0.31498
vn -0.91291 -0.25960 0.31498
vn -0.35895 0.67829 0.64115
vn -0.35895 0.67829 0.64115
vn -0.35895 0.67829 0.64115
vn -0.35895 0.67829 0.64115
vn -0.35895 0.67829 0.64115
vn -0.35895 0.67829 0.64115
vn -0.91352 0.28119 0.29396
vn -0.91352 0.28119 0.29396
vn -0.91352 0.28119 0.29396
vn -0.91352 0.28119 0.29396
vn -0.91352 0.28119 0.29396
vn -0.91352 0.28119 0.29396
vn -0.40738 0.62751 -0.66353
vn -0.40738 0.62751 -0.66353
vn -0.40738 0.62751 -0.66353
vn -0.40738 0.62751 -0.66353
vn -0.40738 0.62751 -0.66353
vn -0.40738 0.62751 -0.66353
vn -0.93358 0.26016 -0.24646
vn -0.93358 0.26016 -0.24646
vn -0.93358 0.26016 -0.24646
vn -0.93358 0.26016 -0.24646
vn -0.93358 0.26016 -0.24646
vn -0.93358 0.26016 -0.24646
vn -0.40589 -0.67806 -0.61277
vn -0.40589 -0.67806 -0.61277
vn -0.40589 -0.67806 -0.61277
vn -0.40589 -0.67806 -0.61277
vn -0.40589 -0.67806 -0.61277
vn -0.40589 -0.67806 -0.61277
vn -0.93297 -0.28063 -0.22544
vn -0.93297 -0.28063 -0.22544
vn -0.93297 -0.28063 -0.22544
vn -0.93297 -0.28063 -0.22544
vn -0.93297 -0.28063 -0.22544
vn -0.93297 -0.28063 -0.22544
vn 0.01524 -0.90831 0.41802
vn 0.01524 -0.90831 0.41802
vn 0.01524 -0.90831 0.41802
vn 0.01524 -0.90831 0.41802
vn 0.01524 -0.90831 0.41802
vn 0.01524 -0.90831 0.41802
vn -0.01313 -0.93805 -0.34624
vn -0.01313 -0.93805 -0.34624
vn -0.01313 -0.93805 -0.34624
vn -0.01313 -0.93805 -0.34624
vn -0.01313 -0.93805 -0.34624
vn -0.01313 -0.93805 -0.34624
vn -0.03468 0.34649 -0.93741
vn -0.03468 0.34649 -0.93741
vn -0.03468 0.34649 -0.93741
vn -0.03468 0.34649 -0.93741
vn -0.03468 0.34649 -0.93741
vn -0.03468 0.34649 -0.93741
vn -0.03381 -0.41830 -0.90768
vn -0.03381 -0.41830 -0.90768
vn -0.03381 -0.41830 -0.90768
vn -0.03381 -0.41830 -0.90768
vn -0.03381 -0.41830 -0.90768
vn -0.03381 -0.41830 -0.90768
vn 0.91352 -0.28119 -0.29396
vn 0.91352 -0.28119 -0.29396
vn 0.91352 -0.28119 -0.29396
vn 0.91352 -0.28119 -0.29396
vn 0.91352 -0.28119 -0.29396
vn 0.91352 -0.28119 -0.29396
vn 0.35895 -0.67829 -0.64115
vn 0.35895 -0.67829 -0.64115
vn 0.35895 -0.67829 -0.64115
vn 0.35895 -0.67829 -0.64115
vn 0.35895 -0.67829 -0.64115
vn 0.35895 -0.67829 -0.64115
vn 0.40738 -0.62751 0.66353
vn 0.40738 -0.62751 0.66353
vn 0.40738 -0.62751 0.66353
vn 0.40738 -0.62751 0.66353
vn 0.40738 -0.62751 0.66353
vn 0.40738 -0.62751 0.66353
vn 0.93358 -0.26016 0.24646
vn 0.93358 -0.26016 0.24646
vn 0.93358 -0.26016 0.24646
vn 0.93358 -0.26016 0.24646
vn 0.93358 -0.26016 0.24646
vn 0.93358 -0.26016 0.24646
vn 0.35746 0.62728 -0.69191
vn 0.35746 0.62728 -0.69191
vn 0.35746 0.62728 -0.69191
vn 0.35746 0.62728 -0.69191
vn 0.35746 0.62728 -0.69191
vn 0.35746 0.62728 -0.69191
vn 0.91291 0.25960 -0.31498
vn 0.91291 0.25960 -0.31498
vn 0.91291 0.25960 -0.31498
vn 0.91291 0.25960 -0.31498
vn 0.91291 0.25960 -0.31498
vn 0.91291 0.25960 -0.31498
vn 0.40589 0.67806 0.61277
vn 0.40589 0.67806 0.61277
vn 0.40589 0.67806 0.61277
vn 0.40589 0.67806 0.61277
vn 0.40589 0.67806 0.61277
vn 0.40589 0.67806 0.61277
vn 0.93297 0.28063 0.22544
vn 0.93297 0.28063 0.22544
vn 0.93297 0.28063 0.22544
vn 0.93297 0.28063 0.22544
vn 0.93297 0.28063 0.22544
vn 0.93297 0.28063 0.22544
vn 0.03468 -0.34649 0.93741
vn 0.03468 -0.34649 0.93741
vn 0.03468 -0.34649 0.93741
vn 0.03468 -0.34649 0.93741
vn 0.03468 -0.34649 0.93741
vn 0.03468 -0.34649 0.93741
vn 0.03381 0.41830 0.90768
vn 0.03381 0.41830 0.90768
vn 0.03381 0.41830 0.90768
vn 0.03381 0.41830 0.90768
vn 0.03381 0.41830 0.90768
vn 0.03381 0.41830 0.90768
vn -0.01524 0.90831 -0.41802
vn -0.01524 0.90831 -0.41802
vn -0.01524 0.90831 -0.41802
vn -0.01524 0.90831 -0.41802
vn -0.01524 0.90831 -0.41802
vn -0.01524 0.90831 -0.41802
vn 0.01313 0.93805 0.34624
vn 0.01313 0.93805 0.34624
vn 0.01313 0.93805 0.34624
vn 0.01313 0.93805 0.34624
vn 0.01313 0.93805 0.34624
vn 0.01313 0.93805 0.34624
vn 0.02702 -0.67909 0.73356
vn 0.02702 -0.67909 0.73356
vn 0.02702 -0.67909 0.73356
vn 0.02702 -0.67909 0.73356
vn 0.02702 -0.67909 0.73356
vn 0.02702 -0.67909 0.73356
vn -0.99931 0.00030 0.03708
vn -0.99931 0.00030 0.03708
vn -0.99931 0.00030 0.03708
vn -0.99931 0.00030 0.03708
vn -0.99931 0.00030 0.03708
vn -0.99931 0.00030 0.03708
vn 0.02540 0.73405 0.67862
vn 0.02540 0.73405 0.67862
vn 0.02540 0.73405 0.67862
vn 0.02540 0.73405 0.67862
vn 0.02540 0.73405 0.67862
vn 0.02540 0.73405 0.67862
vn -0.02702 0.67909 -0.73356
vn -0.02702 0.67909 -0.73356
vn -0.02702 0.67909 -0.73356
vn -0.02702 0.67909 -0.73356
vn -0.02702 0.67909 -0.73356
vn -0.02702 0.67909 -0.73356
vn -0.02540 -0.73405 -0.67862
vn -0.02540 -0.73405 -0.67862
vn -0.02540 -0.73405 -0.67862
vn -0.02540 -0.73405 -0.67862
vn -0.02540 -0.73405 -0.67862
vn -0.02540 -0.73405 -0.67862
vn 0.99931 -0.00030 -0.03708
vn 0.99931 -0.00030 -0.03708
vn 0.99931 -0.00030 -0.03708
vn 0.99931 -0.00030 -0.03708
vn 0.99931 -0.00030 -0.03708
vn 0.99931 -0.00030 -0.03708
f 1/1/1 2/2/2 3/3/3
f 4/4/4 5/5/5 6/6/6
f 7/7/7 8/8/8 9/9/9
f 10/10/10 11/11/11 12/12/12
f 13/13/13 14/14/14 15/15/15
f 16/16/16 17/17/17 18/18/18
f 19/19/19 20/20/20 21/21/21
f 22/22/22 23/23/23 24/24/24
f 25/25/25 26/26/26 27/27/27
f 28/28/28 29/29/29 30/30/30
f 31/31/31 32/32/32 33/33/33
f 34/34/34 35/35/35 36/36/36
f 37/37/37 38/38/38 39/39/39
f 40/40/40 41/41/41 42/42/42
f 43/43/43 44/44/44 45/45/45
f 46/46/46 47/47/47 48/48/48
f 49/49/49 50/50/50 51/51/51
f 52/52/52 53/53/53 54/54/54
f 55/55/55 56/56/56 57/57/57
f 58/58/58 59/59/59 60/60/60
f 61/61/61 62/62/62 63/63/63
f 64/64/64 65/65/65 66/66/66
f 67/67/67 68/68/68 69/69/69
f 70/70/70 71/71/71 72/72/72
f 73/73/73 74/74/74 75/75/75
f 76/76/76 77/77/77 78/78/78
f 79/79/79 80/80/80 81/81/81
f 82/82/82 83/83/83 84/84/84
f 85/85/85 86/86/86 87/87/87
f 88/88/88 89/89/89 90/90/90
f 91/91/91 92/92/92 93/93/93
f 94/94/94 95/95/95 96/96/96
f 97/97/97 98/98/98 99/99/99
f 100/100/100 101/101/101 102/102/102
f 103/103/103 104/104/104 105/105/105
f 106/106/106 107/107/107 108/108/108
f 109/109/109 110/110/110 111/111/111
f 112/112/112 113/113/113 114/114/114
f 115/115/115 116/116/116 117/117/117
f 118/118/118 119/119/119 120/120/120
f 121/121/121 122/122/122 123/123/123
f 124/124/124 125/125/125 126/126/126
f 127/127/127 128/128/128 129/129/129
f 130/130/130 131/131/131 132/132/132
f 133/133/133 134/134/134 135/135/135
f 136/136/136 137/137/137 138/138/138
f 139/139/139 140/140/140 141/141/141
f 142/142/142 143/143/143 144/144/144
f 145/145/145 146/146/146 147/147/147
f 148/148/148 149/149/149 150/150/150
f 151/151/151 152/152/152 153/153/153
f 154/154/154 155/155/155 156/156/156
f 157/157/157 158/158/158 159/159/159
f 160/160/160 161/161/161 162/162/162
f 163/163/163 164/164/164 165/165/165
f 166/166/166 167/167/167 168/168/168
f 169/169/169 170/170/170 171/171/171
f 172/172/172 173/173/173 174/174/174
f 175/175/175 176/176/176 177/177/177
f 178/178/178 179/179/179 180/180/180
f 181/181/181 182/182/182 183/183/183
f 184/184/184 185/185/185 186/186/186
f 187/187/187 188/188/188 189/189/189
f 190/190/190 191/191/191 192/192/192
f 193/193/193 194/194/194 195/195/195
f 196/196/196 197/197/197 198/198/198
f 199/199/199 200/200/200 201/201/201
f 202/202/202 203/203/203 204/204/204
f 205/205/205 206/206/206 207/207/207
f 208/208/208 209/209/209 210/210/210
f 211/211/211 212/212/212 213/213/213
f 214/214/214 215/215/215 216/216/216
f 217/217/217 218/218/218 219/219/219
f 220/220/220 221/221/221 222/222/222
f 223/223/223 224/224/224 225/225/225
f 226/226/226 227/227/227 228/228/228
f 229/229/229 230/230/230 231/231/231
f 232/232/232 233/233/233 234/234/234
f 235/235/235 236/236/236 237/237/237
f 238/238/238 239/239/239 240/240/240
f 241/241/241 242/242/242 243/243/243
f 244/244/244 245/245/245 246/246/246
f 247/247/247 248/248/248 249/249/249
f 250/250/250 251/251/251 252/252/252
f 253/253/253 254/254/254 255/255/255
f 256/256/256 257/257/257 258/258/258
f 259/259/259 260/260/260 261/261/261
f 262/262/262 263/263/263 264/264/264
f 265/265/265 266/266/266 267/267/267
f 268/268/268 269/269/269 270/270/270
f 271/271/271 272/272/272 273/273/273
f 274/274/274 275/275/275 276/276/276
f 277/277/277 278/278/278 279/279/279
f 280/280/280 281/281/281 282/282/282
f 283/283/283 284/284/284 285/285/285
f 286/286/286 287/287/287 288/288/288
f 289/289/289 290/290/290 291/291/291
f 292/292/292 293/293/293 294/294/294
f 295/295/295 296/296/296 297/297/297
f 298/298/298 299/299/299 300/300/300
f 301/301/301 302/302/302 303/303/303
f 304/304/304 305/305/305 306/306/306
f 307/307/307 308/308/308 309/309/309
f 310/310/310 311/311/311 312/312/312
f 313/313/313 314/314/314 315/315/315
f 316/316/316 317/317/317 318/318/318
f 319/319/319 320/320/320 321/321/321
f 322/322/322 323/323/323 324/324/324
